<svg xmlns="http://www.w3.org/2000/svg" width="225" height="225" viewBox="0 0 225 225">
<g>
<path d="M 126.44 215.91 C116.32,217.73 97.49,216.68 89.50,213.84 C87.85,213.25 84.25,212.15 81.50,211.38 C70.82,208.40 49.15,195.95 42.50,188.98 C41.95,188.40 40.15,186.62 38.50,185.03 C35.74,182.35 29.68,174.15 23.44,164.63 C22.04,162.51 20.64,159.46 20.32,157.85 C20.00,156.25 18.75,154.16 17.54,153.21 C16.33,152.26 15.05,149.91 14.70,147.99 C14.35,146.07 13.34,141.35 12.45,137.50 C8.74,121.42 8.74,105.30 12.47,89.50 C13.25,86.20 14.19,81.96 14.56,80.08 C14.93,78.20 16.53,74.87 18.12,72.68 C19.70,70.49 21.00,68.06 21.00,67.27 C21.00,60.72 44.63,33.81 56.97,26.30 C66.68,20.39 67.39,20.03 69.17,20.01 C70.09,20.01 72.14,18.92 73.71,17.59 C75.36,16.20 79.10,14.67 82.54,13.99 C85.82,13.33 90.53,12.36 93.00,11.84 C102.57,9.81 113.68,9.13 122.50,10.03 C135.80,11.40 148.62,14.48 152.83,17.32 C154.85,18.68 157.56,20.11 158.85,20.50 C160.90,21.11 166.42,24.35 169.50,26.75 C170.05,27.18 172.98,29.28 176.00,31.43 C182.15,35.79 195.00,48.71 195.00,50.54 C195.00,51.20 196.37,53.25 198.04,55.11 C201.45,58.91 205.00,65.16 205.00,67.38 C205.00,68.19 206.12,70.18 207.50,71.82 C208.88,73.45 210.00,75.55 210.00,76.48 C210.00,77.40 211.08,81.39 212.40,85.33 C216.97,99.01 217.91,116.30 214.94,132.00 C213.05,141.98 212.78,143.02 211.88,143.57 C211.40,143.87 211.00,145.16 211.00,146.44 C211.00,149.13 207.16,157.52 202.95,164.00 C201.35,166.48 199.47,169.62 198.79,171.00 C197.46,173.69 192.75,180.07 189.50,183.60 C186.12,187.27 173.63,198.00 172.73,198.00 C172.27,198.00 169.33,199.74 166.20,201.87 C163.06,203.99 159.04,206.05 157.26,206.44 C155.47,206.84 153.66,207.79 153.22,208.57 C152.79,209.34 150.42,210.39 147.97,210.90 C145.51,211.41 141.02,212.50 138.00,213.32 C134.98,214.14 129.77,215.30 126.44,215.91 ZM 80.50 173.60 C82.70,174.26 89.10,174.85 94.73,174.90 L 104.95 175.00 L 115.37 169.92 L 125.79 164.85 L 129.64 168.98 C132.22,171.74 134.83,173.41 137.50,174.03 C143.34,175.38 151.74,175.18 157.85,173.55 C166.60,171.22 169.60,167.17 168.41,159.26 C167.45,152.87 165.07,151.05 158.33,151.56 C150.76,152.14 146.03,150.10 146.17,146.32 C146.23,144.77 146.18,126.20 146.07,105.07 C145.90,73.66 145.59,66.12 144.40,63.81 C142.82,60.75 133.35,55.85 126.56,54.58 C124.47,54.18 121.98,53.38 121.03,52.79 C118.95,51.49 82.64,53.31 76.74,55.01 C74.67,55.61 72.27,57.19 71.40,58.52 C69.99,60.66 69.97,61.43 71.23,65.22 C73.24,71.29 75.46,72.08 86.00,70.43 C95.91,68.89 106.64,68.62 107.43,69.89 C107.73,70.37 109.59,71.08 111.56,71.44 C113.52,71.81 116.57,72.92 118.32,73.89 L 121.50 75.67 L 121.78 87.79 C122.06,99.75 122.03,99.94 119.56,101.55 C117.87,102.66 113.86,103.36 107.03,103.74 C101.52,104.04 97.00,104.57 97.00,104.91 C97.00,105.25 93.51,105.61 89.25,105.70 C79.36,105.90 75.93,107.41 67.61,115.19 C59.66,122.62 59.04,124.45 59.77,138.38 C60.13,145.19 59.94,148.00 59.14,148.00 C57.38,148.00 57.78,150.55 60.40,155.98 C65.41,166.37 70.06,170.45 80.50,173.60 ZM 107.36 153.51 C103.43,154.21 99.38,155.01 98.36,155.27 C94.85,156.16 87.13,153.63 85.31,151.00 C84.36,149.62 83.00,147.91 82.29,147.18 C80.49,145.34 80.68,136.82 82.62,132.28 C85.40,125.81 85.63,125.53 89.11,124.50 C90.97,123.95 93.03,123.16 93.67,122.74 C97.63,120.17 118.93,118.86 121.54,121.03 C122.67,121.97 123.00,124.90 123.00,134.04 C123.00,140.53 122.72,146.56 122.38,147.46 C121.52,149.69 115.84,151.98 107.36,153.51 Z" fill="rgb(2,143,199)"/>
<path d="M 137.15 216.15 C132.43,217.34 124.52,218.25 116.50,218.54 C98.72,219.19 85.29,216.34 69.46,208.58 C51.27,199.67 38.60,189.10 27.56,173.63 C22.95,167.18 15.00,152.06 15.00,149.75 C15.00,149.01 14.60,147.97 14.11,147.45 C13.62,146.93 12.18,142.00 10.91,136.50 C7.76,122.81 7.74,103.53 10.86,90.32 C15.79,69.43 23.83,55.17 39.50,39.50 C54.96,24.04 69.52,15.77 90.00,10.82 C102.29,7.84 123.95,7.85 136.95,10.83 C142.15,12.02 146.85,13.45 147.40,14.00 C147.95,14.55 149.25,15.00 150.29,15.00 C153.86,15.00 171.63,25.00 180.05,31.75 C199.02,46.95 211.78,68.50 217.03,94.16 C221.61,116.60 217.85,141.18 206.56,162.45 C192.23,189.47 167.69,208.45 137.15,216.15 ZM 126.44 215.91 C129.77,215.30 134.98,214.14 138.00,213.32 C141.02,212.50 145.51,211.41 147.97,210.90 C150.42,210.39 152.79,209.34 153.22,208.57 C153.66,207.79 155.47,206.84 157.26,206.44 C159.04,206.05 163.06,203.99 166.20,201.87 C169.33,199.74 172.27,198.00 172.73,198.00 C173.63,198.00 186.12,187.27 189.50,183.60 C192.75,180.07 197.46,173.69 198.79,171.00 C199.47,169.62 201.35,166.48 202.95,164.00 C207.16,157.52 211.00,149.13 211.00,146.44 C211.00,145.16 211.40,143.87 211.88,143.57 C212.78,143.02 213.05,141.98 214.94,132.00 C217.91,116.30 216.97,99.01 212.40,85.33 C211.08,81.39 210.00,77.40 210.00,76.48 C210.00,75.55 208.88,73.45 207.50,71.82 C206.12,70.18 205.00,68.19 205.00,67.38 C205.00,65.16 201.45,58.91 198.04,55.11 C196.37,53.25 195.00,51.20 195.00,50.54 C195.00,48.71 182.15,35.79 176.00,31.43 C172.98,29.28 170.05,27.18 169.50,26.75 C166.42,24.35 160.90,21.11 158.85,20.50 C157.56,20.11 154.85,18.68 152.83,17.32 C148.62,14.48 135.80,11.40 122.50,10.03 C113.68,9.13 102.57,9.81 93.00,11.84 C90.53,12.36 85.82,13.33 82.54,13.99 C79.10,14.67 75.36,16.20 73.71,17.59 C72.14,18.92 70.09,20.01 69.17,20.01 C67.39,20.03 66.68,20.39 56.97,26.30 C44.63,33.81 21.00,60.72 21.00,67.27 C21.00,68.06 19.70,70.49 18.12,72.68 C16.53,74.87 14.93,78.20 14.56,80.08 C14.19,81.96 13.25,86.20 12.47,89.50 C8.74,105.30 8.74,121.42 12.45,137.50 C13.34,141.35 14.35,146.07 14.70,147.99 C15.05,149.91 16.33,152.26 17.54,153.21 C18.75,154.16 20.00,156.25 20.32,157.85 C20.64,159.46 22.04,162.51 23.44,164.63 C29.68,174.15 35.74,182.35 38.50,185.03 C40.15,186.62 41.95,188.40 42.50,188.98 C49.15,195.95 70.82,208.40 81.50,211.38 C84.25,212.15 87.85,213.25 89.50,213.84 C97.49,216.68 116.32,217.73 126.44,215.91 ZM 112.00 155.00 C102.22,158.29 92.21,158.38 86.39,155.23 C81.40,152.52 78.94,143.57 80.43,133.61 C81.97,123.32 87.94,120.55 110.75,119.54 L 125.00 118.91 L 125.00 148.80 L 121.41 150.92 C119.43,152.09 115.20,153.92 112.00,155.00 ZM 107.36 153.51 C115.84,151.98 121.52,149.69 122.38,147.46 C122.72,146.56 123.00,140.53 123.00,134.04 C123.00,124.90 122.67,121.97 121.54,121.03 C118.93,118.86 97.63,120.17 93.67,122.74 C93.03,123.16 90.97,123.95 89.11,124.50 C85.63,125.53 85.40,125.81 82.62,132.28 C80.68,136.82 80.49,145.34 82.29,147.18 C83.00,147.91 84.36,149.62 85.31,151.00 C87.13,153.63 94.85,156.16 98.36,155.27 C99.38,155.01 103.43,154.21 107.36,153.51 ZM 80.50 173.60 C70.06,170.45 65.41,166.37 60.40,155.98 C57.78,150.55 57.38,148.00 59.14,148.00 C59.94,148.00 60.13,145.19 59.77,138.38 C59.04,124.45 59.66,122.62 67.61,115.19 C75.93,107.41 79.36,105.90 89.25,105.70 C93.51,105.61 97.00,105.25 97.00,104.91 C97.00,104.57 101.52,104.04 107.03,103.74 C113.86,103.36 117.87,102.66 119.56,101.55 C122.03,99.94 122.06,99.75 121.78,87.79 L 121.50 75.67 L 118.32 73.89 C116.57,72.92 113.52,71.81 111.56,71.44 C109.59,71.08 107.73,70.37 107.43,69.89 C107.36,69.77 107.20,69.66 106.97,69.57 C112.90,69.99 118.05,70.97 120.87,72.43 L 124.05 74.08 L 123.78 89.29 L 123.50 104.50 L 110.00 105.23 C89.97,106.31 83.56,107.44 76.08,111.19 C63.82,117.35 59.26,126.86 60.25,144.20 C61.11,159.33 68.49,169.01 81.95,172.64 C92.03,175.36 106.81,173.58 115.49,168.60 C117.70,167.34 120.97,165.45 122.77,164.40 L 126.04 162.50 L 129.27 166.10 C134.17,171.56 137.62,173.24 145.08,173.77 C152.52,174.31 160.76,172.28 164.89,168.91 C167.00,167.18 167.21,166.39 166.69,162.01 C165.90,155.39 163.81,152.02 159.94,151.49 C165.46,151.39 167.53,153.41 168.41,159.26 C169.60,167.17 166.60,171.22 157.85,173.55 C151.74,175.18 143.34,175.38 137.50,174.03 C134.83,173.41 132.22,171.74 129.64,168.98 L 125.79 164.85 L 115.37 169.92 L 104.95 175.00 L 94.73 174.90 C89.10,174.85 82.70,174.26 80.50,173.60 ZM 156.50 151.65 C156.06,151.74 155.61,151.85 155.14,151.98 C149.71,153.49 146.33,153.23 145.36,151.25 C144.89,150.29 144.27,130.15 144.00,106.50 L 143.50 63.50 L 138.50 60.92 C135.75,59.51 129.23,57.26 124.00,55.93 C115.85,53.86 112.16,53.52 98.00,53.53 C92.58,53.53 88.25,53.63 84.79,53.87 C97.46,52.64 119.43,51.78 121.03,52.79 C121.98,53.38 124.47,54.18 126.56,54.58 C133.35,55.85 142.82,60.75 144.40,63.81 C145.59,66.12 145.90,73.66 146.07,105.07 C146.18,126.20 146.23,144.77 146.17,146.32 C146.05,149.79 150.00,151.79 156.50,151.65 ZM 74.17 70.09 C75.81,71.19 78.29,71.35 82.66,70.90 C78.35,71.42 75.85,71.26 74.17,70.09 ZM 77.95 54.74 C77.21,54.90 76.54,55.09 75.94,55.29 C76.21,55.18 76.48,55.09 76.74,55.01 C77.06,54.92 77.46,54.83 77.95,54.74 Z" fill="rgb(38,148,188)"/>
<path d="M 0.00 112.50 L 0.00 0.00 L 112.50 0.00 L 225.00 0.00 L 225.00 112.50 L 225.00 225.00 L 112.50 225.00 L 0.00 225.00 L 0.00 112.50 ZM 137.15 216.15 C167.69,208.45 192.23,189.47 206.56,162.45 C217.85,141.18 221.61,116.60 217.03,94.16 C211.78,68.50 199.02,46.95 180.05,31.75 C171.63,25.00 153.86,15.00 150.29,15.00 C149.25,15.00 147.95,14.55 147.40,14.00 C146.85,13.45 142.15,12.02 136.95,10.83 C123.95,7.85 102.29,7.84 90.00,10.82 C69.52,15.77 54.96,24.04 39.50,39.50 C23.83,55.17 15.79,69.43 10.86,90.32 C7.74,103.53 7.76,122.81 10.91,136.50 C12.18,142.00 13.62,146.93 14.11,147.45 C14.60,147.97 15.00,149.01 15.00,149.75 C15.00,152.06 22.95,167.18 27.56,173.63 C38.60,189.10 51.27,199.67 69.46,208.58 C85.29,216.34 98.72,219.19 116.50,218.54 C124.52,218.25 132.43,217.34 137.15,216.15 ZM 81.95 172.64 C68.49,169.01 61.11,159.33 60.25,144.20 C59.26,126.86 63.82,117.35 76.08,111.19 C83.56,107.44 89.97,106.31 110.00,105.23 L 123.50 104.50 L 123.78 89.29 L 124.05 74.08 L 120.87 72.43 C115.18,69.49 99.97,68.46 88.00,70.21 C75.29,72.07 73.30,71.48 71.23,65.22 C69.97,61.42 69.99,60.66 71.40,58.51 C73.95,54.62 79.74,53.54 98.00,53.53 C112.16,53.52 115.85,53.86 124.00,55.93 C129.23,57.26 135.75,59.51 138.50,60.92 L 143.50 63.50 L 144.00 106.50 C144.27,130.15 144.89,150.29 145.36,151.25 C146.33,153.23 149.71,153.49 155.14,151.98 C162.16,150.03 165.63,153.04 166.69,162.01 C167.21,166.39 167.00,167.18 164.89,168.91 C160.76,172.28 152.52,174.31 145.08,173.77 C137.62,173.24 134.17,171.56 129.27,166.10 L 126.04 162.50 L 122.77 164.40 C120.97,165.45 117.70,167.34 115.49,168.60 C106.81,173.58 92.03,175.36 81.95,172.64 ZM 112.00 155.00 C115.20,153.92 119.43,152.09 121.41,150.92 L 125.00 148.80 L 125.00 133.86 L 125.00 118.91 L 110.75 119.54 C87.94,120.55 81.97,123.32 80.43,133.61 C78.94,143.57 81.40,152.52 86.39,155.23 C92.21,158.38 102.22,158.29 112.00,155.00 Z" fill="rgb(249,253,253)"/>
</g>
</svg>