<?xml version="1.0" encoding="UTF-8"?>
<svg version="1.1" xmlns="http://www.w3.org/2000/svg" width="225" height="225">
<path d="M0 0 C74.25 0 148.5 0 225 0 C225 74.25 225 148.5 225 225 C150.75 225 76.5 225 0 225 C0 150.75 0 76.5 0 0 Z " fill="#FDFDFD" transform="translate(0,0)"/>
<path d="M0 0 C7.72089557 7.25918088 11.17689894 14.17389886 12.8515625 24.5859375 C14.00206218 31.05588233 15.71552479 34.07262763 20.34375 38.58984375 C27.04312496 46.01637507 31.31611764 56.37842882 33.5390625 66.0234375 C33.70744629 66.61342529 33.87583008 67.20341309 34.04931641 67.8112793 C37.14658689 81.80149256 35.25573053 97.38500041 29.94921875 110.51171875 C28.77807718 113.42821811 27.87066394 115.90975621 27.5390625 119.0234375 C28.80416004 121.43900427 28.80416004 121.43900427 30.5390625 124.0234375 C33.59436142 130.50395942 34.57270313 135.75930921 32.3515625 142.7734375 C30.33014222 146.39805318 29.23097459 147.28637212 25.5390625 149.0234375 C22.42578125 149.31640625 22.42578125 149.31640625 19.2265625 149.2109375 C17.62361328 149.17033203 17.62361328 149.17033203 15.98828125 149.12890625 C15.18003906 149.09410156 14.37179688 149.05929688 13.5390625 149.0234375 C13.2090625 148.3634375 12.8790625 147.7034375 12.5390625 147.0234375 C9.5690625 147.3534375 6.5990625 147.6834375 3.5390625 148.0234375 C3.2090625 149.0134375 2.8790625 150.0034375 2.5390625 151.0234375 C1.5490625 151.0234375 0.5590625 151.0234375 -0.4609375 151.0234375 C-0.244375 152.11011719 -0.244375 152.11011719 -0.0234375 153.21875 C1.98474495 163.6780336 1.98474495 163.6780336 1.5390625 168.0234375 C-0.599486 170.161986 -1.59369064 170.44998813 -4.4609375 171.0234375 C-4.6465625 172.1371875 -4.8321875 173.2509375 -5.0234375 174.3984375 C-5.4978125 175.5946875 -5.9721875 176.7909375 -6.4609375 178.0234375 C-12.4708867 180.56169942 -18.58461578 180.32268279 -25.0234375 180.2734375 C-26.03857422 180.28117188 -27.05371094 180.28890625 -28.09960938 180.296875 C-37.89054386 180.2712945 -37.89054386 180.2712945 -42.4609375 178.0234375 C-43.80690053 175.58076386 -44.63319866 173.63475646 -45.4609375 171.0234375 C-45.739375 170.25773438 -46.0178125 169.49203125 -46.3046875 168.703125 C-47.67702962 164.85294293 -48.4609375 162.18244868 -48.4609375 158.0234375 C-49.75128906 158.10207031 -51.04164062 158.18070313 -52.37109375 158.26171875 C-57.86843028 158.25848819 -61.99412638 156.54262913 -66.8984375 154.2109375 C-67.69958984 153.85451172 -68.50074219 153.49808594 -69.32617188 153.13085938 C-75.18164774 150.44237214 -75.18164774 150.44237214 -77.4609375 147.0234375 C-77.6307069 145.06969788 -77.72699052 143.10898916 -77.7734375 141.1484375 C-78.06912409 136.31939411 -78.06912409 136.31939411 -80.5859375 132.2734375 C-82.0090625 131.1596875 -82.0090625 131.1596875 -83.4609375 130.0234375 C-96.04185428 117.95174831 -101.32001662 100.73433633 -101.75390625 83.68286133 C-101.93242035 63.37465103 -94.83346352 46.62566103 -80.68359375 32.21875 C-79.95011719 31.49429688 -79.21664062 30.76984375 -78.4609375 30.0234375 C-76.97975504 28.54225504 -77.10109501 27.01496252 -76.7734375 24.9609375 C-75.79780585 20.33952441 -73.93262591 17.46613926 -70.953125 13.859375 C-69.28578855 11.9095973 -69.28578855 11.9095973 -67.7109375 8.9609375 C-60.65987089 -0.24462168 -47.12356185 -6.69790286 -35.83984375 -8.734375 C-22.57863964 -10.08444832 -10.64306399 -8.5482387 0 0 Z " fill="#282324" transform="translate(145.4609375,8.9765625)"/>
<path d="M0 0 C3.60547326 3.09040565 6.61771917 6.58432041 9.625 10.25 C5.875 12.25 5.875 12.25 3.625 12.25 C3.625 13.24 3.625 14.23 3.625 15.25 C5.2028125 15.0953125 5.2028125 15.0953125 6.8125 14.9375 C10.625 15.25 10.625 15.25 13.5 17.625 C17.79682949 22.9328482 16.80889698 28.2009621 16.8125 34.8125 C16.82474609 35.96814453 16.83699219 37.12378906 16.84960938 38.31445312 C16.87416527 52.72876342 13.73284213 65.505109 3.625 76.25 C-2.64635776 81.83968844 -9.11574506 83.88437207 -17.5078125 83.6796875 C-27.21415063 82.22505917 -33.48061529 74.45424797 -39.375 67.25 C-37.95897787 70.39906415 -36.23764918 72.74523672 -33.9375 75.3125 C-33.34066406 75.98410156 -32.74382812 76.65570313 -32.12890625 77.34765625 C-30.58203058 79.0254479 -29.00328434 80.65159243 -27.375 82.25 C-33.89857605 84.92633889 -39.5203446 85.29670698 -46.125 82.875 C-51.88836439 79.09070273 -54.11853433 71.8033574 -55.875 65.4375 C-56.51809729 62.14016481 -56.44401748 61.40372076 -55 58.1875 C-54.195625 57.2284375 -54.195625 57.2284375 -53.375 56.25 C-53.890625 56.600625 -54.40625 56.95125 -54.9375 57.3125 C-58.51051594 58.6867369 -60.71960235 58.29439933 -64.375 57.25 C-67.68880446 53.6745794 -69.21853401 50.0271296 -69.59765625 45.21875 C-69.15172361 41.27576663 -67.39773219 39.76894349 -64.375 37.25 C-60.75 36.5625 -60.75 36.5625 -57.375 37.25 C-54.99335808 40.09260487 -54.375 41.53405267 -54.375 45.25 C-51.405 44.755 -51.405 44.755 -48.375 44.25 C-48.705 43.095 -49.035 41.94 -49.375 40.75 C-50.69659089 35.47300942 -51.12225288 30.49175865 -49.375 25.25 C-49.2731131 22.81320502 -49.19252097 20.37548926 -49.125 17.9375 C-48.61541624 8.69938066 -48.61541624 8.69938066 -45.15625 5.51171875 C-29.39329017 -5.65371113 -18.13175436 -9.40165041 0 0 Z " fill="#EDD3B5" transform="translate(139.375,9.75)"/>
<path d="M0 0 C0.44730469 0.38671875 0.89460938 0.7734375 1.35546875 1.171875 C1.96003906 1.69265625 2.56460938 2.2134375 3.1875 2.75 C3.82300781 3.30171875 4.45851563 3.8534375 5.11328125 4.421875 C7.11119838 6.14038988 7.11119838 6.14038988 9.875 8 C12.57797676 10.54397813 12.75235608 12.36788913 13 16 C13.66 16 14.32 16 15 16 C14.12815255 20.43849612 13.1195638 24.72968363 11.68359375 29.01953125 C11.44922607 29.7259375 11.2148584 30.43234375 10.97338867 31.16015625 C10.49536313 32.58245568 10.00482604 34.00061785 9.5012207 35.4140625 C8.1301564 39.42047765 8.1301564 39.42047765 8.859375 43.48046875 C9.42398438 44.23263672 9.42398438 44.23263672 10 45 C10.845625 44.855625 11.69125 44.71125 12.5625 44.5625 C16.03593149 43.9941203 19.51445662 43.48797607 23 43 C27.87680537 49.9219173 28.94969349 55.55542816 28 64 C25.81381363 67.16620095 24.63108389 67.7896387 21 69 C18.66700175 69.03954234 16.33291811 69.04401732 14 69 C14 68.34 14 67.68 14 67 C9.71 67 5.42 67 1 67 C0.01 62.545 0.01 62.545 -1 58 C-3.27368142 59.83255296 -3.27368142 59.83255296 -3.16015625 62.56640625 C-3.12792969 63.55511719 -3.09570312 64.54382813 -3.0625 65.5625 C-3.00831064 67.37430953 -2.97963477 69.18749468 -3 71 C-3.33 71.33 -3.66 71.66 -4 72 C-3.909084 74.70108504 -3.76259234 77.36930311 -3.5625 80.0625 C-3.51029297 80.82111328 -3.45808594 81.57972656 -3.40429688 82.36132812 C-3.27424165 84.24121722 -3.13771962 86.12065685 -3 88 C-4.485 88.495 -4.485 88.495 -6 89 C-6.03738281 89.69867188 -6.07476562 90.39734375 -6.11328125 91.1171875 C-6.17902344 92.02726562 -6.24476563 92.93734375 -6.3125 93.875 C-6.37050781 94.77992188 -6.42851562 95.68484375 -6.48828125 96.6171875 C-7 99 -7 99 -10 101 C-15.4175772 102.41320777 -20.87718596 102.18401391 -26.4375 102.1875 C-27.97374023 102.20586914 -27.97374023 102.20586914 -29.54101562 102.22460938 C-39.46765073 102.24388439 -39.46765073 102.24388439 -44 100 C-45.34596303 97.55732636 -46.17226116 95.61131896 -47 93 C-47.2784375 92.23429687 -47.556875 91.46859375 -47.84375 90.6796875 C-49.21609212 86.82950543 -50 84.15901118 -50 80 C-51.2890625 80.08121094 -52.578125 80.16242188 -53.90625 80.24609375 C-59.44797581 80.24500799 -63.57763821 78.44625964 -68.5 76.0625 C-69.71429688 75.50272461 -69.71429688 75.50272461 -70.953125 74.93164062 C-76.78257457 72.21742543 -76.78257457 72.21742543 -78 71 C-78.07226502 69.14712498 -78.0838122 67.29166122 -78.0625 65.4375 C-78.05347656 64.42558594 -78.04445313 63.41367188 -78.03515625 62.37109375 C-78.02355469 61.58863281 -78.01195313 60.80617187 -78 60 C-77.01 60.33 -76.02 60.66 -75 61 C-74.96777344 61.91265625 -74.93554688 62.8253125 -74.90234375 63.765625 C-74.29663034 67.22829812 -74.29663034 67.22829812 -71.19140625 69.046875 C-69.99438287 69.64071473 -68.78360823 70.20740874 -67.5625 70.75 C-66.93520996 71.04656494 -66.30791992 71.34312988 -65.66162109 71.64868164 C-60.5905569 73.95412212 -55.54885992 75.37351582 -50 76 C-50.185625 74.700625 -50.37125 73.40125 -50.5625 72.0625 C-50.87890625 69.84765625 -50.87890625 69.84765625 -51 68 C-50.67 67.67 -50.34 67.34 -50 67 C-50.66 66.34 -51.32 65.68 -52 65 C-53.26772861 60.68972272 -53.07544524 56.45126889 -53 52 C-55.97 52 -58.94 52 -62 52 C-61.67 51.34 -61.34 50.68 -61 50 C-60.01 50 -59.02 50 -58 50 C-58.495 47.525 -58.495 47.525 -59 45 C-57.35 45.33 -55.7 45.66 -54 46 C-53.67 40.72 -53.34 35.44 -53 30 C-52.67 30 -52.34 30 -52 30 C-52 35.94 -52 41.88 -52 48 C-48.29139905 47.69044903 -44.58314143 47.37746864 -40.875 47.0625 C-39.30492188 46.93198242 -39.30492188 46.93198242 -37.703125 46.79882812 C-32.76042438 46.37650877 -27.87811856 45.93680132 -23 45 C-23.85464844 44.61328125 -24.70929688 44.2265625 -25.58984375 43.828125 C-27.24693359 43.04695313 -27.24693359 43.04695313 -28.9375 42.25 C-30.59072266 41.48429687 -30.59072266 41.48429687 -32.27734375 40.703125 C-35 39 -35 39 -35.94140625 36.9296875 C-36.01564593 34.4847275 -35.13587576 33.12976706 -34 31 C-34.495 30.01 -34.495 30.01 -35 29 C-34.34 28.67 -33.68 28.34 -33 28 C-34.32 28 -35.64 28 -37 28 C-38.09506492 24.71480525 -38.09960608 22.26336585 -38.0625 18.8125 C-38.05347656 17.72582031 -38.04445312 16.63914062 -38.03515625 15.51953125 C-38.02355469 14.68808594 -38.01195312 13.85664062 -38 13 C-34.7 13 -31.4 13 -28 13 C-27.505 14.98 -27.505 14.98 -27 17 C-25.34795544 17.70211894 -23.68076231 18.36971413 -22 19 C-21.505 20.485 -21.505 20.485 -21 22 C-21 20.68 -21 19.36 -21 18 C-21.66 18 -22.32 18 -23 18 C-23 17.34 -23 16.68 -23 16 C-22.34 16 -21.68 16 -21 16 C-20.67 15.34 -20.34 14.68 -20 14 C-19.505 16.475 -19.505 16.475 -19 19 C-17.35 19.33 -15.7 19.66 -14 20 C-17 22 -17 22 -20 23 C-18.443154 27.01303508 -16.68861143 30.9092928 -14.875 34.8125 C-14.33617187 35.97394531 -13.79734375 37.13539062 -13.2421875 38.33203125 C-12.83226562 39.21246094 -12.42234375 40.09289062 -12 41 C-11.67 41 -11.34 41 -11 41 C-10.34 35.39 -9.68 29.78 -9 24 C-10.32 23.34 -11.64 22.68 -13 22 C-12.34 21.34 -11.68 20.68 -11 20 C-8.6875 20.20703125 -8.6875 20.20703125 -6 20.8125 C-5.113125 21.00457031 -4.22625 21.19664063 -3.3125 21.39453125 C-1 22 -1 22 1 23 C1.13526616 20.4149133 1.23417653 17.83691248 1.3125 15.25 C1.35439453 14.52039063 1.39628906 13.79078125 1.43945312 13.0390625 C1.54773084 10.59264706 1.54773084 10.59264706 1 7 C-1.35127774 4.44867966 -1.35127774 4.44867966 -4 3 C-2.68 2.01 -1.36 1.02 0 0 Z " fill="#252223" transform="translate(147,87)"/>
<path d="M0 0 C1.12633954 1.15946718 2.24834058 2.32401288 3.33203125 3.5234375 C7.00255449 6.77275316 11.65594812 8.78613118 16 11 C16 10.01 16 9.02 16 8 C15.071875 7.87625 14.14375 7.7525 13.1875 7.625 C10 7 10 7 7 5 C7 4.34 7 3.68 7 3 C8.98567708 3.06510417 10.97135417 3.13020833 12.95703125 3.1953125 C15.31359719 3.13254462 15.31359719 3.13254462 18 1 C20.33199388 0.92094936 22.66832622 0.91201231 25 1 C24.34 1.33 23.68 1.66 23 2 C23 2.66 23 3.32 23 4 C24.19625 4.268125 25.3925 4.53625 26.625 4.8125 C30.37855376 5.74087006 33.60088806 7.13048843 37 9 C36.2236068 5.9254644 36.2236068 5.9254644 34 4 C38.29 3.67 42.58 3.34 47 3 C47 3.99 47 4.98 47 6 C47.721875 5.505 48.44375 5.01 49.1875 4.5 C52.14848659 2.92080715 53.71253029 2.71821688 57 3 C57.495 4.485 57.495 4.485 58 6 C56.02 6.33 54.04 6.66 52 7 C51.67 8.65 51.34 10.3 51 12 C50.01 12 49.02 12 48 12 C47.67 13.65 47.34 15.3 47 17 C47.99 17.66 48.98 18.32 50 19 C50.95241664 25.17534659 50.07437579 31.1658181 48 37 C44.75737007 34.27779216 43.10240475 30.72005562 41.25 27 C40.92128906 26.3709375 40.59257812 25.741875 40.25390625 25.09375 C39.42074868 23.43446573 38.70236823 21.71873637 38 20 C38.495 18.515 38.495 18.515 39 17 C39.99 16.67 40.98 16.34 42 16 C41.01 15.34 40.02 14.68 39 14 C38.505 12.515 38.505 12.515 38 11 C37.34 11 36.68 11 36 11 C36 11.66 36 12.32 36 13 C36.66 13 37.32 13 38 13 C38 14.32 38 15.64 38 17 C37.34 16.67 36.68 16.34 36 16 C36.33 15.34 36.66 14.68 37 14 C35.02 13.67 33.04 13.34 31 13 C31 11.68 31 10.36 31 9 C27.7 8.67 24.4 8.34 21 8 C21.495 15.425 21.495 15.425 22 23 C24.31 22.67 26.62 22.34 29 22 C28.34 22.4125 27.68 22.825 27 23.25 C26.34 23.8275 25.68 24.405 25 25 C25 26.32 25 27.64 25 29 C24.67 30.32 24.34 31.64 24 33 C28.62 35.31 33.24 37.62 38 40 C38 40.33 38 40.66 38 41 C34.52147832 41.34029508 31.04210091 41.6709387 27.5625 42 C26.58861328 42.09539062 25.61472656 42.19078125 24.61132812 42.2890625 C18.70951151 42.84174098 12.92744322 43.09807559 7 43 C6.67 42.34 6.34 41.68 6 41 C4.515 41.495 4.515 41.495 3 42 C2.34 42 1.68 42 1 42 C1 42.99 1 43.98 1 45 C-0.485 45.495 -0.485 45.495 -2 46 C0.64 46.33 3.28 46.66 6 47 C6.66 51.29 7.32 55.58 8 60 C8.66 59.67 9.32 59.34 10 59 C10 60.32 10 61.64 10 63 C9.34 63 8.68 63 8 63 C8.495 66.96 8.495 66.96 9 71 C-0.70956642 71.36553662 -7.90486776 66.73835074 -16 62 C-16 60.02 -16 58.04 -16 56 C-16.66 56 -17.32 56 -18 56 C-18.33 58.64 -18.66 61.28 -19 64 C-19.33 64 -19.66 64 -20 64 C-20 60.7 -20 57.4 -20 54 C-18.515 53.505 -18.515 53.505 -17 53 C-18.3881521 39.26460024 -20.65827565 25.82013845 -26 13 C-6.57748594 -2.08449062 -6.57748594 -2.08449062 0 0 Z " fill="#334F60" transform="translate(88,92)"/>
<path d="M0 0 C0.28900979 4.78288147 0.5736514 9.56599713 0.85449219 14.34936523 C0.95033806 15.97182997 1.04731493 17.59422835 1.14550781 19.21655273 C1.68551525 28.15147169 2.17821451 37.04348333 2 46 C-2.7024011 47.56746703 -7.45034843 47.18447503 -12.375 47.1875 C-13.93734375 47.20586914 -13.93734375 47.20586914 -15.53125 47.22460938 C-17.04332031 47.22750977 -17.04332031 47.22750977 -18.5859375 47.23046875 C-19.96338135 47.23663208 -19.96338135 47.23663208 -21.36865234 47.24291992 C-24.29796901 46.97249219 -26.39207856 46.35859084 -29 45 C-31.56783602 40.23371505 -32.86725325 35.25761916 -34.0625 30 C-34.23168945 29.26813477 -34.40087891 28.53626953 -34.57519531 27.78222656 C-36.50854615 19.13616241 -38.4539165 9.8837943 -38 1 C-31.61273558 -5.38726442 -7.21454681 -2.55429327 0 0 Z " fill="#FCFCFC" transform="translate(134,138)"/>
<path d="M0 0 C-0.52268466 2.76276177 -1.10869587 5.3260876 -2 8 C-2.67405715 13.60240946 -2.14093214 18.26220957 0.58984375 23.234375 C2.67391988 25.84379996 5.27631295 27.06598968 8.1640625 28.66015625 C12.86893036 32.09370875 13.15351882 38.63895255 14 44 C12.865625 44.66386719 11.73125 45.32773438 10.5625 46.01171875 C9.04163159 46.90358603 7.52080024 47.7955165 6 48.6875 C5.25621094 49.12255859 4.51242188 49.55761719 3.74609375 50.00585938 C-1.22240254 52.92215068 -6.13141684 55.9198252 -11 59 C-10.47138772 64.8940269 -9.20588678 69.77690355 -7 75.25 C-4.23319748 82.27141393 -2.87470409 87.48224555 -3 95 C-14.42953161 84.60951672 -21.20823435 70.34827501 -22.12109375 54.95849609 C-23.02243667 34.39435735 -17.17490067 17.59047467 -3.8828125 1.84375 C-2 0 -2 0 0 0 Z " fill="#D13732" transform="translate(70,43)"/>
<path d="M0 0 C12.43904096 12.10285067 17.7731044 27.52376737 18.375 44.6875 C18.16951011 56.41326706 15.22268419 70.52952394 8 80 C5.13235719 81.65072563 3.41406429 81.72904252 0 82 C-1.67004829 82.31595508 -3.33767697 82.64563998 -5 83 C-3.68540363 77.95537003 -2.32896397 72.93743663 -0.6875 67.98828125 C-0.4608667 67.29734375 -0.2342334 66.60640625 -0.00073242 65.89453125 C0.44756054 64.53836154 0.90528272 63.18526097 1.3737793 61.8359375 C2.95296092 57.03010043 3.68455475 53.05753136 3 48 C1.30362153 45.66914502 -0.77182724 44.04010236 -3.0625 42.3125 C-5.25707288 40.62455438 -7.05644518 39.00964169 -9 37 C-9.14143105 34.27631166 -8.38740783 32.71068503 -7.09887695 30.34692383 C-3.78346567 24.24659878 -2.74760531 18.33604952 -1.75 11.5 C-1.57726562 10.39140625 -1.40453125 9.2828125 -1.2265625 8.140625 C-0.80574318 5.4286783 -0.39723216 2.71548415 0 0 Z " fill="#CF3732" transform="translate(159,47)"/>
<path d="M0 0 C0.66 0 1.32 0 2 0 C2.02705729 1.77074917 2.04642195 3.54161711 2.0625 5.3125 C2.07410156 6.29863281 2.08570313 7.28476562 2.09765625 8.30078125 C2 11 2 11 1 14 C0.81482359 19.46270396 1.22766499 24.5936549 2 30 C-0.97 30.495 -0.97 30.495 -4 31 C-4.99 28.69 -5.98 26.38 -7 24 C-12.15775211 23.48611599 -12.15775211 23.48611599 -16.5 26 C-18.52285405 30.0457081 -18.18389568 32.72242072 -17 37 C-16.06150487 39.98341617 -16.06150487 39.98341617 -14 42 C-10.0754778 42.99896929 -6.85103158 43.38637137 -3 42 C-4 46 -4 46 -4.671875 47.734375 C-5.15687794 51.08320483 -4.03483432 53.37426533 -2.8125 56.5 C-2.17248047 58.18609375 -2.17248047 58.18609375 -1.51953125 59.90625 C0.66285471 64.34956537 3.37929236 67.20305814 8 69 C10.65533053 69.7353223 13.31538757 70.37359043 16 71 C16 71.33 16 71.66 16 72 C8.25 72.125 8.25 72.125 6 71 C8.06756277 73.7972908 9.14440371 74.02692273 12.6875 74.6875 C13.780625 74.790625 14.87375 74.89375 16 75 C16 76.65 16 78.3 16 80 C13.74191662 78.95246667 11.49468589 77.88807866 9.25 76.8125 C8.61578125 76.52052734 7.9815625 76.22855469 7.328125 75.92773438 C3.16652359 73.91195869 0.67264017 71.90772389 -2 68 C-7.38864239 68.48613135 -10.75226567 70.37383445 -15.125 73.3125 C-15.73214844 73.70373047 -16.33929688 74.09496094 -16.96484375 74.49804688 C-20.33950389 76.7147354 -23.26599453 79.02795922 -26 82 C-25.51080078 83.16402344 -25.51080078 83.16402344 -25.01171875 84.3515625 C-20.11014868 96.46812805 -17.35157373 107.88737979 -18 121 C-19.485 121.495 -19.485 121.495 -21 122 C-23.36595919 119.36076893 -25.69254557 116.69052791 -28 114 C-28.598125 113.30261719 -29.19625 112.60523438 -29.8125 111.88671875 C-42.88207429 95.92900193 -46.50270387 77.1250369 -45 57 C-42.85190444 40.58995854 -34.10891982 25.99388197 -22 15 C-21.01 14.67 -20.02 14.34 -19 14 C-17.78130071 11.49552484 -17.78130071 11.49552484 -17 9 C-16.67 9 -16.34 9 -16 9 C-16 12.96 -16 16.92 -16 21 C-15.34 21 -14.68 21 -14 21 C-14 20.34 -14 19.68 -14 19 C-11.08181329 18.65259682 -8.86234943 18.49890506 -6.265625 20.0078125 C-4.625 21.3125 -4.625 21.3125 -2 24 C-2 24.99 -2 25.98 -2 27 C-1.34 27 -0.68 27 0 27 C-0.16242188 26.46632813 -0.32484375 25.93265625 -0.4921875 25.3828125 C-2.22632115 17.24572384 -1.03521397 8.18928194 0 0 Z M-22.8828125 20.84375 C-36.53573907 37.01794873 -42.70528522 54.83808483 -41 76 C-40.34687777 80.47246744 -39.34730478 84.6886247 -38 89 C-37.74476562 89.845625 -37.48953125 90.69125 -37.2265625 91.5625 C-34.46162769 99.47680883 -29.0628906 109.29140626 -22 114 C-21.66549876 107.62266123 -22.72031374 102.79050166 -24.875 96.8125 C-25.14441406 96.03197266 -25.41382813 95.25144531 -25.69140625 94.44726562 C-26.77327955 91.3362202 -27.87710188 88.28154112 -29.1953125 85.26171875 C-30.16865366 82.52596861 -30.43641095 80.88748614 -30 78 C-27.70507813 76.05541992 -27.70507813 76.05541992 -24.53125 74.23046875 C-23.40332031 73.56982422 -22.27539062 72.90917969 -21.11328125 72.22851562 C-19.90908178 71.54777429 -18.70465159 70.86744093 -17.5 70.1875 C-16.2945863 69.48933086 -15.090145 68.78947994 -13.88671875 68.08789062 C-10.93364741 66.37510925 -7.97166176 64.68025343 -5 63 C-5.99750221 54.36860072 -5.99750221 54.36860072 -10.8359375 47.66015625 C-11.87621094 47.08587891 -11.87621094 47.08587891 -12.9375 46.5 C-16.851687 44.33746574 -18.6280696 42.29093444 -20.3828125 38.18359375 C-22.00006271 32.46180345 -21.52236262 27.36002058 -19 22 C-19 21.01 -19 20.02 -19 19 C-21.20104388 18.76678123 -21.20104388 18.76678123 -22.8828125 20.84375 Z " fill="#221F20" transform="translate(89,24)"/>
<path d="M0 0 C2.97 0 5.94 0 9 0 C9 5.28 9 10.56 9 16 C10.65 15.01 12.3 14.02 14 13 C14.37511719 13.71027344 14.75023437 14.42054688 15.13671875 15.15234375 C15.64847656 16.07144531 16.16023438 16.99054688 16.6875 17.9375 C17.18636719 18.85402344 17.68523437 19.77054688 18.19921875 20.71484375 C19.82742443 23.23011783 19.82742443 23.23011783 22.70703125 23.81640625 C23.46371094 23.87699219 24.22039062 23.93757813 25 24 C24.85930804 21.87465341 24.71229079 19.74972471 24.5625 17.625 C24.48128906 16.44164062 24.40007812 15.25828125 24.31640625 14.0390625 C24.18915064 11.08481099 24.18915064 11.08481099 23 9 C25.64 9 28.28 9 31 9 C31 13.95 31 18.9 31 24 C32.98 24 34.96 24 37 24 C36.85930804 21.87465341 36.71229079 19.74972471 36.5625 17.625 C36.48128906 16.44164062 36.40007812 15.25828125 36.31640625 14.0390625 C36.18915064 11.08481099 36.18915064 11.08481099 35 9 C41 9 47 9 53 9 C54.72951578 12.45903157 54.40535763 16.43101162 54.62109375 20.25 C54.73719166 23.13984008 54.73719166 23.13984008 57 25 C53.7 25 50.4 25 47 25 C47.99 24.505 47.99 24.505 49 24 C48.505 18.06 48.505 18.06 48 12 C46.35 12 44.7 12 43 12 C43 15.96 43 19.92 43 24 C43.66 24 44.32 24 45 24 C45 24.66 45 25.32 45 26 C22.56 26 0.12 26 -23 26 C-23 25.34 -23 24.68 -23 24 C-22.01 24 -21.02 24 -20 24 C-20.11376617 21.87436897 -20.24135631 19.7494739 -20.375 17.625 C-20.44460937 16.44164062 -20.51421875 15.25828125 -20.5859375 14.0390625 C-20.70217346 10.89437681 -20.70217346 10.89437681 -23 9 C-20.36 9 -17.72 9 -15 9 C-15 9.66 -15 10.32 -15 11 C-14.01 10.34 -13.02 9.68 -12 9 C-8.4375 8.75 -8.4375 8.75 -5 9 C-3 11 -3 11 -2.8046875 14.0390625 C-2.82789062 15.22242188 -2.85109375 16.40578125 -2.875 17.625 C-2.89304687 18.81351563 -2.91109375 20.00203125 -2.9296875 21.2265625 C-2.95289062 22.14179688 -2.97609375 23.05703125 -3 24 C-1.02 24 0.96 24 3 24 C2.89045592 20.37435813 2.7597504 16.74978569 2.625 13.125 C2.5940625 12.09246094 2.563125 11.05992187 2.53125 9.99609375 C2.49257812 9.00996094 2.45390625 8.02382812 2.4140625 7.0078125 C2.36693115 5.64100342 2.36693115 5.64100342 2.31884766 4.24658203 C2.20117489 1.80068814 2.20117489 1.80068814 0 0 Z " fill="#E5E5E5" transform="translate(107,199)"/>
<path d="M0 0 C0.33 0 0.66 0 1 0 C1.39330878 11.47878962 1.26936327 22.07453605 -4.25 32.5 C-6.15786167 35.63454425 -6.15786167 35.63454425 -5.95703125 37.921875 C-4.51348629 41.05642976 -2.10908417 42.60727349 0.5625 44.75 C5.73073111 49.09954168 5.73073111 49.09954168 6.7265625 52.4296875 C6.6875 54.625 6.6875 54.625 6 58 C4.02 58.495 4.02 58.495 2 59 C2.04125 58.030625 2.0825 57.06125 2.125 56.0625 C1.37107608 50.03110868 -4.56510394 46.54952661 -9 43 C-10.32 43.66 -11.64 44.32 -13 45 C-12.18144531 45.47953125 -11.36289063 45.9590625 -10.51953125 46.453125 C-7.81170677 49.19033673 -7.63607937 49.5181612 -7.51171875 53.109375 C-7.54478779 54.65700607 -7.60418893 56.20425916 -7.6875 57.75 C-7.71005859 58.54277344 -7.73261719 59.33554688 -7.75585938 60.15234375 C-7.81459529 62.1023762 -7.90427346 64.05143312 -8 66 C-12.29 65.01 -16.58 64.02 -21 63 C-21 61.68 -21 60.36 -21 59 C-20.01 58.34 -19.02 57.68 -18 57 C-17.27617533 54.94074861 -17.27617533 54.94074861 -17 53 C-15.02 53 -13.04 53 -11 53 C-11.33 52.34 -11.66 51.68 -12 51 C-15.46941546 51.45822468 -18.67395049 51.89131683 -22 53 C-22 52.01 -22 51.02 -22 50 C-25.63 50.66 -29.26 51.32 -33 52 C-32.67 53.32 -32.34 54.64 -32 56 C-36.72224516 54.46527032 -41.35855331 52.76054874 -46 51 C-46 50.34 -46 49.68 -46 49 C-46.99 48.34 -47.98 47.68 -49 47 C-47.515 46.505 -47.515 46.505 -46 46 C-46.79664062 45.32904297 -46.79664062 45.32904297 -47.609375 44.64453125 C-55.67309516 37.74328169 -55.67309516 37.74328169 -58 34 C-57.58984375 31.85546875 -57.58984375 31.85546875 -57 30 C-56.5875 30.58007812 -56.175 31.16015625 -55.75 31.7578125 C-50.94329649 38.25973733 -45.60236197 43.85370413 -38 47 C-28.85821765 48.23809966 -22.31677546 45.87785031 -14.8125 40.875 C-5.95069457 32.87475899 -2.82253788 20.85416464 -1.3125 9.5 C-1.18294922 8.5821875 -1.05339844 7.664375 -0.91992188 6.71875 C-0.605121 4.48016597 -0.29866447 2.24078382 0 0 Z " fill="#221E1F" transform="translate(157,45)"/>
<path d="M0 0 C1.32 0.33 2.64 0.66 4 1 C9.30356507 15.94835477 7.24942065 34.0532968 1.41015625 48.48828125 C0.23901468 51.40478061 -0.66839856 53.88631871 -1 57 C0.26509754 59.41556677 0.26509754 59.41556677 2 62 C5.05529892 68.48052192 6.03364063 73.73587171 3.8125 80.75 C1.79107972 84.37461568 0.69191209 85.26293462 -3 87 C-6.11328125 87.29296875 -6.11328125 87.29296875 -9.3125 87.1875 C-10.91544922 87.14689453 -10.91544922 87.14689453 -12.55078125 87.10546875 C-13.35902344 87.07066406 -14.16726562 87.03585938 -15 87 C-15.495 86.01 -15.495 86.01 -16 85 C-20.455 85.495 -20.455 85.495 -25 86 C-25.33 86.99 -25.66 87.98 -26 89 C-26.99 89 -27.98 89 -29 89 C-28.855625 89.72445312 -28.71125 90.44890625 -28.5625 91.1953125 C-26.55431755 101.6545961 -26.55431755 101.6545961 -27 106 C-27.99 106.99 -27.99 106.99 -29 108 C-30.32 108 -31.64 108 -33 108 C-33 107.01 -33 106.02 -33 105 C-32.01 104.505 -32.01 104.505 -31 104 C-31.12568359 102.31970703 -31.12568359 102.31970703 -31.25390625 100.60546875 C-31.35708445 99.13283444 -31.45993179 97.66017692 -31.5625 96.1875 C-31.61857422 95.44951172 -31.67464844 94.71152344 -31.73242188 93.95117188 C-31.95769724 90.63211484 -32.06255812 88.18767436 -31 85 C-31.02998529 83.51981719 -31.09530492 82.04011306 -31.1875 80.5625 C-31.25036809 77.05331729 -31.24900367 76.31903596 -29 73.4375 C-28.34 72.963125 -27.68 72.48875 -27 72 C-26.67 75.63 -26.34 79.26 -26 83 C-25.030625 82.835 -24.06125 82.67 -23.0625 82.5 C-18.70512237 81.86603727 -14.39369296 81.9103328 -10 82 C-11.485 82.495 -11.485 82.495 -13 83 C-13 83.66 -13 84.32 -13 85 C-11.3934324 84.74379316 -9.7897517 84.46944129 -8.1875 84.1875 C-7.29417969 84.03667969 -6.40085938 83.88585937 -5.48046875 83.73046875 C-2.71868793 82.91715692 -1.62260752 82.36784421 0 80 C1.12711364 73.15996725 -0.13019649 67.19877558 -3 61 C-3.495 60.505 -3.495 60.505 -4 60 C-6.34087842 60.27539746 -8.67402489 60.6186926 -11 61 C-12.134375 61.185625 -13.26875 61.37125 -14.4375 61.5625 C-15.283125 61.706875 -16.12875 61.85125 -17 62 C-17.66 61.01 -18.32 60.02 -19 59 C-13.52173913 56 -13.52173913 56 -9.9375 56 C-6.9220429 55.29791245 -6.9220429 55.29791245 -5.65234375 53.05859375 C2.80074369 35.71296173 3.18161904 18.69201184 0 0 Z " fill="#1F1D1E" transform="translate(174,71)"/>
<path d="M0 0 C-1.60836196 2.96277203 -3.13420004 5.13092686 -5.5625 7.5 C-7.97781863 9.97724988 -8.97543604 11.74002375 -10 15 C-10.66 15 -11.32 15 -12 15 C-12 23.91 -12 32.82 -12 42 C-12.66 42 -13.32 42 -14 42 C-15.0064275 40.33720673 -16.00585407 38.67016516 -17 37 C-20.18762365 34.87491756 -22.26512223 34.4979837 -26 34 C-26 34.66 -26 35.32 -26 36 C-26.66 36 -27.32 36 -28 36 C-28.33 32.7 -28.66 29.4 -29 26 C-29.99 26.99 -30.98 27.98 -32 29 C-32.46106127 23.23673414 -31.53286534 20.54225544 -28 16 C-27.505 15.236875 -27.01 14.47375 -26.5 13.6875 C-25 12 -25 12 -23.125 11.5625 C-20.76062701 11.12712109 -20.76062701 11.12712109 -18.8125 8.8125 C-13.90564339 3.90564339 -7.24546679 -2.24859314 0 0 Z " fill="#6B696A" transform="translate(101,9)"/>
<path d="M0 0 C4.82931906 5.90250108 5.3482985 11.02518778 5.2890625 18.4296875 C5 21 5 21 3.1875 23.625 C-0.89444302 26.19079275 -4.28265124 26.08900658 -9 26 C-9 25.34 -9 24.68 -9 24 C-7.35 23.67 -5.7 23.34 -4 23 C-7.63 22.67 -11.26 22.34 -15 22 C-15.66 16.72 -16.32 11.44 -17 6 C-12.43362686 2.57522014 -5.97134438 -1.4928361 0 0 Z " fill="#E3E3E3" transform="translate(170,130)"/>
<path d="M0 0 C0 0.99 0 1.98 0 3 C0.721875 2.505 1.44375 2.01 2.1875 1.5 C5.14848659 -0.07919285 6.71253029 -0.28178312 10 0 C10.495 1.485 10.495 1.485 11 3 C9.02 3.33 7.04 3.66 5 4 C4.67 5.65 4.34 7.3 4 9 C3.01 9 2.02 9 1 9 C0.67 10.65 0.34 12.3 0 14 C0.99 14.66 1.98 15.32 3 16 C3.95241664 22.17534659 3.07437579 28.1658181 1 34 C-2.24262993 31.27779216 -3.89759525 27.72005562 -5.75 24 C-6.07871094 23.3709375 -6.40742188 22.741875 -6.74609375 22.09375 C-7.57925132 20.43446573 -8.29763177 18.71873637 -9 17 C-8.67 16.01 -8.34 15.02 -8 14 C-7.01 13.67 -6.02 13.34 -5 13 C-5.99 12.34 -6.98 11.68 -8 11 C-8.33 10.01 -8.66 9.02 -9 8 C-9.66 8 -10.32 8 -11 8 C-11 8.66 -11 9.32 -11 10 C-10.34 10 -9.68 10 -9 10 C-9 11.32 -9 12.64 -9 14 C-9.66 13.67 -10.32 13.34 -11 13 C-10.67 12.34 -10.34 11.68 -10 11 C-12.97 10.505 -12.97 10.505 -16 10 C-16 8.68 -16 7.36 -16 6 C-19.3 5.67 -22.6 5.34 -26 5 C-25.67 9.95 -25.34 14.9 -25 20 C-27.85757549 17.14242451 -27.95512012 15.0071572 -28.1328125 11.01953125 C-28.13023438 9.96121094 -28.12765625 8.90289062 -28.125 7.8125 C-28.12757812 6.74644531 -28.13015625 5.68039063 -28.1328125 4.58203125 C-28 2 -28 2 -27 1 C-20.4626266 0.92847513 -15.6236347 2.83031499 -10 6 C-10.7763932 2.9254644 -10.7763932 2.9254644 -13 1 C-8.62426048 0.40667939 -4.42471556 -0.13827236 0 0 Z " fill="#281D1D" transform="translate(135,95)"/>
<path d="M0 0 C0.44730469 0.38671875 0.89460937 0.7734375 1.35546875 1.171875 C1.96003906 1.69265625 2.56460938 2.2134375 3.1875 2.75 C3.82300781 3.30042969 4.45851562 3.85085937 5.11328125 4.41796875 C6.64489089 5.7022377 8.25090395 6.89738762 9.875 8.0625 C12.47870239 10.43646394 12.61710593 11.54898071 13 15 C12.03247836 22.09878241 9.4119307 28.93023579 6.9375 35.625 C6.68025146 36.32407471 6.42300293 37.02314941 6.15795898 37.7434082 C5.04981605 40.6517911 4.22553412 42.77446588 2 45 C-0.3828125 45.4140625 -0.3828125 45.4140625 -3.125 45.625 C-4.03507813 45.69976562 -4.94515625 45.77453125 -5.8828125 45.8515625 C-6.58148438 45.90054688 -7.28015625 45.94953125 -8 46 C-6.08199354 40.5402779 -2.82121057 36.10538434 0.41796875 31.3515625 C2.3505543 27.25734423 1.89353342 25.37106889 1 21 C1.0781122 17.39512218 1.25031527 13.80690394 1.453125 10.20703125 C1.30709688 6.7979857 1.30709688 6.7979857 -1.515625 4.57421875 C-2.33546875 4.05472656 -3.1553125 3.53523438 -4 3 C-2.68 2.01 -1.36 1.02 0 0 Z " fill="#324E5F" transform="translate(147,87)"/>
<path d="M0 0 C1.3125 2.0625 1.3125 2.0625 2 4 C-0.55886504 5.32002556 -3.12167068 6.63113782 -5.6875 7.9375 C-6.40873047 8.31068359 -7.12996094 8.68386719 -7.87304688 9.06835938 C-8.57880859 9.42607422 -9.28457031 9.78378906 -10.01171875 10.15234375 C-10.65584717 10.48226318 -11.29997559 10.81218262 -11.96362305 11.15209961 C-14.2820931 12.11745706 -16.52970451 12.57796774 -19 13 C-18.85377197 13.68513672 -18.70754395 14.37027344 -18.55688477 15.07617188 C-17.88864236 18.21672563 -17.22553574 21.35834306 -16.5625 24.5 C-16.33240234 25.57765625 -16.10230469 26.6553125 -15.86523438 27.765625 C-14.00685861 36.59964311 -12.83569251 44.96262784 -12.9375 54 C-12.94201172 54.77472656 -12.94652344 55.54945313 -12.95117188 56.34765625 C-12.96280242 58.23180524 -12.98073094 60.11591365 -13 62 C-13.99 62 -14.98 62 -16 62 C-16 60.02 -16 58.04 -16 56 C-16.66 56 -17.32 56 -18 56 C-18.33 58.64 -18.66 61.28 -19 64 C-19.33 64 -19.66 64 -20 64 C-20 60.7 -20 57.4 -20 54 C-18.515 53.505 -18.515 53.505 -17 53 C-18.3881521 39.26460024 -20.65827565 25.82013845 -26 13 C-6.29639471 -2.30280004 -6.29639471 -2.30280004 0 0 Z " fill="#476F87" transform="translate(88,92)"/>
<path d="M0 0 C0.99 0.33 1.98 0.66 3 1 C3.03222656 1.91265625 3.06445312 2.8253125 3.09765625 3.765625 C3.70336966 7.22829812 3.70336966 7.22829812 6.80859375 9.046875 C8.00561713 9.64071473 9.21639177 10.20740874 10.4375 10.75 C11.06479004 11.04656494 11.69208008 11.34312988 12.33837891 11.64868164 C17.4094431 13.95412212 22.45114008 15.37351582 28 16 C27.67 13.36 27.34 10.72 27 8 C27.66 8 28.32 8 29 8 C29.13575439 8.59949463 29.27150879 9.19898926 29.41137695 9.81665039 C30.03824906 12.56687601 30.67529132 15.3146517 31.3125 18.0625 C31.52583984 19.00544922 31.73917969 19.94839844 31.95898438 20.91992188 C33.75408689 28.73030659 33.75408689 28.73030659 37 36 C39.29692155 37.23189202 39.29692155 37.23189202 42 37.375 C43.4540625 37.55869141 43.4540625 37.55869141 44.9375 37.74609375 C46.97833516 37.91529564 49.0200537 38.07416207 51.0625 38.22265625 C52.031875 38.29355469 53.00125 38.36445313 54 38.4375 C54.886875 38.47746094 55.77375 38.51742187 56.6875 38.55859375 C59.42525064 39.08117115 60.15622838 39.99715658 62 42 C58.45840343 42.05841253 54.91693207 42.09373452 51.375 42.125 C50.37597656 42.14175781 49.37695312 42.15851563 48.34765625 42.17578125 C38.53332082 42.24077685 38.53332082 42.24077685 34 40 C32.65403697 37.55732636 31.82773884 35.61131896 31 33 C30.7215625 32.23429687 30.443125 31.46859375 30.15625 30.6796875 C28.78390788 26.82950543 28 24.15901118 28 20 C26.06640625 20.12181641 26.06640625 20.12181641 24.09375 20.24609375 C18.55202419 20.24500799 14.42236179 18.44625964 9.5 16.0625 C8.69046875 15.68931641 7.8809375 15.31613281 7.046875 14.93164062 C1.21742543 12.21742543 1.21742543 12.21742543 0 11 C-0.07226502 9.14712498 -0.0838122 7.29166122 -0.0625 5.4375 C-0.05347656 4.42558594 -0.04445313 3.41367188 -0.03515625 2.37109375 C-0.02355469 1.58863281 -0.01195313 0.80617187 0 0 Z " fill="#221F21" transform="translate(69,147)"/>
<path d="M0 0 C2.97 0 5.94 0 9 0 C9 5.28 9 10.56 9 16 C10.65 15.01 12.3 14.02 14 13 C14.37511719 13.71027344 14.75023438 14.42054688 15.13671875 15.15234375 C15.64847656 16.07144531 16.16023438 16.99054688 16.6875 17.9375 C17.18636719 18.85402344 17.68523437 19.77054688 18.19921875 20.71484375 C19.82742443 23.23011783 19.82742443 23.23011783 22.70703125 23.81640625 C23.84205078 23.90728516 23.84205078 23.90728516 25 24 C24.85930804 21.87465341 24.71229079 19.74972471 24.5625 17.625 C24.48128906 16.44164062 24.40007812 15.25828125 24.31640625 14.0390625 C24.18915064 11.08481099 24.18915064 11.08481099 23 9 C25.64 9 28.28 9 31 9 C31 13.95 31 18.9 31 24 C31.66 24.33 32.32 24.66 33 25 C29.91738544 25.1746397 26.83604167 25.28094067 23.75 25.375 C22.87730469 25.42527344 22.00460938 25.47554687 21.10546875 25.52734375 C18.60060033 25.58470715 16.44143298 25.57252845 14 25 C11.390625 21.9765625 11.390625 21.9765625 10 19 C9.67 20.65 9.34 22.3 9 24 C9.66 24.33 10.32 24.66 11 25 C7.7 25 4.4 25 1 25 C1.66 24.67 2.32 24.34 3 24 C2.89045592 20.37435813 2.7597504 16.74978569 2.625 13.125 C2.5940625 12.09246094 2.563125 11.05992187 2.53125 9.99609375 C2.49257812 9.00996094 2.45390625 8.02382812 2.4140625 7.0078125 C2.3826416 6.09660645 2.3512207 5.18540039 2.31884766 4.24658203 C2.20117489 1.80068814 2.20117489 1.80068814 0 0 Z " fill="#2F2B2C" transform="translate(107,199)"/>
<path d="M0 0 C0.495 0.99 0.495 0.99 1 2 C0.16976318 2.05945801 0.16976318 2.05945801 -0.67724609 2.12011719 C-20.91522619 3.48579834 -20.91522619 3.48579834 -37 15 C-38.62743578 17.62504473 -39.79555332 20.13943912 -41 23 C-41.33 23 -41.66 23 -42 23 C-43.73047259 14.33050365 -43.73047259 14.33050365 -41.25 9.8125 C-29.32723705 -1.9104401 -15.66062484 -6.09645753 0 0 Z " fill="#F1DFC8" transform="translate(134,7)"/>
<path d="M0 0 C0.33 0 0.66 0 1 0 C1 1.65 1 3.3 1 5 C2.98 5 4.96 5 7 5 C6.979375 5.94875 6.95875 6.8975 6.9375 7.875 C6.92776526 12.61581985 7.46975991 17.29411917 8 22 C7.01 22.33 6.02 22.66 5 23 C4.96261719 23.69867188 4.92523438 24.39734375 4.88671875 25.1171875 C4.82097656 26.02726562 4.75523437 26.93734375 4.6875 27.875 C4.62949219 28.77992188 4.57148438 29.68484375 4.51171875 30.6171875 C4 33 4 33 1 35 C-3.01018249 35.95895668 -6.01329349 36.05530466 -10 35 C-10 34.67 -10 34.34 -10 34 C-12.97 33.67 -15.94 33.34 -19 33 C-19 32.67 -19 32.34 -19 32 C-12.73 31.67 -6.46 31.34 0 31 C-0.2475 28.6796875 -0.2475 28.6796875 -0.5 26.3125 C-1.29249878 17.53840632 -1.6172065 8.69248492 0 0 Z " fill="#2A2829" transform="translate(136,153)"/>
<path d="M0 0 C-1.60836196 2.96277203 -3.13420004 5.13092686 -5.5625 7.5 C-7.97781863 9.97724988 -8.97543604 11.74002375 -10 15 C-10.58007812 15.02578125 -11.16015625 15.0515625 -11.7578125 15.078125 C-17.20866355 15.47389636 -20.71047469 16.33821011 -25 20 C-26.38868516 22.10039331 -26.38868516 22.10039331 -27 24 C-27.66 24 -28.32 24 -29 24 C-29.99 26.475 -29.99 26.475 -31 29 C-31.33 29 -31.66 29 -32 29 C-32.46106127 23.23673414 -31.53286534 20.54225544 -28 16 C-27.505 15.236875 -27.01 14.47375 -26.5 13.6875 C-25 12 -25 12 -23.125 11.5625 C-20.76062701 11.12712109 -20.76062701 11.12712109 -18.8125 8.8125 C-13.90564339 3.90564339 -7.24546679 -2.24859314 0 0 Z " fill="#232020" transform="translate(101,9)"/>
<path d="M0 0 C6 0 12 0 18 0 C19.72951578 3.45903157 19.40535763 7.43101162 19.62109375 11.25 C19.73719166 14.13984008 19.73719166 14.13984008 22 16 C18.7 16 15.4 16 12 16 C12.66 15.67 13.32 15.34 14 15 C13.67 11.04 13.34 7.08 13 3 C11.35 3 9.7 3 8 3 C8 6.96 8 10.92 8 15 C8.66 15.33 9.32 15.66 10 16 C6.7 16 3.4 16 0 16 C0.66 15.67 1.32 15.34 2 15 C1.85930804 12.87465341 1.71229079 10.74972471 1.5625 8.625 C1.48128906 7.44164062 1.40007812 6.25828125 1.31640625 5.0390625 C1.18915064 2.08481099 1.18915064 2.08481099 0 0 Z " fill="#282526" transform="translate(142,208)"/>
<path d="M0 0 C3.96 0 7.92 0 12 0 C11.01 0.33 10.02 0.66 9 1 C9.02320312 2.18078125 9.04640625 3.3615625 9.0703125 4.578125 C9.08907497 6.13541033 9.10727466 7.69270252 9.125 9.25 C9.15013672 10.41595703 9.15013672 10.41595703 9.17578125 11.60546875 C9.23860466 18.95580751 9.23860466 18.95580751 7 22 C2.86613531 24.48031881 -0.39752868 24.04206898 -5 23 C-7 21 -7 21 -7.125 18.375 C-7.08375 17.59125 -7.0425 16.8075 -7 16 C-5.35 15.67 -3.7 15.34 -2 15 C-1.61781233 16.65614657 -1.28604898 18.32457024 -1 20 C-1.33 20.33 -1.66 20.66 -2 21 C-0.68 20.67 0.64 20.34 2 20 C2.05379226 17.04142591 2.09357093 14.08382279 2.125 11.125 C2.14175781 10.28324219 2.15851562 9.44148437 2.17578125 8.57421875 C2.18544922 7.36572266 2.18544922 7.36572266 2.1953125 6.1328125 C2.21102295 5.01737061 2.21102295 5.01737061 2.22705078 3.87939453 C2.1665597 1.75509765 2.1665597 1.75509765 0 0 Z " fill="#1C191A" transform="translate(51,201)"/>
<path d="M0 0 C0 0.66 0 1.32 0 2 C-0.79921875 2.07476562 -1.5984375 2.14953125 -2.421875 2.2265625 C-10.97445029 3.25046236 -17.54526115 5.72863612 -25 10 C-24.67 9.01 -24.34 8.02 -24 7 C-32.77611677 7.98230468 -40.2508809 13.45789896 -46 20 C-46.33 19.01 -46.66 18.02 -47 17 C-43.5560963 11.89613472 -39.61986644 9.17987382 -34.25 6.3125 C-33.17286743 5.73169678 -33.17286743 5.73169678 -32.07397461 5.13916016 C-30.05959094 4.07117869 -28.03369904 3.03060166 -26 2 C-25.19175781 1.57847656 -24.38351563 1.15695312 -23.55078125 0.72265625 C-16.25827109 -2.38633138 -7.67949771 -0.73180059 0 0 Z " fill="#1F1C1D" transform="translate(124,2)"/>
<path d="M0 0 C1.9375 1.3125 1.9375 1.3125 3 3 C3 4.32 3 5.64 3 7 C-0.63 7 -4.26 7 -8 7 C-7.34 8.98 -6.68 10.96 -6 13 C-4.906875 13 -3.81375 13 -2.6875 13 C-0.45833333 13 1.77083333 13 4 13 C1.71272178 15.68791612 0.11847965 16.50230544 -3.375 16.9375 C-6.67685471 17.17988738 -7.95093061 17.02203115 -11.0625 15.625 C-13.50751785 12.31239517 -13.6529396 10.16628107 -13.43359375 6.125 C-12.81336094 3.08530045 -11.49683357 1.76247076 -9 0 C-5.85000502 -1.57499749 -3.36459118 -0.70833498 0 0 Z " fill="#242121" transform="translate(79,208)"/>
<path d="M0 0 C0.99 0.33 1.98 0.66 3 1 C3.28900979 5.78288147 3.5736514 10.56599713 3.85449219 15.34936523 C3.95033806 16.97182997 4.04731493 18.59422835 4.14550781 20.21655273 C4.68551525 29.15147169 5.17821451 38.04348333 5 47 C2.11788698 47.96070434 0.30149956 48.10581883 -2.6875 48.0625 C-3.89986328 48.04896484 -3.89986328 48.04896484 -5.13671875 48.03515625 C-5.75160156 48.02355469 -6.36648437 48.01195312 -7 48 C-4.53721199 45.53721199 -2.29323018 45.00228745 1 44 C0.9285376 43.1735498 0.8570752 42.34709961 0.78344727 41.49560547 C0.05381301 32.351281 -0.12102353 23.2996895 -0.0625 14.125 C-0.05746511 12.74349124 -0.05290579 11.36198067 -0.04882812 9.98046875 C-0.03719571 6.65359754 -0.0208528 3.32682398 0 0 Z " fill="#D9D7D6" transform="translate(131,137)"/>
<path d="M0 0 C3.32287327 1.05861449 4.07902495 2.13106576 5.921875 5.1875 C6.54368796 6.45229401 7.1527305 7.72343257 7.75 9 C8.06582031 9.64195313 8.38164062 10.28390625 8.70703125 10.9453125 C11 15.69007035 11 15.69007035 11 18 C4.2813095 16.00386732 -1.80734808 13.2708579 -8 10 C-6.25404014 4.95705767 -4.16372965 3.16805517 0 0 Z " fill="#7DA9BC" transform="translate(122,113)"/>
<path d="M0 0 C-0.85710619 5.82832212 -3.28627371 10.16491782 -6.875 14.75 C-12.43037753 22.0104934 -15.49880207 29.92153031 -18.10546875 38.62890625 C-19 41 -19 41 -21 42 C-22.13428675 28.6154164 -15.02156692 15.87061373 -7.06640625 5.47265625 C-2.4401362 0 -2.4401362 0 0 0 Z " fill="#E63B38" transform="translate(70,43)"/>
<path d="M0 0 C3.3 0 6.6 0 10 0 C10.33 1.32 10.66 2.64 11 4 C13.49034386 5.29660434 13.49034386 5.29660434 16 6 C14.58065592 10.25803225 11.87749565 11.90508585 8 14 C5.59403145 14.64686582 3.50530644 14.84661389 1 15 C-0.09506492 11.71480525 -0.09960608 9.26336585 -0.0625 5.8125 C-0.05347656 4.72582031 -0.04445313 3.63914062 -0.03515625 2.51953125 C-0.02355469 1.68808594 -0.01195313 0.85664062 0 0 Z " fill="#020000" transform="translate(109,100)"/>
<path d="M0 0 C0 1.98 0 3.96 0 6 C-0.66 5.67 -1.32 5.34 -2 5 C-2 4.34 -2 3.68 -2 3 C-3.98 3 -5.96 3 -8 3 C-8 3.66 -8 4.32 -8 5 C-7.43410156 5.27714844 -6.86820313 5.55429688 -6.28515625 5.83984375 C-5.55167969 6.20207031 -4.81820312 6.56429687 -4.0625 6.9375 C-3.33160156 7.29714844 -2.60070312 7.65679687 -1.84765625 8.02734375 C0 9 0 9 1 10 C1.375 12.375 1.375 12.375 1 15 C-0.875 16.875 -0.875 16.875 -4 18 C-7.38251675 17.94319438 -10.66275568 17.53784714 -14 17 C-14 15.02 -14 13.04 -14 11 C-13.46375 11.639375 -12.9275 12.27875 -12.375 12.9375 C-9.55632807 15.38529404 -7.66139268 15.66714612 -4 16 C-4.64659324 12.92636444 -4.64659324 12.92636444 -6.8125 12.0078125 C-7.534375 11.71648437 -8.25625 11.42515625 -9 11.125 C-12.85161232 9.320205 -12.85161232 9.320205 -14.1875 6.4375 C-14 4 -14 4 -12.80859375 2.390625 C-10.46121094 0.5857259 -8.80805298 0.50490143 -5.875 0.3125 C-4.54082031 0.21388672 -4.54082031 0.21388672 -3.1796875 0.11328125 C-1 0 -1 0 0 0 Z " fill="#221F20" transform="translate(180,207)"/>
<path d="M0 0 C0.99 0.66 1.98 1.32 3 2 C3.95241664 8.17534659 3.07437579 14.1658181 1 20 C-2.24262993 17.27779216 -3.89759525 13.72005562 -5.75 10 C-6.07871094 9.3709375 -6.40742188 8.741875 -6.74609375 8.09375 C-7.57925132 6.43446573 -8.29763177 4.71873637 -9 3 C-8.67 2.01 -8.34 1.02 -8 0 C-4.65649854 -1.11450049 -3.33342063 -0.91669067 0 0 Z " fill="#DEDDDD" transform="translate(135,109)"/>
<path d="M0 0 C1.98 0 3.96 0 6 0 C7.28101595 3.84304786 7.39991341 7.61316257 7.625 11.625 C7.6765625 12.41390625 7.728125 13.2028125 7.78125 14.015625 C7.89766357 16.0083514 7.95378636 18.00441113 8 20 C7 21 7 21 3.9375 21.0625 C2.968125 21.041875 1.99875 21.02125 1 21 C-0.11165232 16.5621439 -0.11527763 12.23043614 -0.0625 7.6875 C-0.05798828 6.94693359 -0.05347656 6.20636719 -0.04882812 5.44335938 C-0.03712175 3.62887101 -0.01918898 1.81442466 0 0 Z " fill="#324D5E" transform="translate(136,137)"/>
<path d="M0 0 C1.62463842 -0.05395478 3.24978541 -0.09277195 4.875 -0.125 C5.77992187 -0.14820313 6.68484375 -0.17140625 7.6171875 -0.1953125 C10 0 10 0 12 2 C12.1953125 5.0390625 12.1953125 5.0390625 12.125 8.625 C12.10695312 9.81351563 12.08890625 11.00203125 12.0703125 12.2265625 C12.04710937 13.14179688 12.02390625 14.05703125 12 15 C9.703125 15.2578125 9.703125 15.2578125 7 15 C2.91748536 10.93554958 0.29626385 5.77714504 0 0 Z " fill="#F7F7F7" transform="translate(120,208)"/>
<path d="M0 0 C0.33 0 0.66 0 1 0 C1 5.94 1 11.88 1 18 C3.26875 17.79375 5.5375 17.5875 7.875 17.375 C11.7421875 17.0234375 11.7421875 17.0234375 15 17 C15.66 17.66 16.32 18.32 17 19 C15.02 19.33 13.04 19.66 11 20 C11 20.33 11 20.66 11 21 C7.04 21.495 7.04 21.495 3 22 C3 26.95 3 31.9 3 37 C-0.2605096 33.7394904 -0.05467405 30.10916255 -0.0625 25.6875 C-0.0315625 23.8621875 -0.0315625 23.8621875 0 22 C-2.97 22 -5.94 22 -9 22 C-8.67 21.34 -8.34 20.68 -8 20 C-7.01 20 -6.02 20 -5 20 C-5.33 18.35 -5.66 16.7 -6 15 C-4.35 15.33 -2.7 15.66 -1 16 C-0.67 10.72 -0.34 5.44 0 0 Z " fill="#211E1F" transform="translate(94,117)"/>
<path d="M0 0 C3.30243306 3.30243306 2.64997776 7.44971086 3 12 C8.28 12.33 13.56 12.66 19 13 C19.66 10.03 20.32 7.06 21 4 C21.33 4 21.66 4 22 4 C22.62644556 14.09273402 22.62644556 14.09273402 20.1875 17.625 C16.10555698 20.19079275 12.71734876 20.08900658 8 20 C8 19.34 8 18.68 8 18 C9.65 17.67 11.3 17.34 13 17 C9.37 16.67 5.74 16.34 2 16 C1.34 10.72 0.68 5.44 0 0 Z " fill="#D2CFCE" transform="translate(153,136)"/>
<path d="M0 0 C0.34611328 1.59328125 0.34611328 1.59328125 0.69921875 3.21875 C3.38085003 16.30955248 3.38085003 16.30955248 12 26 C8.16622919 25.77448407 5.59825097 25.39883398 2.375 23.25 C-1.51252603 18.85709559 -3.50490418 12.57457156 -5 7 C-4.67727173 4.29369295 -3.3978052 0 0 0 Z " fill="#F0DDC6" transform="translate(88,67)"/>
<path d="M0 0 C2.94560411 3.62535891 5.76630678 7.32793864 8.5390625 11.0859375 C10.0887156 13.17139995 10.0887156 13.17139995 12.375 15.625 C14.41735331 18.60997792 14.1261955 20.45681865 14 24 C1.51480638 30.88838269 1.51480638 30.88838269 -5 30 C-5.33 28.35 -5.66 26.7 -6 25 C-5.34 25.66 -4.68 26.32 -4 27 C1.55781856 27.79397408 5.31499227 25.6635577 10 23 C9.48100922 18.50748603 7.80170086 16.11712 5 12.625 C1.68676984 8.25271949 0 5.48206372 0 0 Z " fill="#181517" transform="translate(135,38)"/>
<path d="M0 0 C-0.99 0.495 -0.99 0.495 -2 1 C-2 1.66 -2 2.32 -2 3 C-2.99 3.33 -3.98 3.66 -5 4 C-5.20720114 13.05370885 -5.20720114 13.05370885 -4 22 C-0.04 21.505 -0.04 21.505 4 21 C3.34 21.433125 2.68 21.86625 2 22.3125 C1.34 22.869375 0.68 23.42625 0 24 C0 24.99 0 25.98 0 27 C-1.86328125 26.81640625 -1.86328125 26.81640625 -4 26 C-7.22584391 20.17299942 -8.50353697 13.57813508 -9 7 C-9.928125 6.87625 -10.85625 6.7525 -11.8125 6.625 C-15 6 -15 6 -18 4 C-18 3.34 -18 2.68 -18 2 C-16.01432292 2.06510417 -14.02864583 2.13020833 -12.04296875 2.1953125 C-7.63527168 1.77392655 -4.95836474 -0.1871081 0 0 Z " fill="#271F20" transform="translate(113,93)"/>
<path d="M0 0 C5.91647283 0.53786117 10.04100037 2.10336498 15.21484375 5.01953125 C14.88484375 6.33953125 14.55484375 7.65953125 14.21484375 9.01953125 C14.87484375 9.01953125 15.53484375 9.01953125 16.21484375 9.01953125 C16.21484375 10.33953125 16.21484375 11.65953125 16.21484375 13.01953125 C15.55484375 12.68953125 14.89484375 12.35953125 14.21484375 12.01953125 C14.54484375 11.35953125 14.87484375 10.69953125 15.21484375 10.01953125 C12.24484375 9.52453125 12.24484375 9.52453125 9.21484375 9.01953125 C9.21484375 7.69953125 9.21484375 6.37953125 9.21484375 5.01953125 C5.91484375 4.68953125 2.61484375 4.35953125 -0.78515625 4.01953125 C-0.45515625 8.96953125 -0.12515625 13.91953125 0.21484375 19.01953125 C-2.64273174 16.16195576 -2.74027637 14.02668845 -2.91796875 10.0390625 C-2.91539063 8.98074219 -2.9128125 7.92242187 -2.91015625 6.83203125 C-2.91273437 5.76597656 -2.9153125 4.69992188 -2.91796875 3.6015625 C-2.73425316 0.02991524 -2.73425316 0.02991524 0 0 Z " fill="#DD3A36" transform="translate(109.78515625,95.98046875)"/>
<path d="M0 0 C2.05078125 0.03255208 4.1015625 0.06510417 6.15234375 0.09765625 C7.88185953 3.55668782 7.55770138 7.52866787 7.7734375 11.34765625 C7.88953541 14.23749633 7.88953541 14.23749633 10.15234375 16.09765625 C6.85234375 16.09765625 3.55234375 16.09765625 0.15234375 16.09765625 C0.81234375 15.76765625 1.47234375 15.43765625 2.15234375 15.09765625 C2.09242969 13.13846657 2.00367237 11.18014096 1.90234375 9.22265625 C1.8559375 8.13210937 1.80953125 7.0415625 1.76171875 5.91796875 C1.46388247 2.96444975 1.46388247 2.96444975 -0.89453125 1.71484375 C-1.5390625 1.51117188 -2.18359375 1.3075 -2.84765625 1.09765625 C-1.84765625 0.09765625 -1.84765625 0.09765625 0 0 Z " fill="#171415" transform="translate(153.84765625,207.90234375)"/>
<path d="M0 0 C2.4375 0.1875 2.4375 0.1875 5 1 C6.39453125 2.6328125 6.39453125 2.6328125 7 5 C5.85914441 7.45884402 4.73972216 9.46031604 3.25 11.6875 C2.87617188 12.28111328 2.50234375 12.87472656 2.1171875 13.48632812 C-0.68392857 17.84196429 -0.68392857 17.84196429 -3 19 C-2.69277348 16.02020106 -2.37948528 13.04126241 -2.0625 10.0625 C-1.97548828 9.21236328 -1.88847656 8.36222656 -1.79882812 7.48632812 C-1.71181641 6.67744141 -1.62480469 5.86855469 -1.53515625 5.03515625 C-1.456604 4.2862915 -1.37805176 3.53742676 -1.29711914 2.76586914 C-1 1 -1 1 0 0 Z " fill="#7DA9BC" transform="translate(141,110)"/>
<path d="M0 0 C2.64 0 5.28 0 8 0 C8.02685412 2.31243792 8.04632841 4.6249627 8.0625 6.9375 C8.07410156 8.22527344 8.08570313 9.51304687 8.09765625 10.83984375 C8 14 8 14 7 15 C5.33382885 15.04063832 3.66611905 15.042721 2 15 C1.90912109 13.62714844 1.90912109 13.62714844 1.81640625 12.2265625 C1.69072266 10.44378906 1.69072266 10.44378906 1.5625 8.625 C1.48128906 7.44164062 1.40007812 6.25828125 1.31640625 5.0390625 C1.18915064 2.08481099 1.18915064 2.08481099 0 0 Z " fill="#2F2B2C" transform="translate(130,208)"/>
<path d="M0 0 C3.5625 0.1875 3.5625 0.1875 5.5625 2.1875 C5.7578125 5.2265625 5.7578125 5.2265625 5.6875 8.8125 C5.66945313 10.00101563 5.65140625 11.18953125 5.6328125 12.4140625 C5.60960938 13.32929688 5.58640625 14.24453125 5.5625 15.1875 C6.2225 15.5175 6.8825 15.8475 7.5625 16.1875 C4.5925 16.1875 1.6225 16.1875 -1.4375 16.1875 C-1.1075 15.5275 -0.7775 14.8675 -0.4375 14.1875 C-0.36716231 12.31370395 -0.3531978 10.43748898 -0.375 8.5625 C-0.38853516 7.05816406 -0.38853516 7.05816406 -0.40234375 5.5234375 C-0.41394531 4.75257813 -0.42554687 3.98171875 -0.4375 3.1875 C-1.7575 2.5275 -3.0775 1.8675 -4.4375 1.1875 C-3.4375 0.1875 -3.4375 0.1875 0 0 Z " fill="#141212" transform="translate(98.4375,207.8125)"/>
<path d="M0 0 C2.64 0 5.28 0 8 0 C8 0.66 8 1.32 8 2 C8.66 2.33 9.32 2.66 10 3 C9.67 3.33 9.34 3.66 9 4 C8.90145345 5.64340867 8.87027589 7.2911461 8.875 8.9375 C8.87242188 9.83339844 8.86984375 10.72929687 8.8671875 11.65234375 C8.84578587 14.02155555 8.84578587 14.02155555 10 16 C7.03 16 4.06 16 1 16 C1.66 15.67 2.32 15.34 3 15 C2.88623383 12.87436897 2.75864369 10.7494739 2.625 8.625 C2.55539063 7.44164062 2.48578125 6.25828125 2.4140625 5.0390625 C2.29782654 1.89437681 2.29782654 1.89437681 0 0 Z " fill="#181415" transform="translate(84,208)"/>
<path d="M0 0 C0.33 0 0.66 0 1 0 C1.33 1.65 1.66 3.3 2 5 C4.475 5.495 4.475 5.495 7 6 C4 8 4 8 1 9 C1.33 9.763125 1.66 10.52625 2 11.3125 C3 14 3 14 3 17 C0 16 0 16 -2 13 C-6.44842565 14.35924117 -8.29735949 16.27221998 -11 20 C-11.66 20.66 -12.32 21.32 -13 22 C-12.979375 21.21625 -12.95875 20.4325 -12.9375 19.625 C-12.81315937 17.01885039 -12.81315937 17.01885039 -14 15 C-12.35 14.67 -10.7 14.34 -9 14 C-8.67 13.01 -8.34 12.02 -8 11 C-5.02827774 8.2332241 -4.25809375 8 0 8 C0 6.68 0 5.36 0 4 C-0.66 4 -1.32 4 -2 4 C-2 3.34 -2 2.68 -2 2 C-1.34 2 -0.68 2 0 2 C0 1.34 0 0.68 0 0 Z " fill="#211D1E" transform="translate(126,101)"/>
<path d="M0 0 C0 3.96 0 7.92 0 12 C2.64 12.33 5.28 12.66 8 13 C8 13.33 8 13.66 8 14 C4.04 14 0.08 14 -4 14 C-4 13.34 -4 12.68 -4 12 C-4.66 12 -5.32 12 -6 12 C-6 8.04 -6 4.08 -6 0 C-4 -1 -4 -1 0 0 Z " fill="#F5F5F5" transform="translate(156,211)"/>
<path d="M0 0 C1.65 0 3.3 0 5 0 C7.39306591 9.80729692 7.39306591 9.80729692 7 14 C6 15 6 15 3.4375 15.0625 C2.633125 15.041875 1.82875 15.02125 1 15 C-0.44207941 12.11584117 -0.09394887 9.58278472 -0.0625 6.375 C-0.05347656 5.18648437 -0.04445312 3.99796875 -0.03515625 2.7734375 C-0.02355469 1.85820312 -0.01195312 0.94296875 0 0 Z " fill="#CAC8C7" transform="translate(137,161)"/>
<path d="M0 0 C1.65 0 3.3 0 5 0 C6.85131483 3.92857754 7.22004943 6.98775112 7.125 11.3125 C7.10695312 12.38113281 7.08890625 13.44976562 7.0703125 14.55078125 C7.03550781 15.76314453 7.03550781 15.76314453 7 17 C5.68 17.33 4.36 17.66 3 18 C2.01 12.06 1.02 6.12 0 0 Z " fill="#EAEAEA" transform="translate(145,136)"/>
<path d="M0 0 C0.33 0 0.66 0 1 0 C1 3.63 1 7.26 1 11 C0.34 11 -0.32 11 -1 11 C-1.33 11.66 -1.66 12.32 -2 13 C-2 12.01 -2 11.02 -2 10 C-2.721875 10.78375 -3.44375 11.5675 -4.1875 12.375 C-7.71395662 15.66635951 -10.17965001 17 -15 17 C-13.59106853 15.36828877 -12.17254042 13.74486055 -10.75 12.125 C-9.96109375 11.22007813 -9.1721875 10.31515625 -8.359375 9.3828125 C-6.21455119 7.21668249 -4.68651267 6.27255863 -2 5 C-0.71745356 2.46229997 -0.71745356 2.46229997 0 0 Z " fill="#1A1819" transform="translate(72,33)"/>
<path d="M0 0 C1.70884005 1.62339805 3.37446717 3.29319053 5 5 C5 5.66 5 6.32 5 7 C5.58378418 6.96447021 6.16756836 6.92894043 6.76904297 6.89233398 C9.47061643 6.73258645 12.17273101 6.58499581 14.875 6.4375 C15.7928125 6.38142578 16.710625 6.32535156 17.65625 6.26757812 C23.87834177 5.93894652 29.82183958 6.1947736 36 7 C36 7.33 36 7.66 36 8 C17.52 8 -0.96 8 -20 8 C-19.67 7.34 -19.34 6.68 -19 6 C-12.73 6 -6.46 6 0 6 C0 4.02 0 2.04 0 0 Z " fill="#D2D2D2" transform="translate(116,217)"/>
<path d="M0 0 C-0.92866378 2.32165945 -1.5804072 3.72027146 -3.6875 5.125 C-6.65067484 6.24620129 -9.09069297 6.19368059 -12.25 6.125 C-13.32765625 6.10695312 -14.4053125 6.08890625 -15.515625 6.0703125 C-16.33546875 6.04710937 -17.1553125 6.02390625 -18 6 C-18.33 5.34 -18.66 4.68 -19 4 C-22.3 4.33 -25.6 4.66 -29 5 C-29 4.34 -29 3.68 -29 3 C-23.51324804 1.13216954 -18.77807024 0.7641604 -13 1 C-13.99 1.33 -14.98 1.66 -16 2 C-16 2.66 -16 3.32 -16 4 C-14.39431334 3.71682074 -12.79047953 3.42312209 -11.1875 3.125 C-10.29417969 2.96257812 -9.40085938 2.80015625 -8.48046875 2.6328125 C-5.10344716 1.77127313 -3.59713763 0 0 0 Z " fill="#171313" transform="translate(177,152)"/>
<path d="M0 0 C3.88028169 4.68309859 3.88028169 4.68309859 5.0625 7.8125 C6.79956604 10.27530841 6.79956604 10.27530841 9.5625 10.2421875 C11.54455997 10.2060562 13.52640925 10.11965513 15.50390625 9.98046875 C18 10 18 10 20 12 C16.89632503 12.14515677 13.79351973 12.23400853 10.6875 12.3125 C9.36588867 12.3753418 9.36588867 12.3753418 8.01757812 12.43945312 C5.58387503 12.48572124 3.38858646 12.47369078 1 12 C-1.3643764 9.33454196 -1.90499711 7.81702482 -2.3125 4.3125 C-2 2 -2 2 0 0 Z " fill="#191717" transform="translate(120,212)"/>
<path d="M0 0 C1.98 0 3.96 0 6 0 C6 3.3 6 6.6 6 10 C2.7 9.67 -0.6 9.34 -4 9 C-4 8.01 -4 7.02 -4 6 C-3.01 5.34 -2.02 4.68 -1 4 C-0.27617533 1.94074861 -0.27617533 1.94074861 0 0 Z " fill="#090201" transform="translate(140,98)"/>
<path d="M0 0 C0.67095703 0.58007812 0.67095703 0.58007812 1.35546875 1.171875 C1.96003906 1.69265625 2.56460938 2.2134375 3.1875 2.75 C3.82300781 3.29914063 4.45851562 3.84828125 5.11328125 4.4140625 C6.65368747 5.70889671 8.25673724 6.92889274 9.875 8.125 C12.12409163 10.10949261 12.68554267 11.06506494 13 14 C9.23432688 12.66937346 6.47135539 11.01113358 3.375 8.5 C0.95212619 6.54847024 -1.40757162 4.72828558 -4 3 C-2.68 2.01 -1.36 1.02 0 0 Z " fill="#466E86" transform="translate(147,87)"/>
<path d="M0 0 C-1.03125 0.5775 -2.0625 1.155 -3.125 1.75 C-7.77946523 4.41905954 -12.17584061 7.24799859 -16.25 10.75 C-19 13 -19 13 -21 13 C-19.65085028 8.62091626 -17.97251384 6.83773412 -14.1875 4.3125 C-13.33542969 3.73113281 -12.48335937 3.14976563 -11.60546875 2.55078125 C-4.51216286 -1.67117143 -4.51216286 -1.67117143 0 0 Z " fill="#CAC8C8" transform="translate(101,9)"/>
<path d="M0 0 C2.9389507 0.0868803 5.87481289 0.19373767 8.8125 0.3125 C9.64587891 0.33505859 10.47925781 0.35761719 11.33789062 0.38085938 C12.54155273 0.4340332 12.54155273 0.4340332 13.76953125 0.48828125 C14.87711792 0.52755737 14.87711792 0.52755737 16.00708008 0.56762695 C18 1 18 1 21 4 C13.74 4 6.48 4 -1 4 C-0.67 2.68 -0.34 1.36 0 0 Z " fill="#161314" transform="translate(110,185)"/>
<path d="M0 0 C0.99 0.33 1.98 0.66 3 1 C3.33 2.65 3.66 4.3 4 6 C3.34 6 2.68 6 2 6 C2.05220703 7.58941406 2.05220703 7.58941406 2.10546875 9.2109375 C2.13360399 10.59894252 2.16090443 11.98696463 2.1875 13.375 C2.21263672 14.07367188 2.23777344 14.77234375 2.26367188 15.4921875 C2.29296875 17.5234375 2.29296875 17.5234375 2 21 C1.01 21.66 0.02 22.32 -1 23 C-1.02706445 20.10410348 -1.04687029 17.20846205 -1.0625 14.3125 C-1.07087891 13.49587891 -1.07925781 12.67925781 -1.08789062 11.83789062 C-1.10442051 7.75500916 -1.03035098 3.98348293 0 0 Z " fill="#282526" transform="translate(45,76)"/>
<path d="M0 0 C2.19761878 1.05811274 4.18422786 2.1289595 6.1875 3.53125 C9.67219441 5.35103486 12.40069574 5.50470541 16.3125 5.6875 C17.56675781 5.75324219 18.82101563 5.81898437 20.11328125 5.88671875 C21.54220703 5.94279297 21.54220703 5.94279297 23 6 C21.15520692 8.42291486 20.14869992 8.97046096 17.109375 9.57421875 C8.19927734 9.87467553 8.19927734 9.87467553 4.58984375 7.2421875 C0 1.98318789 0 1.98318789 0 0 Z " fill="#161318" transform="translate(117,73)"/>
<path d="M0 0 C2.47158404 12.40205562 2.47158404 12.40205562 2 17 C1.34 17.66 0.68 18.32 0 19 C-1.32 19 -2.64 19 -4 19 C-4 18.01 -4 17.02 -4 16 C-3.34 15.67 -2.68 15.34 -2 15 C-2.33 10.38 -2.66 5.76 -3 1 C-1 0 -1 0 0 0 Z " fill="#161213" transform="translate(145,160)"/>
<path d="M0 0 C5.94 0.66 11.88 1.32 18 2 C18 3.32 18 4.64 18 6 C11.45336558 6.54555287 6.47621253 5.8277608 1 2 C0.67 1.34 0.34 0.68 0 0 Z " fill="#191619" transform="translate(120,69)"/>
<path d="M0 0 C1.75128818 0.28382946 3.50100003 0.57739529 5.25 0.875 C6.71179688 1.11863281 6.71179688 1.11863281 8.203125 1.3671875 C10.77264117 1.94855848 12.72071056 2.70840265 15 4 C14.44019394 8.97069177 12.16165799 12.61818417 9.625 16.8125 C9.22539062 17.50537109 8.82578125 18.19824219 8.4140625 18.91210938 C7.36452768 20.66421109 6.19007951 22.34015226 5 24 C4.01 24 3.02 24 2 24 C2.63808594 23.03578125 3.27617187 22.0715625 3.93359375 21.078125 C4.76852414 19.80227632 5.60314329 18.52622392 6.4375 17.25 C7.06881836 16.29867187 7.06881836 16.29867187 7.71289062 15.328125 C8.11572266 14.709375 8.51855469 14.090625 8.93359375 13.453125 C9.30540771 12.88754883 9.67722168 12.32197266 10.06030273 11.73925781 C11.10948461 9.79735819 11.71762337 8.19283543 12 6 C9.50494038 3.50494038 8.32671112 3.64051624 4.875 3.375 C3.96492187 3.30023438 3.05484375 3.22546875 2.1171875 3.1484375 C1.41851562 3.09945312 0.71984375 3.05046875 0 3 C0 2.01 0 1.02 0 0 Z " fill="#201B1C" transform="translate(135,107)"/>
<path d="M0 0 C0.33 0.99 0.66 1.98 1 3 C-0.98 3.33 -2.96 3.66 -5 4 C-5.33 5.65 -5.66 7.3 -6 9 C-6.99 9 -7.98 9 -9 9 C-9 9.99 -9 10.98 -9 12 C-9.66 12 -10.32 12 -11 12 C-11.51941098 6.80589023 -11.51941098 6.80589023 -11 4 C-7.48199412 0.72743639 -4.8048505 -0.56527653 0 0 Z " fill="#D03734" transform="translate(145,95)"/>
<path d="M0 0 C2.66157432 2.55511135 5.06177374 5.24586384 7.4375 8.0625 C10.03221316 11.06543312 12.37961824 13.24466339 16 15 C15.67 16.32 15.34 17.64 15 19 C13.02 18.67 11.04 18.34 9 18 C9.99 17.34 10.98 16.68 12 16 C11.46890625 15.55269531 10.9378125 15.10539062 10.390625 14.64453125 C2.55432373 7.93791574 2.55432373 7.93791574 0 4 C0 2.68 0 1.36 0 0 Z M12 19 C12.99 19.495 12.99 19.495 14 20 C13.01 20.495 13.01 20.495 12 21 C12 20.34 12 19.68 12 19 Z " fill="#302B29" transform="translate(99,75)"/>
<path d="M0 0 C0 0.99 0 1.98 0 3 C-1.2375 3.4125 -2.475 3.825 -3.75 4.25 C-7.39123028 5.66531919 -9.80783722 6.62744188 -12 10 C-12.91482602 13.63827359 -13.51284253 17.28221928 -14 21 C-14.33 21 -14.66 21 -15 21 C-15.33321563 15.7981338 -15.61147189 11.40128975 -13.5 6.5625 C-9.72950062 2.69773813 -5.49542404 0 0 0 Z " fill="#CCCAC9" transform="translate(88,23)"/>
<path d="M0 0 C2.99977878 1.49988939 3.55588143 4.05159126 5 7 C5.66 7.66 6.32 8.32 7 9 C6.46428571 12.53571429 6.46428571 12.53571429 5 14 C-2.52238806 14.23880597 -2.52238806 14.23880597 -5 13 C-5 12.01 -5 11.02 -5 10 C-2.36 10 0.28 10 3 10 C2.7834375 9.44570313 2.566875 8.89140625 2.34375 8.3203125 C1.92609375 7.23363281 1.92609375 7.23363281 1.5 6.125 C1.2215625 5.40570313 0.943125 4.68640625 0.65625 3.9453125 C0 2 0 2 0 0 Z " fill="#1D1A1D" transform="translate(119,35)"/>
<path d="M0 0 C0.99 0.33 1.98 0.66 3 1 C4.54799337 5.64398011 4.49594333 10.32517708 3 15 C1.68 14.67 0.36 14.34 -1 14 C-1.02694851 12.04174127 -1.04637218 10.08337774 -1.0625 8.125 C-1.07410156 7.03445312 -1.08570313 5.94390625 -1.09765625 4.8203125 C-1 2 -1 2 0 0 Z " fill="#252223" transform="translate(175,137)"/>
<path d="M0 0 C0 1.98 0 3.96 0 6 C-0.99 5.67 -1.98 5.34 -3 5 C-3.33 4.34 -3.66 3.68 -4 3 C-3.67 5.97 -3.34 8.94 -3 12 C-5.24107496 9.11861791 -7.33168894 6.25320657 -9 3 C-8.67 2.01 -8.34 1.02 -8 0 C-4.71023192 -1.09658936 -3.28696233 -0.79953138 0 0 Z " fill="#BCBAB9" transform="translate(135,109)"/>
<path d="M0 0 C0.86625 0.144375 1.7325 0.28875 2.625 0.4375 C2.955 1.4275 3.285 2.4175 3.625 3.4375 C2.573125 3.64375 1.52125 3.85 0.4375 4.0625 C-4.01907236 5.29439805 -5.73343582 7.75531963 -8.375 11.4375 C-9.03515625 9.671875 -9.03515625 9.671875 -9.375 7.4375 C-7.19346655 3.26117915 -4.70285865 0.60962982 0 0 Z " fill="#141216" transform="translate(112.375,22.5625)"/>
<path d="M0 0 C1.66482422 0.00966797 1.66482422 0.00966797 3.36328125 0.01953125 C6.54555714 0.1803278 9.55943763 0.59596022 12.6875 1.1875 C11.6975 1.6825 11.6975 1.6825 10.6875 2.1875 C10.6875 2.8475 10.6875 3.5075 10.6875 4.1875 C8.7075 4.5175 6.7275 4.8475 4.6875 5.1875 C5.0175 4.1975 5.3475 3.2075 5.6875 2.1875 C0.7375 2.1875 -4.2125 2.1875 -9.3125 2.1875 C-5.76163328 -0.17974448 -4.20075741 -0.05329681 0 0 Z " fill="#393536" transform="translate(118.3125,-0.1875)"/>
<path d="M0 0 C0.66 0 1.32 0 2 0 C2 0.66 2 1.32 2 2 C2.61875 2.226875 3.2375 2.45375 3.875 2.6875 C6.66320542 4.40962687 7.16239065 5.87800152 8 9 C7 12 7 12 5 13 C4.74605469 12.45730469 4.49210938 11.91460937 4.23046875 11.35546875 C3.71419922 10.28232422 3.71419922 10.28232422 3.1875 9.1875 C2.85105469 8.47980469 2.51460937 7.77210938 2.16796875 7.04296875 C0.99354529 4.98870965 -0.25628016 3.58383722 -2 2 C-1.34 1.34 -0.68 0.68 0 0 Z " fill="#1A1617" transform="translate(169,126)"/>
<path d="M0 0 C0 0.99 0 1.98 0 3 C-3.52381313 6.44186399 -5.95030484 8.55443866 -11 9 C-11 7.35 -11 5.7 -11 4 C-7.37 2.68 -3.74 1.36 0 0 Z " fill="#2C2727" transform="translate(150,66)"/>
<path d="M0 0 C1.34592097 1.65651812 2.67518731 3.32655239 4 5 C4.52851563 5.66257812 5.05703125 6.32515625 5.6015625 7.0078125 C6.41753906 8.05582031 6.41753906 8.05582031 7.25 9.125 C7.77078125 9.78757812 8.2915625 10.45015625 8.828125 11.1328125 C10 13 10 13 10 16 C9.34 16.33 8.68 16.66 8 17 C0.14806378 6.81093394 0.14806378 6.81093394 0 0 Z " fill="#242020" transform="translate(135,38)"/>
<path d="M0 0 C2 2 2 2 2.1953125 5.4765625 C2.18201493 6.85950968 2.15816232 8.24238654 2.125 9.625 C2.11597656 10.33140625 2.10695313 11.0378125 2.09765625 11.765625 C2.07407603 13.51056098 2.03820461 15.25532295 2 17 C1.01 17 0.02 17 -1 17 C-1.02721176 15.10424749 -1.04649136 13.20838021 -1.0625 11.3125 C-1.07410156 10.25675781 -1.08570312 9.20101562 -1.09765625 8.11328125 C-1.00865425 5.27589738 -0.64939838 2.7561081 0 0 Z " fill="#477088" transform="translate(96,118)"/>
<path d="M0 0 C0.99 0.33 1.98 0.66 3 1 C2.72350393 4.31395208 2.42627566 7.62571605 2.125 10.9375 C2.04636719 11.88302734 1.96773437 12.82855469 1.88671875 13.80273438 C1.80292969 14.70185547 1.71914062 15.60097656 1.6328125 16.52734375 C1.55949707 17.35999756 1.48618164 18.19265137 1.41064453 19.05053711 C1.20737549 20.01552124 1.20737549 20.01552124 1 21 C0.34 21.33 -0.32 21.66 -1 22 C-1.66 21.34 -2.32 20.68 -3 20 C-2.690625 19.071875 -2.38125 18.14375 -2.0625 17.1875 C-0.6216844 12.22128454 -0.35305964 7.13794694 0 2 C-0.66 1.67 -1.32 1.34 -2 1 C-1.34 0.67 -0.68 0.34 0 0 Z " fill="#333234" transform="translate(138,109)"/>
<path d="M0 0 C1.67542976 0.28604898 3.34385343 0.61781233 5 1 C4.79375 1.78375 4.5875 2.5675 4.375 3.375 C4.25125 4.24125 4.1275 5.1075 4 6 C4.66 6.66 5.32 7.32 6 8 C5.01 8.33 4.02 8.66 3 9 C0.8125 7.875 0.8125 7.875 -1 6 C-1.3125 3.375 -1.3125 3.375 -1 1 C-0.67 0.67 -0.34 0.34 0 0 Z " fill="#2A2728" transform="translate(45,216)"/>
<path d="M0 0 C0.66 0 1.32 0 2 0 C2.02705729 1.77074917 2.04642195 3.54161711 2.0625 5.3125 C2.07410156 6.29863281 2.08570312 7.28476562 2.09765625 8.30078125 C2 11 2 11 1 14 C0.93062938 16.22818441 0.91542916 18.45834524 0.9375 20.6875 C0.94652344 21.86699219 0.95554687 23.04648437 0.96484375 24.26171875 C0.97644531 25.16535156 0.98804687 26.06898437 1 27 C-3.52583399 19.59408984 -1.04420922 8.26044079 0 0 Z " fill="#161315" transform="translate(89,24)"/>
<path d="M0 0 C0.99 0.33 1.98 0.66 3 1 C2.649375 1.61875 2.29875 2.2375 1.9375 2.875 C1.4734375 3.926875 1.4734375 3.926875 1 5 C1.33 5.66 1.66 6.32 2 7 C1.34 7 0.68 7 0 7 C0 7.99 0 8.98 0 10 C-0.99 10.33 -1.98 10.66 -3 11 C-3.33 10.67 -3.66 10.34 -4 10 C-3.53017945 3.65742251 -3.53017945 3.65742251 -1.4375 1.0625 C-0.7259375 0.5365625 -0.7259375 0.5365625 0 0 Z " fill="#E7D3BC" transform="translate(74,48)"/>
<path d="M0 0 C0.33 0 0.66 0 1 0 C1.05447822 2.52113092 1.09389852 5.0410585 1.125 7.5625 C1.14175781 8.26697266 1.15851563 8.97144531 1.17578125 9.69726562 C1.22022044 14.51891822 0.52768004 18.42297438 -1 23 C-1.66 23 -2.32 23 -3 23 C-2.01 15.41 -1.02 7.82 0 0 Z " fill="#1B1B1E" transform="translate(157,45)"/>
<path d="M0 0 C2.45140787 2.45140787 3.63817703 4.82241307 5 8 C4 11 4 11 2 12 C0.00039988 12.039992 -2.00047242 12.04346799 -4 12 C-4.33 11.01 -4.66 10.02 -5 9 C-2.69 9 -0.38 9 2 9 C1.67 8.2575 1.34 7.515 1 6.75 C0 4 0 4 0 0 Z " fill="#24201F" transform="translate(150,35)"/>
<path d="M0 0 C2.97 0.495 2.97 0.495 6 1 C6.33 2.98 6.66 4.96 7 7 C3.7 7 0.4 7 -3 7 C-3 6.67 -3 6.34 -3 6 C-1.35 6 0.3 6 2 6 C1.34 4.02 0.68 2.04 0 0 Z " fill="#130F10" transform="translate(75,208)"/>
<path d="M0 0 C3.25696479 0.41755959 4.63443291 0.63443291 7 3 C6.625 5.125 6.625 5.125 6 7 C5.67 6.34 5.34 5.68 5 5 C4.01 4.67 3.02 4.34 2 4 C1.67 5.65 1.34 7.3 1 9 C0.67 9 0.34 9 0 9 C-0.59732819 6.23735711 -1 3.83967231 -1 1 C-0.67 0.67 -0.34 0.34 0 0 Z " fill="#231F20" transform="translate(76,50)"/>
<path d="M0 0 C-0.33 1.65 -0.66 3.3 -1 5 C-4.67387495 5.85298376 -8.0447393 6.10789471 -11.8125 6.0625 C-13.27623047 6.04896484 -13.27623047 6.04896484 -14.76953125 6.03515625 C-15.87361328 6.01775391 -15.87361328 6.01775391 -17 6 C-17 5.67 -17 5.34 -17 5 C-13.7 4.67 -10.4 4.34 -7 4 C-7 3.34 -7 2.68 -7 2 C-2.25 0 -2.25 0 0 0 Z " fill="#CEB79D" transform="translate(144,65)"/>
<path d="M0 0 C-1.75 3.875 -1.75 3.875 -4 5 C-5.67654729 4.72057545 -7.34608154 4.39171753 -9 4 C-9 3.67 -9 3.34 -9 3 C-11.97 2.67 -14.94 2.34 -18 2 C-18 1.67 -18 1.34 -18 1 C-15.37504621 0.83257698 -12.75004205 0.6660283 -10.125 0.5 C-9.00544922 0.42845703 -9.00544922 0.42845703 -7.86328125 0.35546875 C-2.2265625 0 -2.2265625 0 0 0 Z " fill="#3B3738" transform="translate(135,184)"/>
<path d="M0 0 C1.98 0 3.96 0 6 0 C6 1.65 6 3.3 6 5 C4.02 5.33 2.04 5.66 0 6 C0 4.02 0 2.04 0 0 Z " fill="#476F87" transform="translate(136,137)"/>
<path d="M0 0 C0.33 0 0.66 0 1 0 C1.66 3.96 2.32 7.92 3 12 C0.0845524 12 -2.34154481 11.59136731 -5.1875 11 C-6.08855469 10.814375 -6.98960937 10.62875 -7.91796875 10.4375 C-8.60503906 10.293125 -9.29210937 10.14875 -10 10 C-10 9.67 -10 9.34 -10 9 C-3.375 8.875 -3.375 8.875 0 10 C0 6.7 0 3.4 0 0 Z " fill="#612524" transform="translate(146,98)"/>
<path d="M0 0 C0.66 0.66 1.32 1.32 2 2 C6.45263035 2.40478458 9.84782943 1.58177926 14 0 C14.33 0.66 14.66 1.32 15 2 C10.03006806 4.43425238 6.65394631 5.34615998 1 5 C0.67 3.35 0.34 1.7 0 0 Z " fill="#131115" transform="translate(129,63)"/>
<path d="M0 0 C0.33 0.66 0.66 1.32 1 2 C1.66 2 2.32 2 3 2 C2.88590407 3.45922693 2.75834456 4.91740598 2.625 6.375 C2.55539063 7.18710937 2.48578125 7.99921875 2.4140625 8.8359375 C2 11 2 11 0 13 C-1 12 -1 12 -1.1328125 10.0390625 C-1.13023438 9.24242187 -1.12765625 8.44578125 -1.125 7.625 C-1.12886719 6.43777344 -1.12886719 6.43777344 -1.1328125 5.2265625 C-1 3 -1 3 0 0 Z " fill="#1C1B1C" transform="translate(68,48)"/>
<path d="M0 0 C1.32 0 2.64 0 4 0 C4.33 1.98 4.66 3.96 5 6 C3.02 6 1.04 6 -1 6 C-1.625 4.125 -1.625 4.125 -2 2 C-1.34 1.34 -0.68 0.68 0 0 Z " fill="#F6E3CC" transform="translate(116,37)"/>
<path d="M0 0 C-2.09175532 5.95345745 -2.09175532 5.95345745 -5 8 C-7.6875 8.1875 -7.6875 8.1875 -10 8 C-9.04578192 6.85073734 -8.08647955 5.70569459 -7.125 4.5625 C-6.59132813 3.92441406 -6.05765625 3.28632813 -5.5078125 2.62890625 C-3.68057607 0.65492285 -2.70796331 0 0 0 Z " fill="#686667" transform="translate(94,13)"/>
<path d="M0 0 C0.33 0.99 0.66 1.98 1 3 C-0.1446875 3.7734375 -0.1446875 3.7734375 -1.3125 4.5625 C-4.61575607 7.55847644 -5.48625726 9.85712514 -7 14 C-7.99 14 -8.98 14 -10 14 C-9.42316338 10.10635283 -7.45178223 7.98810959 -5 5 C-4.67 4.01 -4.34 3.02 -4 2 C-1.9375 0.8125 -1.9375 0.8125 0 0 Z " fill="#2C2727" transform="translate(98,10)"/>
<path d="M0 0 C3.3 0.33 6.6 0.66 10 1 C9.67 2.32 9.34 3.64 9 5 C5.26512223 4.5020163 3.18762365 4.12508244 0 2 C0 1.34 0 0.68 0 0 Z " fill="#DAD9D9" transform="translate(95,95)"/>
<path d="M0 0 C3.42931954 3.7559214 4.56429083 8.23466745 6 13 C5.01 13.495 5.01 13.495 4 14 C3.13395466 12.23494565 2.28251358 10.46271926 1.4375 8.6875 C0.72400391 7.20830078 0.72400391 7.20830078 -0.00390625 5.69921875 C-1 3 -1 3 0 0 Z " fill="#1B1313" transform="translate(129,117)"/>
<path d="M0 0 C0.33 0 0.66 0 1 0 C1.08103404 2.91722548 1.14051081 5.83219516 1.1875 8.75 C1.22520508 9.9875 1.22520508 9.9875 1.26367188 11.25 C1.33834499 17.42297754 1.33834499 17.42297754 -0.51171875 20.578125 C-1.24841797 21.28195313 -1.24841797 21.28195313 -2 22 C-2 19.36 -2 16.72 -2 14 C-1.67 14 -1.34 14 -1 14 C-0.67 9.38 -0.34 4.76 0 0 Z " fill="#0C1819" transform="translate(47,82)"/>
<path d="M0 0 C0.66 0.99 1.32 1.98 2 3 C1.125 5.6875 1.125 5.6875 0 8 C-0.33 7.34 -0.66 6.68 -1 6 C-2.98 6.99 -2.98 6.99 -5 8 C-3.375 2.25 -3.375 2.25 0 0 Z M-6 8 C-5.34 8.66 -4.68 9.32 -4 10 C-4.66 10 -5.32 10 -6 10 C-6 9.34 -6 8.68 -6 8 Z " fill="#292829" transform="translate(172,120)"/>
<path d="M0 0 C1.65 0.33 3.3 0.66 5 1 C4.67 2.32 4.34 3.64 4 5 C4.66 5 5.32 5 6 5 C6 6.32 6 7.64 6 9 C5.34 8.67 4.68 8.34 4 8 C4.33 7.34 4.66 6.68 5 6 C2.03 5.505 2.03 5.505 -1 5 C-0.67 3.35 -0.34 1.7 0 0 Z " fill="#BC3430" transform="translate(120,100)"/>
<path d="M0 0 C0.66 0.33 1.32 0.66 2 1 C2.625 4.0625 2.625 4.0625 3 7 C0 9 0 9 -2.1875 8.625 C-2.785625 8.41875 -3.38375 8.2125 -4 8 C-3.34 7.01 -2.68 6.02 -2 5 C-1.34 5 -0.68 5 0 5 C0 3.35 0 1.7 0 0 Z " fill="#1B1718" transform="translate(137,179)"/>
<path d="M0 0 C-1.5625 2.0625 -1.5625 2.0625 -4 4 C-10.21428571 3.78571429 -10.21428571 3.78571429 -13 1 C-8.62426048 0.40667939 -4.42471556 -0.13827236 0 0 Z " fill="#CAB299" transform="translate(135,95)"/>
<path d="M0 0 C0.66 0.66 1.32 1.32 2 2 C0.02 4.97 0.02 4.97 -2 8 C-3.65 7.67 -5.3 7.34 -7 7 C-5.54744301 3.17053157 -3.57104439 1.87949705 0 0 Z " fill="#292122" transform="translate(61,48)"/>
<path d="M0 0 C1.65 0 3.3 0 5 0 C5.5625 1.9375 5.5625 1.9375 6 4 C5 5 5 5 2.4375 5.0625 C1.2309375 5.0315625 1.2309375 5.0315625 0 5 C0 3.35 0 1.7 0 0 Z " fill="#211D1E" transform="translate(132,199)"/>
<path d="M0 0 C2.99977878 1.49988939 3.55588143 4.05159126 5 7 C5.66 7.66 6.32 8.32 7 9 C6.75 11.0625 6.75 11.0625 6 13 C5.01 13.495 5.01 13.495 4 14 C2.66666667 9.33333333 1.33333333 4.66666667 0 0 Z " fill="#36302E" transform="translate(119,35)"/>
<path d="M0 0 C1.65 0.33 3.3 0.66 5 1 C5 2.32 5 3.64 5 5 C3.02 5 1.04 5 -1 5 C-0.67 3.35 -0.34 1.7 0 0 Z " fill="#E5E5E5" transform="translate(72,209)"/>
<path d="M0 0 C0.66 0 1.32 0 2 0 C2.125 2.875 2.125 2.875 2 6 C1.34 6.66 0.68 7.32 0 8 C-1.32 8 -2.64 8 -4 8 C-4 7.01 -4 6.02 -4 5 C-2.68 4.67 -1.36 4.34 0 4 C0 2.68 0 1.36 0 0 Z " fill="#1E1B1C" transform="translate(145,171)"/>
<path d="M0 0 C0.53625 0.61875 1.0725 1.2375 1.625 1.875 C4.31103023 4.2782902 6.55414562 5.06022153 10 6 C10 6.33 10 6.66 10 7 C6.7 6.67 3.4 6.34 0 6 C0 4.02 0 2.04 0 0 Z " fill="#403E3F" transform="translate(166,218)"/>
<path d="M0 0 C0.33 0.66 0.66 1.32 1 2 C1.99 2 2.98 2 4 2 C3.67 4.31 3.34 6.62 3 9 C2.34 8.01 1.68 7.02 1 6 C0.34 7.32 -0.32 8.64 -1 10 C-0.67 6.7 -0.34 3.4 0 0 Z " fill="#413E3F" transform="translate(137,174)"/>
<path d="M0 0 C0.66 0 1.32 0 2 0 C2 1.32 2 2.64 2 4 C2.66 4 3.32 4 4 4 C4.33 5.98 4.66 7.96 5 10 C4.01 10 3.02 10 2 10 C0.68373308 6.38026598 0 3.90432869 0 0 Z " fill="#151212" transform="translate(98,169)"/>
<path d="M0 0 C0.33 0.99 0.66 1.98 1 3 C-0.423125 3.12375 -0.423125 3.12375 -1.875 3.25 C-5.10461791 3.65074923 -5.10461791 3.65074923 -6.375 6.0625 C-6.58125 6.701875 -6.7875 7.34125 -7 8 C-7.36275695 3.52599758 -7.36275695 3.52599758 -5.75 1.1875 C-4 0 -4 0 0 0 Z " fill="#F3E1CA" transform="translate(148,18)"/>
<path d="M0 0 C4.875 4.625 4.875 4.625 6 8 C4.68 8 3.36 8 2 8 C2 7.34 2 6.68 2 6 C1.34 6 0.68 6 0 6 C0 4.02 0 2.04 0 0 Z " fill="#F7F6F6" transform="translate(116,217)"/>
<path d="M0 0 C0.33 1.32 0.66 2.64 1 4 C-1.97 4 -4.94 4 -8 4 C-8.33 3.34 -8.66 2.68 -9 2 C-6.03 1.34 -3.06 0.68 0 0 Z " fill="#312C2B" transform="translate(137,71)"/>
<path d="M0 0 C2.80045623 3.14591933 3.35261589 5.067064 3.1875 9.25 C3.16042969 10.14203125 3.13335937 11.0340625 3.10546875 11.953125 C3.07066406 12.62859375 3.03585938 13.3040625 3 14 C-0.2102122 10.7897878 0.01025241 7.62539686 -0.0625 3.1875 C-0.041875 2.135625 -0.02125 1.08375 0 0 Z " fill="#282B2F" transform="translate(94,140)"/>
<path d="M0 0 C0.33 0 0.66 0 1 0 C1 2.64 1 5.28 1 8 C0.34 8 -0.32 8 -1 8 C-1.33 10.64 -1.66 13.28 -2 16 C-2.33 16 -2.66 16 -3 16 C-3 12.7 -3 9.4 -3 6 C-2.01 5.67 -1.02 5.34 0 5 C0 3.35 0 1.7 0 0 Z " fill="#494D51" transform="translate(71,140)"/>
<path d="M0 0 C1.32 0.33 2.64 0.66 4 1 C4.1875 3.875 4.1875 3.875 4 7 C3.01 7.66 2.02 8.32 1 9 C0.67 6.03 0.34 3.06 0 0 Z " fill="#1C1717" transform="translate(142,138)"/>
<path d="M0 0 C-1.52708963 3.43595166 -3.59927045 6.11912454 -6 9 C-5.979375 8.21625 -5.95875 7.4325 -5.9375 6.625 C-5.81315937 4.01885039 -5.81315937 4.01885039 -7 2 C-2.25 0 -2.25 0 0 0 Z " fill="#1D1818" transform="translate(119,114)"/>
<path d="M0 0 C0.33 0.66 0.66 1.32 1 2 C0.34 2 -0.32 2 -1 2 C-1 2.99 -1 3.98 -1 5 C-2.98 5.33 -4.96 5.66 -7 6 C-6.875 4.125 -6.875 4.125 -6 2 C-2.9375 0.75 -2.9375 0.75 0 0 Z " fill="#3A3430" transform="translate(149,20)"/>
<path d="M0 0 C0.99 0.33 1.98 0.66 3 1 C3 2.98 3 4.96 3 7 C2.34 7 1.68 7 1 7 C0.67 7.99 0.34 8.98 0 10 C0 6.7 0 3.4 0 0 Z " fill="#1A1414" transform="translate(69,147)"/>
<path d="M0 0 C-1.98 0.99 -1.98 0.99 -4 2 C-4 2.99 -4 3.98 -4 5 C-5.32 4.67 -6.64 4.34 -8 4 C-8 2.68 -8 1.36 -8 0 C-4.71303767 -0.79953138 -3.28976808 -1.09658936 0 0 Z " fill="#4A2525" transform="translate(117,115)"/>
<path d="M0 0 C0.33 0 0.66 0 1 0 C1.33 1.65 1.66 3.3 2 5 C3.65 5.33 5.3 5.66 7 6 C4 8 4 8 0 8 C0 6.68 0 5.36 0 4 C-0.66 4 -1.32 4 -2 4 C-2 3.34 -2 2.68 -2 2 C-1.34 2 -0.68 2 0 2 C0 1.34 0 0.68 0 0 Z " fill="#0E1617" transform="translate(126,101)"/>
<path d="M0 0 C0.99 0 1.98 0 3 0 C3 0.66 3 1.32 3 2 C3.66 2 4.32 2 5 2 C5.33 3.32 5.66 4.64 6 6 C4.35 5.67 2.7 5.34 1 5 C0.67 3.35 0.34 1.7 0 0 Z " fill="#252223" transform="translate(172,66)"/>
<path d="M0 0 C2.97 0 5.94 0 9 0 C9 0.99 9 1.98 9 3 C2.84765625 2.4140625 2.84765625 2.4140625 1 2 C0.67 1.34 0.34 0.68 0 0 Z " fill="#487089" transform="translate(85,139)"/>
<path d="M0 0 C-0.25 1.875 -0.25 1.875 -1 4 C-3.0625 5.25 -3.0625 5.25 -5 6 C-5.66 5.34 -6.32 4.68 -7 4 C-2.25 0 -2.25 0 0 0 Z " fill="#522221" transform="translate(124,109)"/>
<path d="M0 0 C0.66 1.32 1.32 2.64 2 4 C1.01 4.33 0.02 4.66 -1 5 C-1.73323796 7.01508358 -1.73323796 7.01508358 -2 9 C-2.66 8.34 -3.32 7.68 -4 7 C-3.39816251 4.97954558 -2.72693904 2.97888961 -2 1 C-1.34 0.67 -0.68 0.34 0 0 Z " fill="#292223" transform="translate(177,105)"/>
<path d="M0 0 C2.375 0.8125 2.375 0.8125 4.375 2.8125 C1.85446405 4.07276798 0.5207902 3.73124445 -2.25 3.375 C-3.47589844 3.22224609 -3.47589844 3.22224609 -4.7265625 3.06640625 C-5.35304688 2.98261719 -5.97953125 2.89882812 -6.625 2.8125 C-4.2650337 0.62734602 -3.28118881 -0.23437063 0 0 Z " fill="#CD3733" transform="translate(116.625,97.1875)"/>
<path d="M0 0 C0.99 0.33 1.98 0.66 3 1 C0.525 4.465 0.525 4.465 -2 8 C-2.33 6.68 -2.66 5.36 -3 4 C-1.5625 1.75 -1.5625 1.75 0 0 Z " fill="#1E1B1C" transform="translate(106,26)"/>
<path d="M0 0 C-0.66 0.66 -1.32 1.32 -2 2 C-2.99 2 -3.98 2 -5 2 C-5 2.66 -5 3.32 -5 4 C-6.32 4.33 -7.64 4.66 -9 5 C-9 4.01 -9 3.02 -9 2 C-5.86501708 0.14223235 -3.62528568 -0.20140476 0 0 Z " fill="#474546" transform="translate(77,207)"/>
<path d="M0 0 C1.485 0.99 1.485 0.99 3 2 C2.34 5.3 1.68 8.6 1 12 C0.67 12 0.34 12 0 12 C-0.19477739 10.37585622 -0.38059458 8.75063577 -0.5625 7.125 C-0.66691406 6.22007812 -0.77132812 5.31515625 -0.87890625 4.3828125 C-1 2 -1 2 0 0 Z " fill="#353233" transform="translate(175,137)"/>
<path d="M0 0 C0.99 0.33 1.98 0.66 3 1 C1.35 2.98 -0.3 4.96 -2 7 C-2.6875 5.1875 -2.6875 5.1875 -3 3 C-1.5625 1.25 -1.5625 1.25 0 0 Z " fill="#F5E2CC" transform="translate(74,48)"/>
<path d="M0 0 C2.31 0 4.62 0 7 0 C7 0.99 7 1.98 7 3 C6.01 3.495 6.01 3.495 5 4 C2.375 2.625 2.375 2.625 0 1 C0 0.67 0 0.34 0 0 Z " fill="#ECDAC4" transform="translate(75,47)"/>
<path d="M0 0 C0 1.98 0 3.96 0 6 C-1.32 6 -2.64 6 -4 6 C-3.625 3.5625 -3.625 3.5625 -3 1 C-1 0 -1 0 0 0 Z " fill="#F7E4CD" transform="translate(150,36)"/>
<path d="M0 0 C1.65 0 3.3 0 5 0 C5.33 0.99 5.66 1.98 6 3 C3.69 3 1.38 3 -1 3 C-0.67 2.01 -0.34 1.02 0 0 Z " fill="#E13A37" transform="translate(140,95)"/>
<path d="M0 0 C2.64 0 5.28 0 8 0 C3.25 4 3.25 4 1 4 C0.67 2.68 0.34 1.36 0 0 Z " fill="#252424" transform="translate(120,208)"/>
<path d="M0 0 C0.99 0.33 1.98 0.66 3 1 C3 2.65 3 4.3 3 6 C1 5 1 5 0 4 C-0.99 4.495 -0.99 4.495 -2 5 C-2 3.68 -2 2.36 -2 1 C-1.34 0.67 -0.68 0.34 0 0 Z " fill="#A5302D" transform="translate(129,100)"/>
<path d="M0 0 C0.99 0.33 1.98 0.66 3 1 C3.33 2.65 3.66 4.3 4 6 C3.34 6 2.68 6 2 6 C1.67 7.32 1.34 8.64 1 10 C0.67 6.7 0.34 3.4 0 0 Z " fill="#302C2C" transform="translate(45,76)"/>
<path d="M0 0 C0.33 0 0.66 0 1 0 C1 1.65 1 3.3 1 5 C-0.98 5.33 -2.96 5.66 -5 6 C-4.67 5.01 -4.34 4.02 -4 3 C-3.01 2.67 -2.02 2.34 -1 2 C-0.67 1.34 -0.34 0.68 0 0 Z " fill="#37302D" transform="translate(90,49)"/>
<path d="M0 0 C1.5625 1.125 1.5625 1.125 3 3 C2.6875 6.1875 2.6875 6.1875 2 9 C1.34 8.67 0.68 8.34 0 8 C-0.6875 4.5 -0.6875 4.5 -1 1 C-0.67 0.67 -0.34 0.34 0 0 Z " fill="#D1BDA5" transform="translate(82,49)"/>
<path d="M0 0 C2.4294516 3.6441774 2.16179575 5.71241272 2 10 C1.34 9.67 0.68 9.34 0 9 C-1.28571429 2.57142857 -1.28571429 2.57142857 0 0 Z " fill="#0D0A0E" transform="translate(156,28)"/>
<path d="M0 0 C0.66 0.99 1.32 1.98 2 3 C0 5 0 5 -2.625 5.125 C-3.40875 5.08375 -4.1925 5.0425 -5 5 C-3.35 3.35 -1.7 1.7 0 0 Z " fill="#252122" transform="translate(85,11)"/>
<path d="M0 0 C0.99 0.33 1.98 0.66 3 1 C2.34 2.98 1.68 4.96 1 7 C0.34 6.01 -0.32 5.02 -1 4 C-1.66 3.67 -2.32 3.34 -3 3 C-2.01 2.01 -1.02 1.02 0 0 Z " fill="#DDC5A9" transform="translate(150,68)"/>
<path d="M0 0 C0.33 0.66 0.66 1.32 1 2 C1.66 2 2.32 2 3 2 C2.67 2.99 2.34 3.98 2 5 C0.35 5.33 -1.3 5.66 -3 6 C-3 5.34 -3 4.68 -3 4 C-2.34 3.67 -1.68 3.34 -1 3 C-0.67 2.01 -0.34 1.02 0 0 Z " fill="#2C2727" transform="translate(146,58)"/>
<path d="M0 0 C1.98 0 3.96 0 6 0 C6 0.99 6 1.98 6 3 C4.35 3 2.7 3 1 3 C0.67 2.01 0.34 1.02 0 0 Z " fill="#19161A" transform="translate(145,44)"/>
<path d="M0 0 C2 2 2 2 2 5 C-0.31 5 -2.62 5 -5 5 C-4.67 4.34 -4.34 3.68 -4 3 C-2.68 3 -1.36 3 0 3 C0 2.01 0 1.02 0 0 Z " fill="#D8C1A6" transform="translate(150,39)"/>
<path d="M0 0 C0.75 1.75 0.75 1.75 1 4 C-0.9375 6.25 -0.9375 6.25 -3 8 C-3.36923077 3.44615385 -3.36923077 3.44615385 -1.5 1.1875 C-1.005 0.795625 -0.51 0.40375 0 0 Z " fill="#E1CFBA" transform="translate(106,22)"/>
</svg>
