<svg xmlns="http://www.w3.org/2000/svg" width="225" height="225" viewBox="0 0 225 225">
<g>
<path d="M 51.35 203.31 C49.83,204.83 47.59,203.80 44.09,199.98 C42.06,197.76 38.86,195.52 36.96,194.98 C27.76,192.41 24.00,187.20 24.00,177.00 C24.00,165.22 28.90,159.77 39.98,159.22 C50.86,158.68 55.83,163.51 56.70,175.45 C57.26,183.00 54.39,189.28 48.73,192.93 L 44.95 195.37 L 48.50 199.00 C50.45,200.99 51.73,202.94 51.35,203.31 ZM 35.00 190.28 C45.50,195.64 55.44,184.88 51.99,171.91 C50.50,166.32 48.63,164.25 43.95,162.99 C35.28,160.65 28.00,166.77 28.00,176.40 C28.00,182.97 30.55,188.01 35.00,190.28 ZM 196.75 194.37 C189.85,196.22 183.08,193.99 180.51,189.02 C177.32,182.85 179.68,173.25 185.09,170.46 C188.37,168.76 193.32,168.56 196.06,170.03 C198.62,171.40 201.00,176.18 201.00,179.95 L 201.00 183.00 L 191.93 183.00 C183.00,183.00 182.88,183.03 183.51,185.25 C183.87,186.49 185.33,188.56 186.76,189.85 C189.33,192.19 192.45,192.38 197.25,190.48 C198.56,189.96 199.00,190.28 199.00,191.78 C199.00,193.00 198.13,194.00 196.75,194.37 ZM 131.75 194.37 C125.21,196.12 117.51,193.70 115.06,189.12 C113.51,186.22 113.76,178.36 115.52,174.97 C118.31,169.57 126.98,167.20 131.74,170.53 C133.81,171.98 135.98,177.45 135.99,181.25 C136.00,182.79 134.91,183.00 127.00,183.00 C121.96,183.00 118.00,183.42 118.00,183.95 C118.00,186.45 120.54,189.98 123.11,191.05 C125.74,192.14 128.35,191.95 132.41,190.40 C133.54,189.96 134.00,190.37 134.00,191.78 C134.00,193.00 133.13,194.00 131.75,194.37 ZM 3.75 190.34 C8.35,192.25 9.24,192.30 12.43,190.85 C17.83,188.39 16.30,183.11 8.83,178.39 C6.57,176.96 3.65,174.65 2.36,173.25 L 0.00 170.71 L 0.00 0.00 L 0.04 83.25 C0.07,155.73 0.26,166.16 1.50,163.89 C3.37,160.44 7.59,158.81 13.60,159.19 C17.68,159.45 18.55,159.85 18.80,161.59 C19.08,163.53 18.72,163.64 13.55,163.21 C7.09,162.68 5.00,163.88 5.00,168.13 C5.00,170.54 5.91,171.61 10.40,174.48 C13.37,176.38 16.75,179.14 17.90,180.60 C23.87,188.19 15.79,197.37 5.30,194.93 C3.21,194.44 1.16,194.04 0.75,194.02 C0.34,194.01 0.00,200.98 0.00,209.50 L 0.00 188.79 ZM 104.40 194.61 C100.64,196.18 100.00,196.19 94.75,194.80 C91.73,194.00 91.00,193.33 91.00,191.40 C91.00,191.28 91.00,191.16 91.00,191.05 C91.00,190.06 90.99,189.49 91.27,189.27 C91.67,188.96 92.62,189.36 94.93,190.33 C95.12,190.40 95.31,190.49 95.52,190.57 C100.07,192.47 103.43,191.80 105.56,188.55 C107.73,185.23 106.37,183.00 99.12,178.08 C92.15,173.35 90.11,169.57 92.02,164.95 C93.70,160.90 97.95,158.82 103.80,159.20 C107.61,159.44 108.55,159.88 108.79,161.50 C109.05,163.31 108.60,163.47 104.01,163.15 C98.10,162.75 96.00,164.04 96.00,168.09 C96.00,170.43 97.03,171.62 101.94,174.96 C105.21,177.18 108.58,180.00 109.44,181.22 C112.76,185.96 110.46,192.07 104.40,194.61 ZM 81.00 193.05 C81.00,194.84 80.26,195.00 72.00,195.00 L 63.00 195.00 L 63.00 177.00 C63.00,159.74 63.08,159.00 64.97,159.00 C66.85,159.00 66.96,159.83 67.22,174.75 L 67.50 190.50 L 74.25 190.80 C80.18,191.06 81.00,191.33 81.00,193.05 ZM 173.18 183.00 C170.16,190.42 167.91,194.60 166.84,194.80 L 166.78 194.81 C166.37,194.89 166.04,194.95 165.74,194.89 C164.54,194.65 163.72,192.47 159.60,181.59 C155.21,170.04 155.21,170.00 157.53,170.00 C159.10,170.00 160.08,170.74 160.50,172.25 C162.57,179.56 166.41,188.98 167.05,188.30 C167.45,187.86 168.92,184.35 170.31,180.50 C173.27,172.26 173.90,170.48 175.01,170.10 C175.32,170.00 175.66,170.00 176.09,170.00 L 176.11 170.00 C177.15,170.00 177.97,170.34 177.93,170.75 C177.89,171.16 175.76,176.67 173.18,183.00 ZM 144.79 185.52 C144.56,192.66 144.19,194.54 142.95,194.77 C142.10,194.94 141.09,194.75 140.70,194.37 C140.32,193.98 140.00,188.34 140.00,181.83 L 140.00 170.00 L 142.50 170.00 C143.88,170.00 145.00,170.48 145.00,171.06 C145.00,171.65 145.98,171.43 147.22,170.56 C150.42,168.32 153.57,168.54 153.57,171.00 C153.57,172.49 152.90,173.00 150.94,173.00 C146.39,173.00 145.12,175.60 144.79,185.52 ZM 210.00 185.39 C209.58,193.02 209.22,194.53 207.75,194.81 C206.16,195.12 206.00,194.01 206.00,182.57 C206.00,170.67 206.11,170.00 208.00,170.00 C209.11,170.00 210.00,170.67 210.00,171.50 C210.00,172.67 210.44,172.56 212.00,171.00 C213.10,169.90 215.12,169.00 216.50,169.00 C218.33,169.00 219.00,169.53 219.00,171.00 C219.00,172.54 218.33,173.00 216.12,173.00 C211.69,173.00 210.56,175.29 210.00,185.39 ZM 184.18 177.85 C183.88,179.85 184.29,180.00 189.87,180.00 C196.40,180.00 197.69,179.15 195.99,175.97 C194.16,172.55 190.07,171.56 187.05,173.80 C185.65,174.85 184.36,176.67 184.18,177.85 ZM 118.00 179.43 C118.00,179.75 120.93,180.00 124.50,180.00 C131.41,180.00 132.26,179.22 129.96,174.93 C128.91,172.96 123.68,172.24 121.40,173.77 C120.31,174.49 118.00,178.34 118.00,179.43 Z" fill="rgb(22,21,22)"/>
<path d="M 120.08 92.69 C115.36,94.65 107.45,98.27 102.50,100.75 L 93.51 105.27 L 102.50 95.84 C113.69,84.13 117.24,77.52 117.81,67.32 C118.34,57.78 115.55,51.55 106.58,42.31 C102.96,38.59 100.00,35.45 100.00,35.35 C100.00,35.24 101.24,35.77 102.75,36.52 C105.37,37.82 124.69,41.58 141.22,44.00 C161.20,46.92 176.71,53.08 186.21,61.86 C192.15,67.35 194.17,70.79 189.25,67.04 C187.74,65.89 184.48,63.39 182.00,61.50 C179.52,59.60 176.95,58.04 176.27,58.02 C175.59,58.01 174.09,59.86 172.93,62.14 C171.77,64.42 168.77,68.47 166.27,71.14 C161.45,76.30 161.50,76.54 167.00,75.02 C168.93,74.49 175.05,73.38 180.62,72.55 C186.19,71.72 191.47,70.76 192.37,70.41 C193.27,70.07 194.00,70.24 194.00,70.79 C194.00,71.34 190.96,72.31 187.25,72.94 C170.22,75.84 137.82,85.37 120.08,92.69 ZM 124.52 55.27 C132.00,57.55 132.00,57.55 132.00,52.33 C132.00,46.90 132.75,47.05 133.78,52.69 L 134.50 56.65 L 141.80 52.71 C145.82,50.55 148.93,48.59 148.70,48.37 C148.48,48.14 144.74,47.28 140.41,46.45 C134.63,45.35 132.42,45.25 132.14,46.08 C131.87,46.90 131.54,46.87 130.99,45.98 C129.86,44.16 115.84,41.65 114.93,43.11 C114.45,43.89 113.97,43.77 113.37,42.70 C112.89,41.85 111.17,40.83 109.54,40.42 L 106.58 39.68 L 110.54 44.24 C113.72,47.91 114.62,48.48 115.12,47.16 C115.60,45.88 116.07,46.28 117.15,48.88 L 118.55 52.25 L 121.52 49.78 C127.07,45.16 129.61,44.76 124.52,49.30 L 119.54 53.75 ZM 154.17 70.96 C156.55,73.62 158.80,75.84 159.16,75.90 C159.95,76.02 172.99,59.85 172.99,58.75 C173.00,58.34 172.35,58.00 171.56,58.00 C169.81,58.00 156.61,62.68 152.67,64.69 L 149.84 66.13 ZM 138.38 77.98 C134.74,81.84 132.00,85.00 132.30,85.00 C133.57,85.00 155.58,77.65 156.34,76.97 C156.80,76.56 155.05,74.60 152.44,72.61 C147.77,69.05 145.00,68.07 145.00,69.98 C145.00,70.52 142.02,74.12 138.38,77.98 ZM 151.43 56.49 C149.64,62.22 149.58,63.07 150.93,62.62 C151.79,62.33 156.65,60.81 161.71,59.25 C166.78,57.69 171.20,56.13 171.53,55.80 C172.31,55.03 162.15,51.21 157.24,50.43 L 153.50 49.83 ZM 140.29 60.70 C142.61,61.92 145.00,62.93 145.61,62.95 C146.71,63.00 152.00,52.35 152.00,50.09 C152.00,48.69 150.08,49.59 141.79,54.86 L 136.08 58.50 ZM 128.71 83.31 C129.02,84.86 129.63,85.76 130.06,85.31 C132.62,82.68 141.85,70.51 141.53,70.20 C141.32,69.99 137.94,71.50 134.02,73.56 C128.63,76.39 127.05,77.69 127.52,78.90 C127.86,79.78 128.40,81.77 128.71,83.31 ZM 119.93 65.37 L 120.00 69.23 L 124.25 65.48 C126.59,63.41 128.91,61.35 129.41,60.90 C130.39,60.02 127.60,58.71 122.24,57.55 C119.23,56.89 119.02,57.01 119.42,59.17 C119.66,60.45 119.88,63.24 119.93,65.37 ZM 118.18 86.75 C114.70,90.19 112.12,93.00 112.45,93.00 C112.78,93.00 116.42,91.58 120.54,89.85 C127.13,87.09 127.96,86.45 127.41,84.60 C126.04,80.01 124.67,80.33 118.18,86.75 ZM 130.19 71.91 C129.87,72.75 132.14,71.96 135.83,69.93 C139.22,68.06 142.00,66.26 142.00,65.92 C142.00,65.17 134.09,61.52 133.71,62.09 C133.56,62.32 132.82,64.30 132.07,66.50 C131.33,68.70 130.48,71.13 130.19,71.91 ZM 122.15 73.14 C123.44,74.14 124.95,74.83 125.50,74.68 C126.77,74.33 131.23,65.18 130.78,63.84 C130.60,63.30 128.05,64.76 125.12,67.09 L 119.79 71.34 ZM 108.87 91.19 L 106.60 94.37 L 111.05 91.29 C115.67,88.08 121.94,82.00 120.62,82.00 C118.93,82.00 110.99,88.21 108.87,91.19 ZM 116.74 79.25 C114.76,83.60 115.35,83.87 119.49,80.49 C122.31,78.18 122.38,77.95 120.76,76.33 C119.82,75.39 118.91,74.82 118.74,75.06 C118.58,75.30 117.67,77.19 116.74,79.25 Z" fill="rgb(139,36,42)"/>
<path d="M 111.00 141.00 C111.00,142.53 108.10,142.12 101.39,139.62 C92.44,136.30 86.36,132.42 83.51,128.23 C78.42,120.74 79.94,117.70 97.35,100.54 C104.17,93.82 108.72,89.01 111.76,84.88 C109.50,88.15 106.49,91.67 102.50,95.84 L 93.51 105.27 L 102.23 100.89 C95.42,104.52 90.54,107.97 88.25,110.94 C84.18,116.22 83.97,118.48 87.62,117.56 C93.49,116.09 96.55,115.80 95.02,116.87 C94.21,117.44 91.81,118.19 89.70,118.55 C85.15,119.32 84.33,120.81 86.33,124.66 C87.82,127.54 91.76,131.66 92.31,130.91 C96.25,125.54 99.36,122.02 99.79,122.45 C100.09,122.75 98.99,124.69 97.35,126.75 C97.25,126.88 97.15,127.00 97.05,127.13 C94.81,129.94 93.70,131.34 93.96,132.41 C94.22,133.50 95.90,134.25 99.23,135.83 C106.71,139.37 109.24,140.37 110.25,140.16 C110.66,140.07 111.00,140.45 111.00,141.00 ZM 3.00 151.08 C3.00,153.24 2.55,155.00 2.00,155.00 C0.72,155.00 0.68,143.32 1.95,142.53 C2.47,142.21 3.44,142.95 4.09,144.17 C4.98,145.83 4.99,146.50 4.14,146.79 C3.51,147.00 3.00,148.93 3.00,151.08 ZM 19.00 151.00 C19.00,155.09 18.83,155.50 17.67,154.33 C16.61,153.28 16.89,147.00 18.00,147.00 C18.55,147.00 19.00,148.80 19.00,151.00 ZM 104.30 37.06 C103.58,36.85 103.05,36.67 102.75,36.52 C102.05,36.17 101.41,35.87 100.92,35.66 C100.23,34.03 100.96,33.09 102.85,32.08 C104.40,31.25 104.77,31.33 104.61,32.48 C104.49,33.29 104.08,34.26 103.70,34.64 C102.74,35.60 102.64,36.32 104.30,37.06 ZM 147.98 143.75 C148.00,145.34 147.41,146.00 146.00,146.00 C144.59,146.00 144.00,145.34 144.02,143.75 C144.03,141.92 144.22,141.78 145.02,143.00 C145.89,144.33 146.11,144.33 146.98,143.00 C147.78,141.78 147.97,141.92 147.98,143.75 ZM 79.77 146.92 C79.56,147.70 78.46,148.41 77.33,148.49 C75.81,148.61 75.40,148.18 75.76,146.82 C76.36,144.50 78.00,144.45 78.02,146.75 C78.03,148.26 78.18,148.29 79.09,147.00 C79.93,145.81 80.07,145.79 79.77,146.92 ZM 103.00 130.92 C102.18,131.39 99.93,132.04 98.00,132.38 L 94.50 132.98 L 98.00 131.57 C102.06,129.92 105.53,129.47 103.00,130.92 ZM 140.46 43.88 C133.14,42.80 125.34,41.47 118.72,40.21 C121.08,40.61 123.75,41.04 126.77,41.53 C131.74,42.32 136.29,43.10 140.46,43.88 ZM 157.63 80.08 C168.79,76.89 179.58,74.25 187.25,72.94 C183.54,73.57 173.75,75.83 165.50,77.97 C162.85,78.65 160.23,79.36 157.63,80.08 ZM 171.05 52.17 C177.27,54.84 181.98,57.95 186.21,61.86 C182.19,58.15 177.10,54.90 171.05,52.17 ZM 102.74 38.33 C103.82,39.46 105.15,40.84 106.58,42.31 C107.73,43.50 108.77,44.63 109.73,45.73 C108.75,44.62 107.66,43.48 106.47,42.29 C104.89,40.71 103.66,39.41 102.74,38.33 ZM 120.08 92.69 C123.47,91.29 127.39,89.81 131.64,88.32 C127.30,89.87 123.16,91.45 119.27,93.03 C119.55,92.92 119.82,92.80 120.08,92.69 Z" fill="rgb(158,140,142)"/>
<path d="M 0.00 209.50 C0.00,200.98 0.34,194.01 0.75,194.02 C1.16,194.04 3.21,194.44 5.30,194.93 C15.79,197.37 23.87,188.19 17.90,180.60 C16.75,179.14 13.37,176.38 10.40,174.48 C5.91,171.61 5.00,170.54 5.00,168.13 C5.00,163.88 7.09,162.68 13.55,163.21 C18.72,163.64 19.08,163.53 18.80,161.59 C18.55,159.85 17.68,159.45 13.60,159.19 C7.59,158.81 3.37,160.44 1.50,163.89 C0.26,166.16 0.07,155.73 0.04,83.25 L 0.00 0.00 L 112.50 0.00 L 225.00 0.00 L 225.00 112.50 L 225.00 225.00 L 112.50 225.00 L 0.00 225.00 L 0.00 209.50 ZM 51.35 203.31 C51.73,202.94 50.45,200.99 48.50,199.00 L 44.95 195.37 L 48.73 192.93 C54.39,189.28 57.26,183.00 56.70,175.45 C55.83,163.51 50.86,158.68 39.98,159.22 C28.90,159.77 24.00,165.22 24.00,177.00 C24.00,187.20 27.76,192.41 36.96,194.98 C38.86,195.52 42.06,197.76 44.09,199.98 C47.59,203.80 49.83,204.83 51.35,203.31 ZM 104.40 194.61 C110.46,192.07 112.76,185.96 109.44,181.22 C108.58,180.00 105.21,177.18 101.94,174.96 C97.03,171.62 96.00,170.43 96.00,168.09 C96.00,164.04 98.10,162.75 104.01,163.15 C108.60,163.47 109.05,163.31 108.79,161.50 C108.55,159.88 107.61,159.44 103.80,159.20 C97.95,158.82 93.70,160.90 92.02,164.95 C90.11,169.57 92.15,173.35 99.12,178.08 C106.37,183.00 107.73,185.23 105.56,188.55 C103.43,191.80 100.07,192.47 95.52,190.57 C90.78,188.59 91.00,188.55 91.00,191.40 C91.00,193.33 91.73,194.00 94.75,194.80 C100.00,196.19 100.64,196.18 104.40,194.61 ZM 81.00 193.05 C81.00,191.33 80.18,191.06 74.25,190.80 L 67.50 190.50 L 67.22 174.75 C66.96,159.83 66.85,159.00 64.97,159.00 C63.08,159.00 63.00,159.74 63.00,177.00 L 63.00 195.00 L 72.00 195.00 C80.26,195.00 81.00,194.84 81.00,193.05 ZM 131.75 194.37 C133.13,194.00 134.00,193.00 134.00,191.78 C134.00,190.37 133.54,189.96 132.41,190.40 C128.35,191.95 125.74,192.14 123.11,191.05 C120.54,189.98 118.00,186.45 118.00,183.95 C118.00,183.42 121.96,183.00 127.00,183.00 C134.91,183.00 136.00,182.79 135.99,181.25 C135.98,177.45 133.81,171.98 131.74,170.53 C126.98,167.20 118.31,169.57 115.52,174.97 C113.76,178.36 113.51,186.22 115.06,189.12 C117.51,193.70 125.21,196.12 131.75,194.37 ZM 144.79 185.52 C145.12,175.60 146.39,173.00 150.94,173.00 C152.90,173.00 153.57,172.49 153.57,171.00 C153.57,168.54 150.42,168.32 147.22,170.56 C145.98,171.43 145.00,171.65 145.00,171.06 C145.00,170.48 143.88,170.00 142.50,170.00 L 140.00 170.00 L 140.00 181.83 C140.00,188.34 140.32,193.98 140.70,194.37 C141.09,194.75 142.10,194.94 142.95,194.77 C144.19,194.54 144.56,192.66 144.79,185.52 ZM 173.18 183.00 C175.76,176.67 177.89,171.16 177.93,170.75 C177.97,170.34 177.15,170.00 176.11,170.00 C174.08,170.00 174.09,169.97 170.31,180.50 C168.92,184.35 167.45,187.86 167.05,188.30 C166.41,188.98 162.57,179.56 160.50,172.25 C160.08,170.74 159.10,170.00 157.53,170.00 C155.21,170.00 155.21,170.04 159.60,181.59 C164.81,195.34 164.73,195.20 166.84,194.80 C167.91,194.60 170.16,190.42 173.18,183.00 ZM 196.75 194.37 C198.13,194.00 199.00,193.00 199.00,191.78 C199.00,190.28 198.56,189.96 197.25,190.48 C192.45,192.38 189.33,192.19 186.76,189.85 C185.33,188.56 183.87,186.49 183.51,185.25 C182.88,183.03 183.00,183.00 191.93,183.00 L 201.00 183.00 L 201.00 179.95 C201.00,176.18 198.62,171.40 196.06,170.03 C193.32,168.56 188.37,168.76 185.09,170.46 C179.68,173.25 177.32,182.85 180.51,189.02 C183.08,193.99 189.85,196.22 196.75,194.37 ZM 210.00 185.39 C210.56,175.29 211.69,173.00 216.12,173.00 C218.33,173.00 219.00,172.54 219.00,171.00 C219.00,169.53 218.33,169.00 216.50,169.00 C215.12,169.00 213.10,169.90 212.00,171.00 C210.44,172.56 210.00,172.67 210.00,171.50 C210.00,170.67 209.11,170.00 208.00,170.00 C206.11,170.00 206.00,170.67 206.00,182.57 C206.00,194.01 206.16,195.12 207.75,194.81 C209.22,194.53 209.58,193.02 210.00,185.39 ZM 3.00 151.08 C3.00,148.93 3.51,147.00 4.14,146.79 C4.99,146.50 4.98,145.83 4.09,144.17 C3.44,142.95 2.47,142.21 1.95,142.53 C0.68,143.32 0.72,155.00 2.00,155.00 C2.55,155.00 3.00,153.24 3.00,151.08 ZM 19.00 151.00 C19.00,148.80 18.55,147.00 18.00,147.00 C16.89,147.00 16.61,153.28 17.67,154.33 C18.83,155.50 19.00,155.09 19.00,151.00 ZM 79.77 146.92 C80.07,145.79 79.93,145.81 79.09,147.00 C78.18,148.29 78.03,148.26 78.02,146.75 C78.00,144.45 76.36,144.50 75.76,146.82 C75.40,148.18 75.81,148.61 77.33,148.49 C78.46,148.41 79.56,147.70 79.77,146.92 ZM 147.98 143.75 C147.97,141.92 147.78,141.78 146.98,143.00 C146.11,144.33 145.89,144.33 145.02,143.00 C144.22,141.78 144.03,141.92 144.02,143.75 C144.00,145.34 144.59,146.00 146.00,146.00 C147.41,146.00 148.00,145.34 147.98,143.75 ZM 111.00 141.00 C111.00,140.45 110.66,140.07 110.25,140.16 C109.24,140.37 106.71,139.37 99.23,135.83 C92.48,132.63 92.52,132.83 97.35,126.75 C98.99,124.69 100.09,122.75 99.79,122.45 C99.36,122.02 96.25,125.54 92.31,130.91 C91.76,131.66 87.82,127.54 86.33,124.66 C84.33,120.81 85.15,119.32 89.70,118.55 C91.81,118.19 94.21,117.44 95.02,116.87 C96.55,115.80 93.49,116.09 87.62,117.56 C83.97,118.48 84.18,116.22 88.25,110.94 C95.44,101.61 128.29,87.58 165.50,77.97 C173.75,75.83 183.54,73.57 187.25,72.94 C190.96,72.31 194.00,71.34 194.00,70.79 C194.00,70.24 193.27,70.07 192.37,70.41 C191.47,70.76 186.19,71.72 180.62,72.55 C175.05,73.38 168.93,74.49 167.00,75.02 C161.50,76.54 161.45,76.30 166.27,71.14 C168.77,68.47 171.77,64.42 172.93,62.14 C174.09,59.86 175.59,58.01 176.27,58.02 C176.95,58.04 179.52,59.60 182.00,61.50 C184.48,63.39 187.74,65.89 189.25,67.04 C194.17,70.79 192.15,67.35 186.21,61.86 C175.39,51.85 161.39,47.07 126.77,41.53 C104.27,37.93 101.29,37.04 103.70,34.64 C104.08,34.26 104.49,33.29 104.61,32.48 C104.77,31.33 104.40,31.25 102.85,32.08 C99.26,34.00 99.84,35.66 106.47,42.29 C115.46,51.28 118.35,57.66 117.81,67.32 C117.15,79.07 114.10,84.02 97.35,100.54 C79.94,117.70 78.42,120.74 83.51,128.23 C86.36,132.42 92.44,136.30 101.39,139.62 C108.10,142.12 111.00,142.53 111.00,141.00 ZM 103.00 130.92 C105.53,129.47 102.06,129.92 98.00,131.57 L 94.50 132.98 L 98.00 132.38 C99.93,132.04 102.18,131.39 103.00,130.92 ZM 3.75 190.34 L 0.00 188.79 L 0.00 179.75 L 0.00 170.71 L 2.36 173.25 C3.65,174.65 6.57,176.96 8.83,178.39 C16.30,183.11 17.83,188.39 12.43,190.85 C9.24,192.30 8.35,192.25 3.75,190.34 ZM 35.00 190.28 C30.55,188.01 28.00,182.97 28.00,176.40 C28.00,166.77 35.28,160.65 43.95,162.99 C48.63,164.25 50.50,166.32 51.99,171.91 C55.44,184.88 45.50,195.64 35.00,190.28 ZM 118.00 179.43 C118.00,178.34 120.31,174.49 121.40,173.77 C123.68,172.24 128.91,172.96 129.96,174.93 C132.26,179.22 131.41,180.00 124.50,180.00 C120.93,180.00 118.00,179.75 118.00,179.43 ZM 184.18 177.85 C184.36,176.67 185.65,174.85 187.05,173.80 C190.07,171.56 194.16,172.55 195.99,175.97 C197.69,179.15 196.40,180.00 189.87,180.00 C184.29,180.00 183.88,179.85 184.18,177.85 ZM 108.87 91.19 C110.99,88.21 118.93,82.00 120.62,82.00 C121.94,82.00 115.67,88.08 111.05,91.29 L 106.60 94.37 L 108.87 91.19 ZM 118.18 86.75 C124.67,80.33 126.04,80.01 127.41,84.60 C127.96,86.45 127.13,87.09 120.54,89.85 C116.42,91.58 112.78,93.00 112.45,93.00 C112.12,93.00 114.70,90.19 118.18,86.75 ZM 128.71 83.31 C128.40,81.77 127.86,79.78 127.52,78.90 C127.05,77.69 128.63,76.39 134.02,73.56 C137.94,71.50 141.32,69.99 141.53,70.20 C141.85,70.51 132.62,82.68 130.06,85.31 C129.63,85.76 129.02,84.86 128.71,83.31 ZM 138.38 77.98 C142.02,74.12 145.00,70.52 145.00,69.98 C145.00,68.07 147.77,69.05 152.44,72.61 C155.05,74.60 156.80,76.56 156.34,76.97 C155.58,77.65 133.57,85.00 132.30,85.00 C132.00,85.00 134.74,81.84 138.38,77.98 ZM 116.74 79.25 C117.67,77.19 118.58,75.30 118.74,75.06 C118.91,74.82 119.82,75.39 120.76,76.33 C122.38,77.95 122.31,78.18 119.49,80.49 C115.35,83.87 114.76,83.60 116.74,79.25 ZM 154.17 70.96 L 149.84 66.13 L 152.67 64.69 C156.61,62.68 169.81,58.00 171.56,58.00 C172.35,58.00 173.00,58.34 172.99,58.75 C172.99,59.85 159.95,76.02 159.16,75.90 C158.80,75.84 156.55,73.62 154.17,70.96 ZM 122.15 73.14 L 119.79 71.34 L 125.12 67.09 C128.05,64.76 130.60,63.30 130.78,63.84 C131.23,65.18 126.77,74.33 125.50,74.68 C124.95,74.83 123.44,74.14 122.15,73.14 ZM 130.19 71.91 C130.48,71.13 131.33,68.70 132.07,66.50 C132.82,64.30 133.56,62.32 133.71,62.09 C134.09,61.52 142.00,65.17 142.00,65.92 C142.00,66.26 139.22,68.06 135.83,69.93 C132.14,71.96 129.87,72.75 130.19,71.91 ZM 119.93 65.37 C119.88,63.24 119.66,60.45 119.42,59.17 C119.02,57.01 119.23,56.89 122.24,57.55 C127.60,58.71 130.39,60.02 129.41,60.90 C128.91,61.35 126.59,63.41 124.25,65.48 L 120.00 69.23 L 119.93 65.37 ZM 140.29 60.70 L 136.08 58.50 L 141.79 54.86 C150.08,49.59 152.00,48.69 152.00,50.09 C152.00,52.35 146.71,63.00 145.61,62.95 C145.00,62.93 142.61,61.92 140.29,60.70 ZM 151.43 56.49 L 153.50 49.83 L 157.24 50.43 C162.15,51.21 172.31,55.03 171.53,55.80 C171.20,56.13 166.78,57.69 161.71,59.25 C156.65,60.81 151.79,62.33 150.93,62.62 C149.58,63.07 149.64,62.22 151.43,56.49 ZM 124.52 55.27 L 119.54 53.75 L 124.52 49.30 C129.61,44.76 127.07,45.16 121.52,49.78 L 118.55 52.25 L 117.15 48.88 C116.07,46.28 115.60,45.88 115.12,47.16 C114.62,48.48 113.72,47.91 110.54,44.24 L 106.58 39.68 L 109.54 40.42 C111.17,40.83 112.89,41.85 113.37,42.70 C113.97,43.77 114.45,43.89 114.93,43.11 C115.84,41.65 129.86,44.16 130.99,45.98 C131.54,46.87 131.87,46.90 132.14,46.08 C132.42,45.25 134.63,45.35 140.41,46.45 C144.74,47.28 148.48,48.14 148.70,48.37 C148.93,48.59 145.82,50.55 141.80,52.71 L 134.50 56.65 L 133.78 52.69 C132.75,47.05 132.00,46.90 132.00,52.33 C132.00,57.55 132.00,57.55 124.52,55.27 Z" fill="rgb(253,253,253)"/>
</g>
</svg>