<?xml version="1.0" encoding="UTF-8"?>
<svg version="1.1" xmlns="http://www.w3.org/2000/svg" width="225" height="225">
<path d="M0 0 C74.25 0 148.5 0 225 0 C225 74.25 225 148.5 225 225 C150.75 225 76.5 225 0 225 C0 150.75 0 76.5 0 0 Z " fill="#FDFDFD" transform="translate(0,0)"/>
<path d="M0 0 C1.375 2.0625 1.375 2.0625 2 4 C3.32 4 4.64 4 6 4 C6.4640625 3.0409375 6.4640625 3.0409375 6.9375 2.0625 C8 0 8 0 9 -1 C15.41451365 -0.60727467 21.38066176 1.38066176 26 6 C26.26991906 8.68839385 26.08737357 11.29141936 26 14 C27.3303125 13.62875 27.3303125 13.62875 28.6875 13.25 C32 13 32 13 34.6875 14.5 C38.21681967 18.31548072 39.84324939 22.00142968 40.25 27.1875 C40 30 40 30 39.28515625 31.83203125 C38.84930585 35.14568842 40.36937175 36.77093327 42.1875 39.5 C42.79980469 40.4384375 43.41210938 41.376875 44.04296875 42.34375 C45.89928045 45.01583105 45.89928045 45.01583105 48.1328125 47.0703125 C50.15381969 49.15896847 50.85095537 50.61875469 51.6875 53.375 C51.91824219 54.10460937 52.14898437 54.83421875 52.38671875 55.5859375 C53 58 53 58 53.296875 61.08984375 C53.72597791 64.10281087 53.72597791 64.10281087 56.00390625 65.73046875 C56.84824219 66.21128906 57.69257813 66.69210938 58.5625 67.1875 C67.81694219 73.21610805 74.38824095 83.27741124 77 94 C78.67574412 106.91598626 76.97857754 118.36331561 69.9375 129.5 C69.298125 130.325 68.65875 131.15 68 132 C67.195625 133.2065625 67.195625 133.2065625 66.375 134.4375 C59.1125265 142.27332667 48.67508676 148.13506147 37.984375 149.33984375 C35.60510616 149.37043435 33.3527125 149.35190144 31 149 C30.67 148.67 30.34 148.34 30 148 C28.65984779 147.84417697 27.31241097 147.74955858 25.96484375 147.68359375 C25.15595703 147.64169922 24.34707031 147.59980469 23.51367188 147.55664062 C22.66353516 147.51732422 21.81339844 147.47800781 20.9375 147.4375 C19.65649414 147.37272461 19.65649414 147.37272461 18.34960938 147.30664062 C16.23327963 147.20023298 14.11666187 147.09958269 12 147 C12 152.61 12 158.22 12 164 C10.02 164.99 10.02 164.99 8 166 C7 165 7 165 6.88647461 163.23413086 C6.89432983 162.11083374 6.89432983 162.11083374 6.90234375 160.96484375 C6.90556641 160.15595703 6.90878906 159.34707031 6.91210938 158.51367188 C6.92467773 157.2384668 6.92467773 157.2384668 6.9375 155.9375 C6.94201172 155.08349609 6.94652344 154.22949219 6.95117188 153.34960938 C6.96299627 151.23304337 6.98093231 149.11651315 7 147 C3.60099882 147.07260003 0.32517961 147.26566795 -3 148 C-3.78375 148.845625 -4.5675 149.69125 -5.375 150.5625 C-8.64511917 153.59903923 -9.95083093 153.33285785 -14.3125 153.3125 C-17.1278125 153.1578125 -17.1278125 153.1578125 -20 153 C-20 157.29 -20 161.58 -20 166 C-21.32 165.67 -22.64 165.34 -24 165 C-24 159.06 -24 153.12 -24 147 C-27.63 147 -31.26 147 -35 147 C-35 152.94 -35 158.88 -35 165 C-36.32 165.33 -37.64 165.66 -39 166 C-40 165 -40 165 -40.09765625 161.83984375 C-40.06510417 158.2265625 -40.03255208 154.61328125 -40 151 C-44.62 151 -49.24 151 -54 151 C-54 155.62 -54 160.24 -54 165 C-55.32 165 -56.64 165 -58 165 C-58 159.06 -58 153.12 -58 147 C-61.6815625 147.2165625 -61.6815625 147.2165625 -65.4375 147.4375 C-66.21150146 147.48060303 -66.98550293 147.52370605 -67.78295898 147.56811523 C-71.18161081 147.49795579 -71.18161081 147.49795579 -74 149 C-85.10041506 150.45784063 -93.8822935 146.36541626 -102.875 140.1875 C-112.27816809 132.93246945 -116.29234514 124.12296458 -120 113 C-121.34692948 99.77110655 -119.93999788 88.73773894 -112.125 77.6875 C-111.10165893 76.44303498 -110.0602263 75.21319427 -109 74 C-108.28457031 73.11054688 -108.28457031 73.11054688 -107.5546875 72.203125 C-100.97909073 64.73536183 -90.8243958 59.88296618 -81 59 C-79.02171151 58.93747508 -77.04162549 58.91306635 -75.0625 58.9375 C-74.10472656 58.94652344 -73.14695313 58.95554688 -72.16015625 58.96484375 C-71.09087891 58.98224609 -71.09087891 58.98224609 -70 59 C-69.7215625 57.205625 -69.7215625 57.205625 -69.4375 55.375 C-66.00795296 40.4118393 -56.24299792 27.68425462 -43.7578125 18.96484375 C-41.24247657 17.58420381 -38.83164005 17.34673144 -36 17 C-34.5481612 16.36516554 -33.11161092 15.69480844 -31.6875 15 C-27.07983024 12.83721624 -23.0610512 12.32133658 -18 12 C-18.103125 11.0925 -18.20625 10.185 -18.3125 9.25 C-18 6 -18 6 -15.9375 3.8125 C-6.23411885 -2.17469262 -6.23411885 -2.17469262 0 0 Z " fill="#67DFFB" transform="translate(134,30)"/>
<path d="M0 0 C74.25 0 148.5 0 225 0 C225 7.59 225 15.18 225 23 C150.75 23 76.5 23 0 23 C0 15.41 0 7.82 0 0 Z " fill="#030303" transform="translate(0,202)"/>
<path d="M0 0 C0.639375 0.680625 1.27875 1.36125 1.9375 2.0625 C3.90814394 4.36610392 3.90814394 4.36610392 7.125 3.9375 C10.29174932 3.23305313 10.29174932 3.23305313 12 0 C20.75 1.00961538 20.75 1.00961538 23 3 C23.43655367 5.05616778 23.62623387 7.02581646 23.7265625 9.125 C23.84471868 11.24316208 23.84471868 11.24316208 26 13 C27.27875 13.04125 28.5575 13.0825 29.875 13.125 C32.6210086 13.39009737 33.63437974 13.57130778 35.44921875 15.69921875 C38.12690781 20.78213027 38.12690781 20.78213027 37.77734375 24.13671875 C37 26 37 26 34 28 C33.41657647 31.45769191 33.41657647 31.45769191 34 35 C35.86124923 36.98239527 35.86124923 36.98239527 38 38 C37.39301257 42.12751449 35.96189209 45.3321148 34 49 C32.3603125 48.9690625 32.3603125 48.9690625 30.6875 48.9375 C27.05615809 48.81455548 27.05615809 48.81455548 24 50 C23.505 54.95 23.505 54.95 23 60 C16.5 63 16.5 63 12 63 C11.360625 62.34 10.72125 61.68 10.0625 61 C8.15757871 58.78878117 8.15757871 58.78878117 5.4375 58.5 C2.83781037 58.7831009 2.83781037 58.7831009 1.1875 61 C0.5996875 61.99 0.5996875 61.99 0 63 C-8.75 61.99038462 -8.75 61.99038462 -11 60 C-11.28922445 57.97542883 -11.57227684 55.94788216 -11.74609375 53.91015625 C-11.89294145 51.90080028 -11.89294145 51.90080028 -13.125 50 C-16.04186663 48.4443378 -18.76628217 48.81695937 -22 49 C-22.70226141 47.75823305 -23.38629109 46.50614401 -24.0625 45.25 C-24.44535156 44.55390625 -24.82820313 43.8578125 -25.22265625 43.140625 C-26.15278886 40.5792548 -26.08040119 39.48440081 -25 37 C-24.01 36.34 -23.02 35.68 -22 35 C-21.41657647 31.54230809 -21.41657647 31.54230809 -22 28 C-23.86124923 26.01760473 -23.86124923 26.01760473 -26 25 C-25.49614586 20.66685437 -24.93794184 17.31703111 -22 14 C-20.09375 13.57421875 -20.09375 13.57421875 -17.9375 13.375 C-15.9884375 13.189375 -15.9884375 13.189375 -14 13 C-11.68462405 10.18291805 -11.68462405 10.18291805 -12.1875 7 C-12.0946875 5.515 -12.0946875 5.515 -12 4 C-9.625 2.1875 -9.625 2.1875 -7 1 C-4.4086487 -0.29567565 -2.87704151 -0.34250494 0 0 Z " fill="#F3F3F3" transform="translate(132,34)"/>
<path d="M0 0 C1.375 2.0625 1.375 2.0625 2 4 C3.32 4 4.64 4 6 4 C6.309375 3.360625 6.61875 2.72125 6.9375 2.0625 C8 -0 8 -0 9 -1 C15.41451365 -0.60727467 21.38066176 1.38066176 26 6 C26.26991906 8.68839385 26.08737357 11.29141936 26 14 C27.3303125 13.62875 27.3303125 13.62875 28.6875 13.25 C32 13 32 13 34.6875 14.5 C38.22174941 18.32081017 39.73272161 22.05268604 40.4375 27.1875 C39.89000257 30.70712636 38.62506715 31.6931228 36 34 C35.67 34.99 35.34 35.98 35 37 C35.639375 37.309375 36.27875 37.61875 36.9375 37.9375 C39 39 39 39 40 40 C40.93053779 46.04849562 38.1153321 50.98714744 35 56 C32.04335481 57.4783226 29.25770263 57.06032783 26 57 C26.061875 58.0725 26.12375 59.145 26.1875 60.25 C26 64 26 64 25 66.25 C20.98010144 69.76741124 16.4097698 70.83822314 11.1875 71.4375 C8 71 8 71 6.1875 69 C5.795625 68.34 5.40375 67.68 5 67 C4.34 67 3.68 67 3 67 C2.62875 67.66 2.2575 68.32 1.875 69 C0 71 0 71 -3.6875 71.5 C-8.30708745 71.26944758 -12.22724203 69.64801557 -16 67 C-18.4294516 63.3558226 -18.16179575 61.28758728 -18 57 C-19.0725 57.0825 -20.145 57.165 -21.25 57.25 C-25 57 -25 57 -27.25 55.4375 C-30.69015232 50.64585927 -32.81251542 45.95844642 -32 40 C-30.625 38.125 -30.625 38.125 -29 37 C-28.34 37 -27.68 37 -27 37 C-27.7488143 33.91377207 -27.7488143 33.91377207 -30.0625 32.1875 C-32 30 -32 30 -32.5 27.25 C-31.71720271 22.1618176 -29.65700041 17.65700041 -26 14 C-23.31160615 13.73008094 -20.70858064 13.91262643 -18 14 C-18.1546875 12.14375 -18.1546875 12.14375 -18.3125 10.25 C-18.30071772 6.90972266 -18.26050705 6.29208366 -15.9375 3.6875 C-5.92229368 -2.0659164 -5.92229368 -2.0659164 0 0 Z M-13 7 C-14.08352852 9.97996356 -14.08352852 9.97996356 -14.5 13.125 C-15 16 -15 16 -16 17 C-17.258125 17.020625 -18.51625 17.04125 -19.8125 17.0625 C-22.56979349 17.36004966 -23.62964657 17.56592986 -25.453125 19.703125 C-27.55938772 23.70613037 -27.55938772 23.70613037 -27.77734375 28.13671875 C-27.04860256 30.36794675 -27.04860256 30.36794675 -24 32 C-23.5625 35.4375 -23.5625 35.4375 -24 39 C-26 40.9375 -26 40.9375 -28 42 C-27.39301257 46.12751449 -25.96189209 49.3321148 -24 53 C-22.906875 52.938125 -21.81375 52.87625 -20.6875 52.8125 C-17 53 -17 53 -15.125 54 C-13.86625244 56.23777345 -13.87092109 57.46995876 -13.75 60 C-13.64110524 62.10993753 -13.64110524 62.10993753 -13 64 C-9.04020487 66.3908197 -6.62674065 67 -2 67 C-0.22590192 65.07977297 -0.22590192 65.07977297 1 63 C4.375 63.3125 4.375 63.3125 8 64 C8.66 64.99 9.32 65.98 10 67 C13.9492568 66.44894091 17.34920174 65.61064629 21 64 C21.495 59.05 21.495 59.05 22 54 C23.0725 53.855625 24.145 53.71125 25.25 53.5625 C26.4875 53.376875 27.725 53.19125 29 53 C29.7425 52.95875 30.485 52.9175 31.25 52.875 C33.40635719 52.00462646 33.40635719 52.00462646 34.8125 48.6875 C36.15316472 45.27732561 36.15316472 45.27732561 35.875 42.6875 C34.98698612 40.64226079 34.98698612 40.64226079 32 39 C31.5625 35.5625 31.5625 35.5625 32 32 C34 30.0625 34 30.0625 36 29 C35.49614586 24.66685437 34.93794184 21.31703111 32 18 C29.32713711 17.35369299 26.75639 17.21876111 24 17 C22 15 22 15 21.75 11.0625 C21.59445288 8.92879408 21.59445288 8.92879408 21 7 C18.08389044 4.87919305 15.90339428 4.15056571 12.375 3.5625 C9.8117467 3.792086 9.8117467 3.792086 8.0625 6.0625 C6 8 6 8 2.875 7.9375 C0 7 0 7 -2 4 C-6.34099983 3.27650003 -9.327725 4.74655852 -13 7 Z " fill="#0C0E0F" transform="translate(134,30)"/>
<path d="M0 0 C0 1.32 0 2.64 0 4 C-1.72265625 5.67578125 -1.72265625 5.67578125 -4.0625 7.3125 C-15.06987989 15.47314371 -20.71965193 24.50073156 -25.140625 37.4921875 C-26.01125046 40.03283088 -26.9843161 42.5142473 -28 45 C-28.94359375 45.02578125 -29.8871875 45.0515625 -30.859375 45.078125 C-43.78515389 45.64914334 -54.26450697 47.88352676 -64 57 C-64.63808594 57.58523437 -65.27617188 58.17046875 -65.93359375 58.7734375 C-73.22058426 66.20146653 -76.2611008 75.40444758 -76.5 85.6875 C-75.99155327 98.7064122 -71.63675068 107.75465649 -62.3125 116.8125 C-54.33919979 123.66380887 -45.18130802 125.50332803 -35 127 C-35 128.32 -35 129.64 -35 131 C-47.45900146 132.1036517 -56.84153697 127.61418053 -66.59375 120.08984375 C-74.02939173 113.63194063 -80.18092684 103.04454256 -81.19287109 93.10571289 C-81.74673819 78.44166187 -79.96411783 67.40172687 -70 56 C-69.52304688 55.40703125 -69.04609375 54.8140625 -68.5546875 54.203125 C-61.97909073 46.73536183 -51.8243958 41.88296618 -42 41 C-40.02171151 40.93747508 -38.04162549 40.91306635 -36.0625 40.9375 C-35.10472656 40.94652344 -34.14695313 40.95554688 -33.16015625 40.96484375 C-32.09087891 40.98224609 -32.09087891 40.98224609 -31 41 C-30.7215625 39.205625 -30.7215625 39.205625 -30.4375 37.375 C-26.92321908 22.04214418 -17.10866817 10.07164518 -4.65625 0.890625 C-3 0 -3 0 0 0 Z " fill="#090C0C" transform="translate(95,48)"/>
<path d="M0 0 C4.85978996 2.29735525 7.59883576 5.19767151 10 10 C10.81489668 16.41731135 9.70890694 19.74571517 6 25 C1.81438604 28.8051036 -2.23774476 29.36241486 -7.71875 29.2734375 C-11.97191861 28.76363989 -14.59859954 26.72446474 -17.25390625 23.45703125 C-20.23478037 18.91820898 -20.68061657 15.35985552 -20 10 C-15.32857175 1.00317522 -9.8074164 -1.41342178 0 0 Z " fill="#66DEF8" transform="translate(143,51)"/>
<path d="M0 0 C1.86328125 0.17578125 1.86328125 0.17578125 4 1 C5.23046875 3.29296875 5.23046875 3.29296875 6.1875 6.1875 C6.67283203 7.60095703 6.67283203 7.60095703 7.16796875 9.04296875 C8 12 8 12 8.328125 15.1640625 C8.73409408 18.11192185 8.73409408 18.11192185 11.00390625 19.73046875 C11.84824219 20.21128906 12.69257813 20.69210938 13.5625 21.1875 C22.81694219 27.21610805 29.38824095 37.27741124 32 48 C33.67574412 60.91598626 31.97857754 72.36331561 24.9375 83.5 C24.298125 84.325 23.65875 85.15 23 86 C22.46375 86.804375 21.9275 87.60875 21.375 88.4375 C14.13904368 96.24471603 3.63496833 102.23748076 -7.05078125 103.3046875 C-9.39326444 103.31131404 -11.67067971 103.23661267 -14 103 C-14 101.68 -14 100.36 -14 99 C-13.23816406 98.90203125 -12.47632813 98.8040625 -11.69140625 98.703125 C1.22837444 96.83209559 11.3722172 92.08496999 19.6875 81.78125 C26.90663918 71.98384683 28.13069763 61.956526 27 50 C24.8306618 40.54337038 20.2815115 33.37426816 13 27 C11.39193923 26.0539327 9.76728095 25.13533387 8.125 24.25 C4.95343088 22.32164177 4.11635111 21.31445217 2.8046875 17.76953125 C2.02530192 14.1790608 1.45114804 10.64543729 1 7 C0.66699043 4.66662044 0.33375052 2.3332737 0 0 Z " fill="#090C0D" transform="translate(179,76)"/>
<path d="M0 0 C1.20527344 -0.02449219 2.41054687 -0.04898438 3.65234375 -0.07421875 C7.1605488 0.70940094 9.0366984 1.55665685 11.17553711 4.50561523 C13.22627779 9.5503357 12.55591373 15.21858673 12.375 20.5625 C12.35244141 21.82320312 12.32988281 23.08390625 12.30664062 24.3828125 C12.24787581 27.48559499 12.16575851 30.58593199 12.0625 33.6875 C10.125 34.25 10.125 34.25 8.0625 34.6875 C7.0625 33.6875 7.0625 33.6875 6.96484375 30.52734375 C6.99739583 26.9140625 7.02994792 23.30078125 7.0625 19.6875 C2.4425 19.6875 -2.1775 19.6875 -6.9375 19.6875 C-6.9375 24.3075 -6.9375 28.9275 -6.9375 33.6875 C-8.2575 33.6875 -9.5775 33.6875 -10.9375 33.6875 C-11.05375936 29.12521459 -11.12477408 24.56331072 -11.1875 20 C-11.22101563 18.70642578 -11.25453125 17.41285156 -11.2890625 16.08007812 C-11.30195312 14.83291016 -11.31484375 13.58574219 -11.328125 12.30078125 C-11.34907227 11.15391846 -11.37001953 10.00705566 -11.39160156 8.82543945 C-10.37623327 1.80902619 -6.65848187 -0.02131851 0 0 Z " fill="#0E1314" transform="translate(86.9375,161.3125)"/>
<path d="M0 0 C14 0 14 0 19 3 C21.26843376 7.53686753 19.98421102 13.21954647 19 18 C19.33 18.66 19.66 19.32 20 20 C20.07092842 22.2072923 20.08415025 24.41667452 20.0625 26.625 C20.05347656 27.81351563 20.04445313 29.00203125 20.03515625 30.2265625 C20.02355469 31.14179688 20.01195313 32.05703125 20 33 C18.02 33.495 18.02 33.495 16 34 C15.93941406 33.15695313 15.87882812 32.31390625 15.81640625 31.4453125 C15.73261719 30.34960938 15.64882812 29.25390625 15.5625 28.125 C15.48128906 27.03445312 15.40007812 25.94390625 15.31640625 24.8203125 C15.16998297 22.05271029 15.16998297 22.05271029 14 20 C11.64400765 19.53248212 11.64400765 19.53248212 8.9375 19.375 C6.4934375 19.189375 6.4934375 19.189375 4 19 C4 23.62 4 28.24 4 33 C2.02 33.495 2.02 33.495 0 34 C0 22.78 0 11.56 0 0 Z " fill="#020607" transform="translate(58,115)"/>
<path d="M0 0 C0.72509766 -0.02900391 1.45019531 -0.05800781 2.19726562 -0.08789062 C5.62338296 -0.12864042 7.7824818 0.04291376 10.6640625 1.9609375 C13.54121099 6.4020744 12.94201681 11.23854753 12.1875 16.3125 C10.4375 19.5625 10.4375 19.5625 7.1875 21.3125 C3.09114336 21.7013609 -0.67747491 21.53969918 -4.8125 21.3125 C-4.8125 25.6025 -4.8125 29.8925 -4.8125 34.3125 C-6.1325 33.9825 -7.4525 33.6525 -8.8125 33.3125 C-8.83715392 28.77352295 -8.85533789 24.23458457 -8.86743164 19.69555664 C-8.8724714 18.15030234 -8.8793032 16.60505284 -8.88793945 15.05981445 C-8.90002076 12.84324971 -8.90573173 10.62674782 -8.91015625 8.41015625 C-8.91531754 7.7153566 -8.92047882 7.02055695 -8.92579651 6.30470276 C-8.92599277 4.6402067 -8.87439129 2.97584501 -8.8125 1.3125 C-6.7707082 -0.7292918 -2.79114238 0.03662917 0 0 Z " fill="#0E1314" transform="translate(118.8125,161.6875)"/>
<path d="M0 0 C4.85978996 2.29735525 7.59883576 5.19767151 10 10 C10.81489668 16.41731135 9.70890694 19.74571517 6 25 C1.81438604 28.8051036 -2.23774476 29.36241486 -7.71875 29.2734375 C-11.97191861 28.76363989 -14.59859954 26.72446474 -17.25390625 23.45703125 C-20.23478037 18.91820898 -20.68061657 15.35985552 -20 10 C-15.32857175 1.00317522 -9.8074164 -1.41342178 0 0 Z M-14 8 C-15.73498116 11.46996232 -15.60794181 15.21507195 -15 19 C-12.72872666 22.02409364 -12.72872666 22.02409364 -10 24 C-9.67 24.33 -9.34 24.66 -9 25 C-3.31504837 25.5573482 -0.42916809 24.58551703 4 21 C5.72869779 17.54260443 5.48966895 13.78024432 5 10 C3.20606332 7.12970131 2.01736724 5.50868362 -1 4 C-6.86619119 3.51916466 -9.70514791 3.57500087 -14 8 Z " fill="#0B0E0F" transform="translate(143,51)"/>
<path d="M0 0 C2.39446415 1.43869064 4.00202012 3.00202012 6 5 C5.67 6.65 5.34 8.3 5 10 C3.125 9.75 3.125 9.75 1 9 C-0.25 6.9375 -0.25 6.9375 -1 5 C-2.99954746 4.95745644 -5.00041636 4.95919217 -7 5 C-8.40432936 6.17718985 -8.40432936 6.17718985 -8.125 9.5 C-8.40432936 12.82281015 -8.40432936 12.82281015 -7 14 C-5.56697286 14.29358162 -4.12836347 14.56017203 -2.6875 14.8125 C0.23072154 15.45841209 2.00822012 16.00521276 4.5625 17.625 C6.62393576 21.03085039 6.77270304 24.18193794 6 28 C4.20636089 30.8100346 2.98119065 32.50940468 0 34 C-4.31467092 34.50809831 -7.82785894 34.79119522 -11.5 32.3125 C-13.1175594 29.81876259 -13.67357189 27.93785297 -14 25 C-12.68 24.67 -11.36 24.34 -10 24 C-9.62875 24.825 -9.2575 25.65 -8.875 26.5 C-8.25625 27.325 -7.6375 28.15 -7 29 C-3.91538029 29.50042146 -3.91538029 29.50042146 -1 29 C0.40432936 27.82281015 0.40432936 27.82281015 0.125 24.5 C0.40432936 21.17718985 0.40432936 21.17718985 -1 20 C-2.2375 19.938125 -3.475 19.87625 -4.75 19.8125 C-8.39868402 19.38594521 -9.03168255 18.97227777 -12 16.375 C-14.33999613 12.42625653 -14.73821385 10.51130687 -14 6 C-10.32798393 0.36957535 -6.6858942 -1.16384084 0 0 Z " fill="#071113" transform="translate(130,115)"/>
<path d="M0 0 C1.58206057 0.00667536 3.16410534 0.0186375 4.74609375 0.03515625 C5.55240234 0.03966797 6.35871094 0.04417969 7.18945312 0.04882812 C9.18753131 0.06065107 11.18557158 0.07858711 13.18359375 0.09765625 C13.51359375 1.41765625 13.84359375 2.73765625 14.18359375 4.09765625 C9.23359375 4.09765625 4.28359375 4.09765625 -0.81640625 4.09765625 C-0.81640625 7.72765625 -0.81640625 11.35765625 -0.81640625 15.09765625 C2.48359375 15.09765625 5.78359375 15.09765625 9.18359375 15.09765625 C9.18359375 16.41765625 9.18359375 17.73765625 9.18359375 19.09765625 C5.88359375 19.09765625 2.58359375 19.09765625 -0.81640625 19.09765625 C-0.81640625 22.72765625 -0.81640625 26.35765625 -0.81640625 30.09765625 C3.80359375 30.09765625 8.42359375 30.09765625 13.18359375 30.09765625 C13.18359375 31.41765625 13.18359375 32.73765625 13.18359375 34.09765625 C7.24359375 34.09765625 1.30359375 34.09765625 -4.81640625 34.09765625 C-4.83931713 29.41619914 -4.85924357 24.73493523 -4.87133789 20.0534668 C-4.87637782 18.45971011 -4.88320975 16.86595806 -4.8918457 15.2722168 C-4.90392624 12.98615372 -4.9096378 10.70015158 -4.9140625 8.4140625 C-4.91922379 7.69738907 -4.92438507 6.98071564 -4.92970276 6.24232483 C-4.92989888 4.52701953 -4.87832632 2.81184359 -4.81640625 1.09765625 C-3.81640625 0.09765625 -3.81640625 0.09765625 0 0 Z " fill="#010303" transform="translate(93.81640625,114.90234375)"/>
<path d="M0 0 C6.93 0 13.86 0 21 0 C21.33 1.32 21.66 2.64 22 4 C19.03 4 16.06 4 13 4 C13 13.57 13 23.14 13 33 C11.02 33.495 11.02 33.495 9 34 C9 24.1 9 14.2 9 4 C6.03 4 3.06 4 0 4 C0 2.68 0 1.36 0 0 Z " fill="#030607" transform="translate(145,115)"/>
<path d="M0 0 C4 0 8 0 12 0 C12.33 0.99 12.66 1.98 13 3 C13.33 2.505 13.66 2.01 14 1.5 C17.08581004 -0.81435753 20.32813944 -0.19028836 24 0 C25.32 0 26.64 0 28 0 C27.814375 0.763125 27.62875 1.52625 27.4375 2.3125 C26.77180827 5.08967375 26.77180827 5.08967375 28 8 C26.10507254 8.19644384 24.20899097 8.38177288 22.3125 8.5625 C20.72888672 8.71912109 20.72888672 8.71912109 19.11328125 8.87890625 C16.16185438 8.99370453 13.86192862 8.64073029 11 8 C9.68 8 8.36 8 7 8 C6.67 7.01 6.34 6.02 6 5 C5.01 5.33 4.02 5.66 3 6 C3 6.99 3 7.98 3 9 C2.01 8.67 1.02 8.34 0 8 C0 5.36 0 2.72 0 0 Z " fill="#919191" transform="translate(32,209)"/>
<path d="M0 0 C1.60875 -0.04125 3.2175 -0.0825 4.875 -0.125 C5.77992187 -0.14820313 6.68484375 -0.17140625 7.6171875 -0.1953125 C10 0 10 0 12 2 C12.23046875 3.875 12.23046875 3.875 12.1875 6 C12.17783203 7.051875 12.17783203 7.051875 12.16796875 8.125 C12 10 12 10 11 12 C7.37 12 3.74 12 0 12 C0 8.04 0 4.08 0 0 Z " fill="#70E0F9" transform="translate(115,166)"/>
<path d="M0 0 C1.3303125 0.00773438 1.3303125 0.00773438 2.6875 0.015625 C3.574375 0.01046875 4.46125 0.0053125 5.375 0 C7.6875 0.265625 7.6875 0.265625 9.6875 2.265625 C9.95741906 4.95401885 9.77487357 7.55704436 9.6875 10.265625 C5.0675 10.265625 0.4475 10.265625 -4.3125 10.265625 C-4.5078125 4.2109375 -4.5078125 4.2109375 -4.3125 2.265625 C-2.3125 0.265625 -2.3125 0.265625 0 0 Z " fill="#66DDF7" transform="translate(84.3125,165.734375)"/>
<path d="M0 0 C0.99 0 1.98 0 3 0 C3 10.89 3 21.78 3 33 C1.68 33 0.36 33 -1 33 C-1.02465392 28.46102295 -1.04283789 23.92208457 -1.05493164 19.38305664 C-1.0599714 17.83780234 -1.0668032 16.29255284 -1.07543945 14.74731445 C-1.08752076 12.53074971 -1.09323173 10.31424782 -1.09765625 8.09765625 C-1.10281754 7.4028566 -1.10797882 6.70805695 -1.11329651 5.99220276 C-1.11349277 4.3277067 -1.06189129 2.66334501 -1 1 C-0.67 0.67 -0.34 0.34 0 0 Z " fill="#060808" transform="translate(142,162)"/>
<path d="M0 0 C1.60875 -0.061875 3.2175 -0.12375 4.875 -0.1875 C5.77992187 -0.22230469 6.68484375 -0.25710937 7.6171875 -0.29296875 C8.79667969 -0.14794922 8.79667969 -0.14794922 10 0 C12.30163882 3.45245824 12.34490322 4.94738713 12 9 C10 11 10 11 7.6171875 11.1953125 C6.71226563 11.17210937 5.80734375 11.14890625 4.875 11.125 C2.461875 11.063125 2.461875 11.063125 0 11 C0 7.37 0 3.74 0 0 Z " fill="#61D3EC" transform="translate(62,119)"/>
<path d="M0 0 C4 0 8 0 12 0 C12.66 2.64 13.32 5.28 14 8 C11.69 8 9.38 8 7 8 C6.67 7.01 6.34 6.02 6 5 C5.01 5.33 4.02 5.66 3 6 C3 6.99 3 7.98 3 9 C2.01 8.67 1.02 8.34 0 8 C0 5.36 0 2.72 0 0 Z " fill="#BCBCBC" transform="translate(32,209)"/>
<path d="M0 0 C3.96 0 7.92 0 12 0 C12 0.66 12 1.32 12 2 C11.34 2 10.68 2 10 2 C10 3.98 10 5.96 10 8 C9.34 8 8.68 8 8 8 C8 6.02 8 4.04 8 2 C7.01 2.33 6.02 2.66 5 3 C5.33 4.98 5.66 6.96 6 9 C4.02 9 2.04 9 0 9 C0 6.03 0 3.06 0 0 Z " fill="#D3D3D3" transform="translate(79,209)"/>
<path d="M0 0 C2.5 0.125 2.5 0.125 3.5 1.125 C3.6875 4.0625 3.6875 4.0625 3.5 7.125 C2.84 7.785 2.18 8.445 1.5 9.125 C-2.03571429 8.58928571 -2.03571429 8.58928571 -3.5 7.125 C-3.625 4.125 -3.625 4.125 -3.5 1.125 C-2.5 0.125 -2.5 0.125 0 0 Z " fill="#A4A4A4" transform="translate(19.5,208.875)"/>
<path d="M0 0 C2.33333333 0 4.66666667 0 7 0 C7 2.97 7 5.94 7 9 C5.68 8.34 4.36 7.68 3 7 C2.01 7.33 1.02 7.66 0 8 C0 5.36 0 2.72 0 0 Z " fill="#C2C2C2" transform="translate(71,209)"/>
<path d="M0 0 C1.66611905 -0.042721 3.33382885 -0.04063832 5 0 C6 1 6 1 6.125 4 C6 7 6 7 5 8 C2.5 8.125 2.5 8.125 0 8 C-0.33 7.67 -0.66 7.34 -1 7 C-0.71269945 4.66055264 -0.38063221 2.3260857 0 0 Z " fill="#C1C1C1" transform="translate(193,209)"/>
<path d="M0 0 C0.99 0 1.98 0 3 0 C3.33 0.66 3.66 1.32 4 2 C4.33 1.34 4.66 0.68 5 0 C5.66 0 6.32 0 7 0 C7 2.64 7 5.28 7 8 C6.01 7.67 5.02 7.34 4 7 C3.67 7.66 3.34 8.32 3 9 C2.01 8.67 1.02 8.34 0 8 C0 5.36 0 2.72 0 0 Z " fill="#D8D8D8" transform="translate(200,209)"/>
<path d="M0 0 C0.99 0 1.98 0 3 0 C3.33 0.66 3.66 1.32 4 2 C4.33 1.34 4.66 0.68 5 0 C5.66 0 6.32 0 7 0 C7 2.64 7 5.28 7 8 C4.66666667 8 2.33333333 8 0 8 C0 5.36 0 2.72 0 0 Z " fill="#D5D5D5" transform="translate(24,209)"/>
<path d="M0 0 C1.98 0 3.96 0 6 0 C5.814375 0.7425 5.62875 1.485 5.4375 2.25 C5.00796892 4.94990963 5.14877026 6.44631077 6 9 C4.02 9 2.04 9 0 9 C0 6.03 0 3.06 0 0 Z " fill="#D1D1D1" transform="translate(171,209)"/>
<path d="M0 0 C1.65 0 3.3 0 5 0 C5.82638376 2.89234315 6 4.88742431 6 8 C4 8 2 8 0 8 C0 5.36 0 2.72 0 0 Z " fill="#E7E7E7" transform="translate(157,209)"/>
<path d="M0 0 C1.98 0 3.96 0 6 0 C5.814375 0.763125 5.62875 1.52625 5.4375 2.3125 C4.77180827 5.08967375 4.77180827 5.08967375 6 8 C4.02 8 2.04 8 0 8 C0 5.36 0 2.72 0 0 Z " fill="#E4E4E4" transform="translate(164,209)"/>
<path d="M0 0 C2 0 4 0 6 0 C5.814375 0.763125 5.62875 1.52625 5.4375 2.3125 C4.77180827 5.08967375 4.77180827 5.08967375 6 8 C4.02 8 2.04 8 0 8 C0 5.36 0 2.72 0 0 Z " fill="#E4E4E4" transform="translate(54,209)"/>
<path d="M0 0 C1.65 0 3.3 0 5 0 C5 3.11257569 4.82638376 5.10765685 4 8 C2.35 8 0.7 8 -1 8 C-1 4.88742431 -0.82638376 2.89234315 0 0 Z " fill="#DEDEDE" transform="translate(62,209)"/>
<path d="M0 0 C1.98 0 3.96 0 6 0 C6 1.65 6 3.3 6 5 C5.01 5 4.02 5 3 5 C3 5.99 3 6.98 3 8 C2.01 8 1.02 8 0 8 C0 5.36 0 2.72 0 0 Z " fill="#D4D4D4" transform="translate(150,209)"/>
<path d="M0 0 C1.2065625 0.0309375 1.2065625 0.0309375 2.4375 0.0625 C2.4375 0.7225 2.4375 1.3825 2.4375 2.0625 C1.4475 2.3925 0.4575 2.7225 -0.5625 3.0625 C-0.8925 4.0525 -1.2225 5.0425 -1.5625 6.0625 C-0.2425 6.0625 1.0775 6.0625 2.4375 6.0625 C2.1075 7.0525 1.7775 8.0425 1.4375 9.0625 C-2.4375 8.1875 -2.4375 8.1875 -3.5625 7.0625 C-3.6875 4.0625 -3.6875 4.0625 -3.5625 1.0625 C-2.5625 0.0625 -2.5625 0.0625 0 0 Z " fill="#DFDFDF" transform="translate(12.5625,208.9375)"/>
<path d="M0 0 C1.2065625 0.0309375 1.2065625 0.0309375 2.4375 0.0625 C2.4375 0.7225 2.4375 1.3825 2.4375 2.0625 C1.4475 2.3925 0.4575 2.7225 -0.5625 3.0625 C-0.8925 4.0525 -1.2225 5.0425 -1.5625 6.0625 C-0.2425 6.0625 1.0775 6.0625 2.4375 6.0625 C2.1075 7.0525 1.7775 8.0425 1.4375 9.0625 C-2.4375 8.1875 -2.4375 8.1875 -3.5625 7.0625 C-3.6875 4.0625 -3.6875 4.0625 -3.5625 1.0625 C-2.5625 0.0625 -2.5625 0.0625 0 0 Z " fill="#DEDEDE" transform="translate(188.5625,208.9375)"/>
<path d="M0 0 C1.32 0 2.64 0 4 0 C4.66 2.64 5.32 5.28 6 8 C3.69 8 1.38 8 -1 8 C-0.67 6.68 -0.34 5.36 0 4 C0.99 4.33 1.98 4.66 3 5 C3 4.01 3 3.02 3 2 C2.01 2 1.02 2 0 2 C0 1.34 0 0.68 0 0 Z " fill="#D9D9D9" transform="translate(40,209)"/>
<path d="M0 0 C0.99 0 1.98 0 3 0 C3 2.97 3 5.94 3 9 C2.01 9 1.02 9 0 9 C0 6.03 0 3.06 0 0 Z " fill="#B9B9B9" transform="translate(181,209)"/>
<path d="M0 0 C0.66 0.33 1.32 0.66 2 1 C2 1.99 2 2.98 2 4 C2.66 4.66 3.32 5.32 4 6 C3.01 6 2.02 6 1 6 C1 6.66 1 7.32 1 8 C2.32 8.33 3.64 8.66 5 9 C2.69 9 0.38 9 -2 9 C-1.34 8.67 -0.68 8.34 0 8 C-0.556875 6.8553125 -0.556875 6.8553125 -1.125 5.6875 C-1.41375 4.800625 -1.7025 3.91375 -2 3 C-1.34 2.01 -0.68 1.02 0 0 Z " fill="#292929" transform="translate(60,209)"/>
<path d="M0 0 C1.65 0 3.3 0 5 0 C5 0.66 5 1.32 5 2 C4.34 2 3.68 2 3 2 C3 3.98 3 5.96 3 8 C2.34 8 1.68 8 1 8 C0.67 5.36 0.34 2.72 0 0 Z " fill="#EFEFEF" transform="translate(86,209)"/>
<path d="M0 0 C0.99 0.33 1.98 0.66 3 1 C4 4 4 4 3.0625 6.1875 C2.5365625 7.0846875 2.5365625 7.0846875 2 8 C1.34 8 0.68 8 0 8 C0 5.36 0 2.72 0 0 Z " fill="#F1F1F1" transform="translate(71,209)"/>
<path d="M0 0 C1.32 0 2.64 0 4 0 C4 1.65 4 3.3 4 5 C2.35 4.67 0.7 4.34 -1 4 C-0.67 2.68 -0.34 1.36 0 0 Z " fill="#0A0A0A" transform="translate(188,211)"/>
<path d="M0 0 C1.98 0.99 1.98 0.99 4 2 C4 2.99 4 3.98 4 5 C2.02 5.99 2.02 5.99 0 7 C0.2784375 6.1028125 0.2784375 6.1028125 0.5625 5.1875 C1.22093687 2.83591238 1.22093687 2.83591238 0 0 Z " fill="#E9E9E9" transform="translate(214,210)"/>
<path d="M0 0 C0.66 0 1.32 0 2 0 C2 2.64 2 5.28 2 8 C1.01 7.67 0.02 7.34 -1 7 C-0.67 4.69 -0.34 2.38 0 0 Z " fill="#F7F7F7" transform="translate(29,209)"/>
<path d="M0 0 C0.33 0.66 0.66 1.32 1 2 C1.99 2 2.98 2 4 2 C4.33 3.32 4.66 4.64 5 6 C3.35 6 1.7 6 0 6 C0 4.02 0 2.04 0 0 Z " fill="#D8D8D8" transform="translate(165,210)"/>
<path d="M0 0 C0.33 0.99 0.66 1.98 1 3 C1.99 3 2.98 3 4 3 C4 3.66 4 4.32 4 5 C3.34 5 2.68 5 2 5 C2 5.99 2 6.98 2 8 C1.34 8 0.68 8 0 8 C0 5.36 0 2.72 0 0 Z " fill="#D1D1D1" transform="translate(33,210)"/>
<path d="M0 0 C0.99 0.33 1.98 0.66 3 1 C3.33 2.98 3.66 4.96 4 7 C2.68 6.67 1.36 6.34 0 6 C0 4.02 0 2.04 0 0 Z " fill="#EDEDED" transform="translate(16,210)"/>
</svg>
